<svg width="844" height="494" viewBox="0 0 844 494" fill="none" xmlns="http://www.w3.org/2000/svg">
<path fill-rule="evenodd" clip-rule="evenodd" d="M690.981 0.098739C673.08 0.590739 652.272 2.47174 632.543 5.38074C621.272 7.04274 611.471 8.62874 610.765 8.90674C609.885 9.25174 609.427 12.0007 609.309 17.6377C609.215 22.1637 608.592 29.7737 607.924 34.5507C606.543 44.4307 607.696 43.4947 588.481 50.3267C572.782 55.9077 526.515 73.6377 525.641 74.4067C525.178 74.8137 540.928 71.1197 560.641 66.1977C606.516 54.7437 602.378 55.5267 601.464 58.4677C601.054 59.7867 599.241 63.8157 597.435 67.4217C594.768 72.7467 593.525 74.1847 590.816 75.0767C581.88 78.0187 548.564 89.8487 532.981 95.6117C523.356 99.1717 511.983 103.337 507.707 104.868C503.431 106.399 500.119 107.837 500.346 108.065C500.705 108.423 580.259 89.1627 583.8 87.8607C586.117 87.0087 581.071 92.6127 572.731 100.151C553.515 117.522 528.375 130.553 496.273 139.78C487.86 142.199 485.39 143.246 487.117 143.664C488.417 143.978 502.531 146.732 518.481 149.784C562.417 158.191 564.983 158.717 564.958 159.313C564.946 159.617 553.583 162.668 539.708 166.093C525.833 169.518 505.481 174.979 494.481 178.228C460.289 188.328 439.94 194.659 440.35 195.068C440.566 195.284 445.184 194.344 450.612 192.979C484.314 184.503 540.724 173.302 571.728 168.929C593.079 165.917 597.946 165.792 606.045 168.044L612.08 169.721L597.78 172.923C572.247 178.64 482.47 203.188 483.463 204.181C483.686 204.405 488.957 203.423 495.175 202C536.081 192.638 579.004 184.791 612.981 180.462C642.813 176.661 639.448 176.491 656.981 182.683C665.506 185.693 675.226 189.192 678.58 190.459L684.68 192.763L691.891 186.314C712.902 167.527 734.746 137.055 751.958 102.522C761.994 82.3857 783.623 28.7767 789.395 9.73173C790.203 7.06573 789.889 6.98073 769.846 4.42973C746.428 1.44873 711.557 -0.466261 690.981 0.098739ZM758.793 11.3447C768.313 12.4327 776.525 13.5837 777.042 13.9037C778.542 14.8307 778.227 16.3177 773.636 29.9567C755.031 85.2267 723.128 132.126 681.255 165.756L669.028 175.576L659.255 170.581C632.091 156.697 605.021 147.331 579.242 142.897C565.046 140.456 543.616 138.392 531.981 138.346L521.481 138.305L530.543 134.53C553.333 125.039 579.472 107.042 592.334 91.9867C607.127 74.6707 616.7 50.9957 618.572 27.0997C619.184 19.2887 619.489 18.2807 621.37 17.8447C626.763 16.5937 655.618 12.3997 665.481 11.4327C671.531 10.8397 677.831 10.1997 679.481 10.0097C681.131 9.82073 695.757 9.59773 711.982 9.51573C735.626 9.39573 744.921 9.75874 758.793 11.3447ZM769.088 88.4707C765.946 99.1237 749.633 130.402 740.719 142.866C735.913 149.585 735.861 149.726 739.435 146.366C745.27 140.881 754.731 127.822 758.915 119.476C762.864 111.601 771.342 86.9477 770.731 85.1157C770.54 84.5437 769.801 86.0537 769.088 88.4707ZM507.981 163.07C496.002 165.137 483.516 168.015 473.243 171.076C460.546 174.861 457.17 176.817 468.187 174.006C473.31 172.699 506.753 164.782 514.481 163.047C517.068 162.466 511.363 162.486 507.981 163.07Z" fill="url(#paint0_linear_1292_588)"/>
<path d="M633.931 45.9154C635.353 44.6284 639.179 43.8114 648.181 42.8714C654.949 42.1644 669.255 41.6494 679.973 41.7264C697.978 41.8544 699.487 42.0044 699.811 43.6894C700.004 44.6934 699.442 46.3094 698.562 47.2814C697.163 48.8274 694.125 49.1374 674.225 49.7664C661.718 50.1614 647.705 50.8064 643.084 51.2014C636.611 51.7544 634.373 51.6094 633.334 50.5704C631.531 48.7674 631.63 47.9974 633.931 45.9154Z" fill="url(#paint1_linear_1292_588)"/>
<path d="M624.634 71.2374C625.542 70.4814 629.92 69.5704 634.384 69.2094C652.002 67.7824 692.411 69.5034 723.229 72.9934C730.673 73.8364 732.24 75.5654 728.737 79.0694C726.147 81.6584 726.147 81.6584 707.317 79.3844C692.565 77.6034 681.663 77.0264 656.986 76.7184C639.661 76.5034 624.924 76.3354 624.236 76.3464C622.426 76.3744 622.701 72.8474 624.634 71.2374Z" fill="url(#paint2_linear_1292_588)"/>
<path d="M611.001 92.9934C611.023 91.3824 612.183 89.8784 614.486 88.4774C620.466 84.8374 712.222 92.3474 716.866 96.8564C718.034 97.9914 717.832 98.6094 715.55 100.892C713.325 103.117 712.297 103.472 709.67 102.923C692.83 99.4014 657.445 95.8064 629.736 94.8014C616.868 94.3354 610.991 93.7684 611.001 92.9934Z" fill="url(#paint3_linear_1292_588)"/>
<path d="M595.288 110.045C594.946 109.491 595.953 107.93 597.526 106.577C600.356 104.143 600.532 104.124 613.936 104.788C637.745 105.969 668.071 110.307 698.736 116.918C700.327 117.261 700.986 118.122 700.986 119.861C700.986 121.312 700.064 122.915 698.736 123.774C696.768 125.048 695.798 125.048 690.986 123.777C668.707 117.893 633.575 112.559 611.198 111.664C602.71 111.324 595.634 110.604 595.288 110.045Z" fill="url(#paint4_linear_1292_588)"/>
<path d="M591.986 126.283C573.782 124.926 573.672 124.891 577.486 121.704C580.462 119.216 580.598 119.201 594.681 119.782C612.673 120.524 654.609 127.588 657.361 130.34C657.998 130.977 657.7 132.024 656.507 133.341C654.051 136.056 649.577 135.951 636.816 132.877C623.158 129.587 609.658 127.602 591.986 126.283Z" fill="url(#paint5_linear_1292_588)"/>
<path d="M739.487 32.4096C743.337 30.0086 747.388 27.4656 748.487 26.7596C752.66 24.0786 755.987 25.7586 755.987 30.5466C755.987 32.4956 755.167 33.8326 753.237 35.0306C743.107 41.3216 736.51 46.0316 729.773 51.7826C725.529 55.4056 721.395 58.3696 720.587 58.3696C718.805 58.3696 712.34 39.5006 713.281 37.0476C713.983 35.2196 718.215 33.8586 720.487 34.7305C721.314 35.0485 722.739 36.8766 723.653 38.7936L725.315 42.2786L728.901 39.5266C730.873 38.0136 735.637 34.8106 739.487 32.4096Z" fill="#00D482" style="fill:#00D482;fill:color(display-p3 0.0000 0.8314 0.5098);fill-opacity:1;"/>
<path d="M199.649 108.268C214.671 92.7075 245.638 76.3935 265.744 73.4485C274.224 72.2065 275.642 72.2345 285.486 73.8365C301.13 76.3825 316.967 82.8346 325.973 90.3306C328.455 92.3966 331.836 94.7695 333.486 95.6035C337.094 97.4275 345.814 99.3635 350.423 99.3635C353.403 99.3635 354.661 100.406 362.124 109.051C373.45 122.171 382.009 129.371 386.247 129.342C390.311 129.314 396.803 126.402 403.09 121.788C407.941 118.227 407.941 118.227 407.339 112.471C406.768 107.007 406.904 106.527 410.023 102.975C414.941 97.3735 424.032 90.7295 428.688 89.3345C432.382 88.2275 433.282 88.3285 437.367 90.3065C442.429 92.7565 448.615 100.26 449.589 105.13C452.049 117.431 421.953 147.583 396.486 158.33C388.768 161.587 377.685 161.846 370.954 158.926C363.124 155.531 353.689 149.686 346.768 143.945L340.049 138.372L344.004 131.118C348.334 123.174 349.52 119.139 345.412 126.326C340.489 134.937 333.012 143.965 321.775 154.864L310.433 165.864L300.46 163.645C291.367 161.623 266.798 159.346 267.986 160.636C268.261 160.935 272.986 161.693 278.486 162.322C298.287 164.585 323.762 172.035 339.207 180.081C352.145 186.82 362.508 199.865 384.209 236.73L386.932 241.356L393.209 237.908C410.609 228.348 427.53 225.687 429.243 232.24C430.527 237.15 423.927 252.768 418.33 258.065L414.947 261.266L418.217 261.818C420.015 262.122 430.486 263.744 441.486 265.423C452.486 267.102 461.936 268.633 462.486 268.826C463.036 269.019 450.836 268.923 435.375 268.613C407.264 268.05 407.264 268.05 403.875 270.63C399.329 274.091 386.088 280.364 383.329 280.364C379.393 280.364 375.985 278.476 370.423 273.216L364.973 268.061L341.229 268.738C301.915 269.857 255.038 272.904 222.986 276.421C173.708 281.83 153.361 285.13 114.986 293.939C112.536 294.501 112.526 294.479 114.486 292.869C118.587 289.498 132.895 283.425 144.993 279.919C166.712 273.626 203.038 267.783 238.793 264.831C253.701 263.601 246.693 263.275 228.371 264.347C148.801 269.003 74.9431 283.494 17.2521 305.769C9.68108 308.692 2.58609 311.438 1.48609 311.871C-2.33191 313.374 1.33809 310.633 10.9861 304.777C46.9081 282.972 103.157 266.209 168.426 257.856C209.768 252.565 263.126 250.486 311.986 252.262C330.411 252.932 347.49 253.752 349.939 254.086C354.391 254.691 354.391 254.691 352.439 252.118C328.591 220.69 322.627 213.32 320.693 212.894C319.479 212.626 310.386 211.461 300.486 210.303C257.112 205.233 239.21 199.705 232.286 189.24C229.928 185.678 229.488 183.973 229.497 178.437C229.517 167.137 234.877 157.453 249.466 142.365C260.674 130.773 266.395 123.102 271.428 112.916C275.768 104.133 275.52 103.405 268.183 103.379C257.788 103.342 235.973 111.701 236.825 115.394C237.011 116.203 237.195 118.79 237.234 121.143C237.32 126.43 234.55 129.631 225.055 135.213C217.415 139.706 213.602 140.649 208.634 139.277C200.875 137.135 192.986 127.2 192.986 119.571C192.986 115.5 193.486 114.651 199.649 108.268Z" fill="url(#paint6_linear_1292_588)"/>
<path d="M133.292 101.004C132.994 100.706 144.217 98.1475 186.986 88.7685C202.661 85.3305 216.139 82.4835 216.936 82.4405C218.999 82.3305 217.738 83.3255 207.547 89.8445L207.547 89.8446C198.607 95.5625 198.607 95.5626 184.047 96.9595C163.07 98.9725 133.609 101.32 133.292 101.004Z" fill="url(#paint7_linear_1292_588)"/>
<path d="M116.986 137.448C134.311 134.143 156.361 129.886 165.986 127.987C185.873 124.064 185.986 124.049 185.986 125.249C185.986 126.33 182.632 128.582 173.622 133.551C166.93 137.242 166.329 137.375 149.622 138.848C120.578 141.41 99.8841 143.36 90.5951 144.41C85.7051 144.963 81.4891 145.201 81.2271 144.938C80.6381 144.35 78.9781 144.698 116.986 137.448Z" fill="url(#paint8_linear_1292_588)"/>
<path d="M117.722 209.158C122.637 200.418 134.036 187.605 139.252 184.956C143.356 182.872 147.815 183.473 156.218 187.244C159.76 188.833 164.194 190.463 166.072 190.866C171.878 192.112 195.148 199.389 201.81 202.042L208.134 204.561L217.259 195.304C225.271 187.177 226.512 186.264 227.435 187.817C233.191 197.502 239.261 201.356 254.895 205.252C259.519 206.405 263.48 207.524 263.695 207.74C264.456 208.501 247.372 223.509 238.486 229.886C222.867 241.095 214.169 242.693 195.367 237.808C185.422 235.224 161.416 226.63 155.003 223.358C151.52 221.581 151.52 221.581 143.503 229.805C132.838 240.746 125.501 245.574 118.68 246.139C114.507 246.486 112.967 246.168 110.975 244.55C108.729 242.726 108.501 241.86 108.635 235.696C108.81 227.694 111.164 220.819 117.722 209.158Z" fill="url(#paint9_linear_1292_588)"/>
<path d="M98.8389 201.119C108.482 199.007 116.513 197.249 117.486 197.035C121.16 196.229 124.416 196.337 123.436 197.233C122.914 197.711 118.747 200.636 114.177 203.733C107.768 208.076 105.016 209.364 102.148 209.364C100.102 209.364 86.2911 210.483 71.4571 211.851C41.8351 214.583 42.4761 214.536 43.0691 213.958C43.5501 213.491 65.4231 208.437 94.9861 201.963L98.8389 201.119Z" fill="url(#paint10_linear_1292_588)"/>
<path fill-rule="evenodd" clip-rule="evenodd" d="M693.9 313.501C680.047 316.473 668.727 322.468 658.366 332.318C647.09 343.039 640.307 354.985 636.248 371.267C633.255 383.273 633.69 400.309 637.221 409.372C640.038 416.604 649.177 426.29 656.856 430.181C672.495 438.106 701.565 437.503 725.749 428.753C733.403 425.983 734.027 425.545 734.546 422.572C734.853 420.812 737.608 407.459 740.669 392.898C743.729 378.338 746.233 365.916 746.233 365.295C746.233 363.574 733.271 362.822 715.927 363.538L700.554 364.172L698.253 373.772C696.987 379.052 695.748 383.918 695.499 384.585C695.17 385.469 697.588 385.875 704.423 386.085L713.798 386.372L711.368 398.033C708.938 409.695 708.938 409.695 704.336 411.03C698.449 412.737 685.855 412.718 680.897 410.994C675.674 409.178 670.277 404.226 668.061 399.217C661.572 384.546 667.595 358.605 680.484 345.716C694.379 331.822 717.348 330.31 736.152 342.053C738.047 343.237 738.917 342.647 746.705 334.9C755.192 326.457 755.192 326.457 752.962 324.083C749.904 320.825 738.061 315.279 730.218 313.43C721.999 311.493 703.088 311.53 693.9 313.501ZM57.904 368.622C52.074 398.185 47.011 424.072 46.652 426.15L46 429.928L60.348 429.65L74.695 429.372L75.974 423.372C78.447 411.773 97.233 316.709 97.233 315.796C97.233 315.274 90.986 314.872 82.868 314.872H68.504L57.904 368.622ZM351.644 316.763C344.719 320.986 341.935 327.829 344.573 334.144C347.471 341.08 358.272 343.248 365.49 338.343C374.151 332.458 375.174 320.479 367.361 316.438C363.182 314.277 355.459 314.437 351.644 316.763ZM572.733 319.199C551.283 324.683 540.893 342.849 548.473 361.615L550.936 367.711L543.611 372.351C531.184 380.224 524.451 390.226 523.497 402.233C522.86 410.256 524.376 415.511 528.826 420.71C534.807 427.697 540.863 430.004 553.151 429.977C562.487 429.957 571.254 427.375 580.594 421.897C584.367 419.683 587.707 417.872 588.015 417.872C588.324 417.872 590.487 419.866 592.822 422.304C595.158 424.741 598.451 427.45 600.14 428.324C603.229 429.921 618.922 432.517 619.854 431.584C620.129 431.31 620.79 428.004 621.323 424.238C622.082 418.88 622.015 417.303 621.013 416.982C620.309 416.756 616.427 413.352 612.385 409.418L605.038 402.264L610.675 394.818C616.688 386.877 623.058 374.974 623.478 370.896C623.725 368.498 623.449 368.384 614.733 367.286C605.262 366.093 604.233 366.192 604.233 368.29C604.233 369.999 598.667 380.497 595.58 384.61L593.15 387.847L590.388 384.61C588.868 382.829 585.944 379.278 583.888 376.719L580.151 372.066L586.213 368.384C594.174 363.548 601.871 355.954 604.199 350.64C609.843 337.752 606.616 326.14 595.956 320.98C590.541 318.358 579.369 317.502 572.733 319.199ZM585.404 336.527C586.579 337.59 587.233 339.573 587.233 342.07C587.233 345.289 586.471 346.772 582.808 350.689C580.374 353.291 576.591 356.426 574.402 357.657L570.422 359.894L568.327 355.567C565.883 350.517 565.68 346.836 567.638 343.072C569.187 340.095 572.901 336.431 575.233 335.578C578.348 334.439 583.643 334.933 585.404 336.527ZM790.954 343.379C773.026 347.907 758.272 361.988 751.466 381.064C749.278 387.198 748.851 390.139 748.807 399.372C748.763 408.497 749.112 411.148 750.849 414.923C758.516 431.578 778.136 438.651 800.676 432.887C823.755 426.984 839.889 407.961 843.248 382.69C845.707 364.201 838.808 350.319 824.407 344.774C817.048 341.941 799.539 341.211 790.954 343.379ZM142.987 347.897C140.927 348.415 136.427 350.306 132.987 352.098C129.547 353.891 126.421 355.502 126.04 355.679C125.659 355.856 125.047 354.397 124.679 352.436C124.01 348.872 124.01 348.872 113.331 348.872H102.652L101.33 357.622C100.603 362.435 97.191 380.471 93.748 397.702C89.255 420.19 87.822 429.161 88.672 429.487C89.323 429.737 94.976 429.813 101.235 429.657L112.614 429.372L118.27 401.374L123.925 373.376L129.193 370.624C138.015 366.015 146.331 367.366 147.657 373.623C147.995 375.218 146.012 387.435 142.933 402.729C139.318 420.678 137.981 429.222 138.74 429.513C139.354 429.748 145.003 429.813 151.294 429.657L162.733 429.372L164.925 418.872C166.13 413.097 168.751 399.718 170.75 389.14C174.011 371.876 174.267 369.351 173.25 364.452C171.73 357.131 168.689 352.848 163.01 350.03C157.703 347.396 148.766 346.444 142.987 347.897ZM283.233 347.897C280.758 348.413 275.441 350.458 271.418 352.441C254.724 360.667 244.255 377.904 243.955 397.655C243.791 408.495 246.142 414.921 252.636 421.374C259.701 428.396 266.482 430.872 278.64 430.872C294.073 430.872 304.82 426.416 314.398 416.047C323.956 405.701 328.202 394.434 328.22 379.372C328.23 371.533 327.863 369.592 325.373 364.329C320.235 353.469 310.933 347.999 296.504 347.352C291.68 347.135 285.708 347.381 283.233 347.897ZM400.338 348.39C388.732 351.65 376.781 360.879 370.736 371.249C364.912 381.243 362.453 398.919 365.31 410.264C366.858 416.409 372.778 423.638 379.233 427.264C384.238 430.075 385.679 430.383 395.233 430.69C406.821 431.061 414.271 429.384 422.53 424.544L426.898 421.984L424.84 413.678C423.708 409.11 422.69 405.216 422.577 405.025C422.465 404.834 419.43 406.127 415.833 407.897C410.075 410.732 408.556 411.063 403.118 410.67C397.545 410.267 396.616 409.867 393.588 406.562C390.084 402.738 389.659 400.844 390.18 391.372C391.215 372.569 406.904 361.728 421.119 369.996C424.505 371.965 424.505 371.965 426.916 369.7C428.242 368.455 431.194 365.015 433.476 362.056C437.626 356.677 437.626 356.677 435.18 354.773C433.834 353.725 430.378 351.694 427.499 350.26C420.849 346.947 408.501 346.097 400.338 348.39ZM467.439 348.364C458.24 350.952 450.991 355.128 444.537 361.556C433.854 372.196 428.698 385.632 429.449 400.872C430.119 414.466 434.638 421.946 445.605 427.611C449.899 429.829 452.369 430.327 460.793 430.672C475.102 431.259 486.719 428.035 495.529 421.034L498.954 418.312L495.974 410.68L492.994 403.048L486.363 406.483C477.434 411.11 469.788 412.654 464.16 410.968C459.254 409.499 454.233 404.959 454.233 401.994C454.233 399.751 454.135 399.776 470.291 397.985C495.082 395.237 506.681 386.584 506.619 370.885C506.562 356.508 497.264 348.147 480.355 347.27C475.487 347.017 470.82 347.413 467.439 348.364ZM176.705 351.122C176.985 352.359 177.629 356.072 178.136 359.372C178.897 364.329 189.227 419.957 190.816 427.654C191.278 429.891 191.512 429.93 202.871 429.654L214.455 429.372L220.708 417.872C224.148 411.547 232.048 396.697 238.266 384.872C244.483 373.047 251.329 360.095 253.478 356.091L257.386 348.809L245.21 349.091C233.034 349.372 233.034 349.372 230.848 353.372C227.404 359.675 215.244 385.581 211.7 394.164C209.93 398.449 208.267 402.171 208.003 402.435C207.74 402.699 207.22 399.192 206.849 394.643C206.194 386.615 202.808 358.689 201.694 352.122C201.142 348.872 201.142 348.872 188.669 348.872C176.248 348.872 176.197 348.882 176.705 351.122ZM340.284 355.622C339.274 360.798 330.096 405.358 325.557 427.122C324.983 429.872 324.983 429.872 337.541 429.872C348.637 429.872 350.158 429.668 350.614 428.122C350.898 427.16 353.169 416.022 355.661 403.372C358.153 390.722 361.551 373.868 363.212 365.918C364.874 357.968 366.233 350.881 366.233 350.168C366.233 349.177 363.336 348.872 353.916 348.872H341.6L340.284 355.622ZM810.334 365.433C817.05 371.419 816.67 386.95 809.484 400.153C803.061 411.952 790.513 416.185 782.34 409.309C772.273 400.837 779.894 370.687 793.733 364.238C797.986 362.256 807.541 362.944 810.334 365.433ZM479.765 366.321C482.671 367.535 483.233 368.275 483.233 370.887C483.233 375.468 481.796 377.427 477.012 379.367C472.437 381.222 456.233 382.971 456.233 381.609C456.233 379.732 460.263 373.169 463.029 370.543C465.78 367.93 471.979 365.02 475.015 364.916C475.72 364.892 477.858 365.524 479.765 366.321ZM298.146 369.645C301.938 372.459 303.203 375.64 303.207 382.372C303.218 398.932 294.48 410.906 282.418 410.857C274.019 410.824 269.957 405.617 270.056 395.012C270.171 382.859 276.68 370.688 284.464 368.075C288.862 366.598 294.988 367.301 298.146 369.645ZM568.629 393.12C572.811 398.482 576.233 403.3 576.233 403.828C576.233 405.37 568.136 409.669 563.128 410.787C551.984 413.276 543.882 405.525 547.181 395.53C548.464 391.642 557.544 382.563 559.658 383.054C560.41 383.229 564.447 387.759 568.629 393.12ZM454.733 445.926C408.964 446.85 369.209 449.387 321.233 454.445C253.939 461.541 193.905 473.854 150.746 489.412C140.951 492.943 137.281 494.733 142.233 493.563C145.38 492.82 197.898 484.686 217.233 481.948C348.953 463.292 490.523 462.395 625.823 479.361L652.913 482.758L662.823 478.727C676.061 473.342 689.013 469.282 703.596 465.948C717.665 462.73 719.603 463.414 683.733 458.939C623.323 451.401 577.752 447.613 532.733 446.386C521.733 446.086 507.783 445.697 501.733 445.52C495.683 445.344 474.533 445.527 454.733 445.926Z" fill="url(#paint11_linear_1292_588)"/>
<ellipse cx="355.5" cy="57.5" rx="40.5" ry="38.5" fill="url(#paint12_linear_1292_588)"/>
<defs>
<linearGradient id="paint0_linear_1292_588" x1="565.5" y1="161.5" x2="698.5" y2="102" gradientUnits="userSpaceOnUse">
<stop stop-color="#286056" style="stop-color:#286056;stop-color:color(display-p3 0.1569 0.3765 0.3373);stop-opacity:1;"/>
<stop offset="0.5" stop-color="#0F796B" style="stop-color:#0F796B;stop-color:color(display-p3 0.0588 0.4745 0.4196);stop-opacity:1;"/>
<stop offset="1" stop-color="#00D482" style="stop-color:#00D482;stop-color:color(display-p3 0.0000 0.8314 0.5098);stop-opacity:1;"/>
</linearGradient>
<linearGradient id="paint1_linear_1292_588" x1="528" y1="149" x2="675" y2="53.5" gradientUnits="userSpaceOnUse">
<stop stop-color="#286056" style="stop-color:#286056;stop-color:color(display-p3 0.1569 0.3765 0.3373);stop-opacity:1;"/>
<stop offset="0.5" stop-color="#0F796B" style="stop-color:#0F796B;stop-color:color(display-p3 0.0588 0.4745 0.4196);stop-opacity:1;"/>
<stop offset="1" stop-color="#00D482" style="stop-color:#00D482;stop-color:color(display-p3 0.0000 0.8314 0.5098);stop-opacity:1;"/>
</linearGradient>
<linearGradient id="paint2_linear_1292_588" x1="528" y1="149" x2="675" y2="53.5" gradientUnits="userSpaceOnUse">
<stop stop-color="#286056" style="stop-color:#286056;stop-color:color(display-p3 0.1569 0.3765 0.3373);stop-opacity:1;"/>
<stop offset="0.5" stop-color="#0F796B" style="stop-color:#0F796B;stop-color:color(display-p3 0.0588 0.4745 0.4196);stop-opacity:1;"/>
<stop offset="1" stop-color="#00D482" style="stop-color:#00D482;stop-color:color(display-p3 0.0000 0.8314 0.5098);stop-opacity:1;"/>
</linearGradient>
<linearGradient id="paint3_linear_1292_588" x1="528" y1="149" x2="675" y2="53.5" gradientUnits="userSpaceOnUse">
<stop stop-color="#286056" style="stop-color:#286056;stop-color:color(display-p3 0.1569 0.3765 0.3373);stop-opacity:1;"/>
<stop offset="0.5" stop-color="#0F796B" style="stop-color:#0F796B;stop-color:color(display-p3 0.0588 0.4745 0.4196);stop-opacity:1;"/>
<stop offset="1" stop-color="#00D482" style="stop-color:#00D482;stop-color:color(display-p3 0.0000 0.8314 0.5098);stop-opacity:1;"/>
</linearGradient>
<linearGradient id="paint4_linear_1292_588" x1="528" y1="149" x2="675" y2="53.5" gradientUnits="userSpaceOnUse">
<stop stop-color="#286056" style="stop-color:#286056;stop-color:color(display-p3 0.1569 0.3765 0.3373);stop-opacity:1;"/>
<stop offset="0.5" stop-color="#0F796B" style="stop-color:#0F796B;stop-color:color(display-p3 0.0588 0.4745 0.4196);stop-opacity:1;"/>
<stop offset="1" stop-color="#00D482" style="stop-color:#00D482;stop-color:color(display-p3 0.0000 0.8314 0.5098);stop-opacity:1;"/>
</linearGradient>
<linearGradient id="paint5_linear_1292_588" x1="528" y1="149" x2="675" y2="53.5" gradientUnits="userSpaceOnUse">
<stop stop-color="#286056" style="stop-color:#286056;stop-color:color(display-p3 0.1569 0.3765 0.3373);stop-opacity:1;"/>
<stop offset="0.5" stop-color="#0F796B" style="stop-color:#0F796B;stop-color:color(display-p3 0.0588 0.4745 0.4196);stop-opacity:1;"/>
<stop offset="1" stop-color="#00D482" style="stop-color:#00D482;stop-color:color(display-p3 0.0000 0.8314 0.5098);stop-opacity:1;"/>
</linearGradient>
<linearGradient id="paint6_linear_1292_588" x1="379" y1="164" x2="93.5" y2="293" gradientUnits="userSpaceOnUse">
<stop stop-color="#00D482" style="stop-color:#00D482;stop-color:color(display-p3 0.0000 0.8314 0.5098);stop-opacity:1;"/>
<stop offset="0.5" stop-color="#0F796B" style="stop-color:#0F796B;stop-color:color(display-p3 0.0588 0.4745 0.4196);stop-opacity:1;"/>
<stop offset="1" stop-color="#286056" style="stop-color:#286056;stop-color:color(display-p3 0.1569 0.3765 0.3373);stop-opacity:1;"/>
</linearGradient>
<linearGradient id="paint7_linear_1292_588" x1="379" y1="164" x2="93.5" y2="293" gradientUnits="userSpaceOnUse">
<stop stop-color="#00D482" style="stop-color:#00D482;stop-color:color(display-p3 0.0000 0.8314 0.5098);stop-opacity:1;"/>
<stop offset="0.5" stop-color="#0F796B" style="stop-color:#0F796B;stop-color:color(display-p3 0.0588 0.4745 0.4196);stop-opacity:1;"/>
<stop offset="1" stop-color="#286056" style="stop-color:#286056;stop-color:color(display-p3 0.1569 0.3765 0.3373);stop-opacity:1;"/>
</linearGradient>
<linearGradient id="paint8_linear_1292_588" x1="379" y1="164" x2="93.5" y2="293" gradientUnits="userSpaceOnUse">
<stop stop-color="#00D482" style="stop-color:#00D482;stop-color:color(display-p3 0.0000 0.8314 0.5098);stop-opacity:1;"/>
<stop offset="0.5" stop-color="#0F796B" style="stop-color:#0F796B;stop-color:color(display-p3 0.0588 0.4745 0.4196);stop-opacity:1;"/>
<stop offset="1" stop-color="#286056" style="stop-color:#286056;stop-color:color(display-p3 0.1569 0.3765 0.3373);stop-opacity:1;"/>
</linearGradient>
<linearGradient id="paint9_linear_1292_588" x1="379" y1="164" x2="93.5" y2="293" gradientUnits="userSpaceOnUse">
<stop stop-color="#00D482" style="stop-color:#00D482;stop-color:color(display-p3 0.0000 0.8314 0.5098);stop-opacity:1;"/>
<stop offset="0.5" stop-color="#0F796B" style="stop-color:#0F796B;stop-color:color(display-p3 0.0588 0.4745 0.4196);stop-opacity:1;"/>
<stop offset="1" stop-color="#286056" style="stop-color:#286056;stop-color:color(display-p3 0.1569 0.3765 0.3373);stop-opacity:1;"/>
</linearGradient>
<linearGradient id="paint10_linear_1292_588" x1="379" y1="164" x2="93.5" y2="293" gradientUnits="userSpaceOnUse">
<stop stop-color="#00D482" style="stop-color:#00D482;stop-color:color(display-p3 0.0000 0.8314 0.5098);stop-opacity:1;"/>
<stop offset="0.5" stop-color="#0F796B" style="stop-color:#0F796B;stop-color:color(display-p3 0.0588 0.4745 0.4196);stop-opacity:1;"/>
<stop offset="1" stop-color="#286056" style="stop-color:#286056;stop-color:color(display-p3 0.1569 0.3765 0.3373);stop-opacity:1;"/>
</linearGradient>
<linearGradient id="paint11_linear_1292_588" x1="644.5" y1="392" x2="527.065" y2="706.7" gradientUnits="userSpaceOnUse">
<stop stop-color="#00D482" style="stop-color:#00D482;stop-color:color(display-p3 0.0000 0.8314 0.5098);stop-opacity:1;"/>
<stop offset="0.5" stop-color="#0F796B" style="stop-color:#0F796B;stop-color:color(display-p3 0.0574 0.4749 0.4192);stop-opacity:1;"/>
<stop offset="1" stop-color="#286056" style="stop-color:#286056;stop-color:color(display-p3 0.1581 0.3747 0.3390);stop-opacity:1;"/>
</linearGradient>
<linearGradient id="paint12_linear_1292_588" x1="315" y1="99" x2="356" y2="59.5" gradientUnits="userSpaceOnUse">
<stop stop-color="#286056" style="stop-color:#286056;stop-color:color(display-p3 0.1569 0.3765 0.3373);stop-opacity:1;"/>
<stop offset="0.5" stop-color="#0F796B" style="stop-color:#0F796B;stop-color:color(display-p3 0.0588 0.4745 0.4196);stop-opacity:1;"/>
<stop offset="1" stop-color="#00D482" style="stop-color:#00D482;stop-color:color(display-p3 0.0000 0.8314 0.5098);stop-opacity:1;"/>
</linearGradient>
</defs>
</svg>
