<svg width="1260" height="1260" viewBox="0 0 1260 1260" fill="none" xmlns="http://www.w3.org/2000/svg">
<rect width="1260" height="1260" rx="128" fill="url(#paint0_linear_1289_579)"/>
<path d="M630 275C686.362 275 741.166 293.495 785.995 327.646C830.825 361.798 863.202 409.717 878.153 464.045C893.105 518.372 889.803 576.105 868.757 628.375C849.545 676.088 816.516 716.839 774.068 745.504C865.032 778.826 942.71 843.589 993.943 932.125C996.328 936.053 997.914 940.414 998.604 944.958C999.303 949.554 999.074 954.243 997.931 958.749C996.787 963.255 994.753 967.486 991.947 971.193C989.142 974.9 985.622 978.008 981.596 980.333C977.569 982.658 973.118 984.153 968.505 984.73C963.892 985.308 959.209 984.955 954.734 983.694C950.259 982.433 946.082 980.289 942.449 977.388C938.866 974.526 935.885 970.983 933.675 966.967C869.383 855.89 755.866 789.69 630 789.69C504.134 789.69 390.617 855.89 326.325 966.967C324.115 970.983 321.134 974.526 317.551 977.388C313.918 980.289 309.741 982.433 305.266 983.694C300.791 984.955 296.108 985.308 291.495 984.73C286.882 984.153 282.431 982.658 278.404 980.333C274.378 978.008 270.858 974.9 268.053 971.193C265.247 967.486 263.213 963.255 262.069 958.749C260.926 954.243 260.697 949.554 261.396 944.958C262.085 940.421 263.667 936.067 266.046 932.144C317.278 843.567 394.958 778.796 485.927 745.501C443.481 716.836 410.454 676.086 391.243 628.375C370.197 576.105 366.895 518.372 381.847 464.045C396.798 409.717 429.175 361.798 474.005 327.646C518.834 293.495 573.638 275 630 275ZM666.626 348.322C630.209 341.081 592.461 344.798 558.156 359.003C523.852 373.208 494.532 397.263 473.903 428.126C453.275 458.989 442.265 495.274 442.265 532.393C442.32 582.149 462.117 629.853 497.312 665.037C532.508 700.222 580.228 720.013 630.004 720.067C667.134 720.067 703.429 709.06 734.301 688.438C765.174 667.816 789.236 638.505 803.445 604.212C817.654 569.919 821.371 532.184 814.128 495.779C806.884 459.374 789.005 425.934 762.75 399.687C736.495 373.439 703.043 355.564 666.626 348.322Z" fill="white" stroke="white" style="fill:white;fill-opacity:1;stroke:white;stroke-opacity:1;" stroke-width="14"/>
<defs>
<linearGradient id="paint0_linear_1289_579" x1="0" y1="0" x2="1260" y2="1247" gradientUnits="userSpaceOnUse">
<stop stop-color="#00D492" style="stop-color:#00D492;stop-color:color(display-p3 0.0000 0.8314 0.5725);stop-opacity:1;"/>
<stop offset="1" stop-color="#001724" style="stop-color:#001724;stop-color:color(display-p3 0.0013 0.0902 0.1421);stop-opacity:1;"/>
</linearGradient>
</defs>
</svg>
