<svg width="1260" height="1260" viewBox="0 0 1260 1260" fill="none" xmlns="http://www.w3.org/2000/svg">
<rect width="1260" height="1260" rx="128" fill="url(#paint0_linear_1289_580)"/>
<path d="M1121.43 689.979C1117.9 692.632 1113.87 694.563 1109.59 695.66C1105.31 696.758 1100.85 697.001 1096.48 696.376C1092.1 695.75 1087.89 694.269 1084.08 692.016C1080.28 689.763 1076.96 686.782 1074.31 683.245C1054.02 655.964 1027.61 633.829 997.203 618.623C966.799 603.416 933.251 595.563 899.259 595.695C892.639 595.694 886.167 593.741 880.651 590.08C875.135 586.419 870.82 581.213 868.247 575.112C866.499 570.969 865.599 566.518 865.599 562.022C865.599 557.525 866.499 553.074 868.247 548.931C870.82 542.83 875.135 537.624 880.651 533.963C886.167 530.302 892.639 528.349 899.259 528.348C918.147 528.347 936.656 523.047 952.683 513.05C968.711 503.053 981.614 488.761 989.928 471.796C998.243 454.831 1001.63 435.874 999.717 417.078C997.801 398.282 990.653 380.4 979.086 365.464C967.519 350.528 951.996 339.136 934.281 332.582C916.566 326.028 897.368 324.575 878.869 328.388C860.37 332.201 843.31 341.128 829.628 354.153C815.946 367.178 806.19 383.781 801.468 402.074C800.363 406.358 798.425 410.382 795.765 413.917C793.105 417.452 789.775 420.428 785.966 422.675C782.156 424.922 777.941 426.397 773.562 427.015C769.182 427.633 764.724 427.382 760.442 426.277C756.159 425.171 752.136 423.233 748.602 420.572C745.069 417.912 742.094 414.581 739.847 410.77C737.6 406.959 736.126 402.743 735.508 398.362C734.89 393.981 735.141 389.522 736.246 385.238C742.8 359.87 755.183 336.382 772.408 316.644C789.634 296.905 811.227 281.46 835.47 271.538C859.712 261.617 885.935 257.491 912.052 259.491C938.169 261.491 963.459 269.56 985.91 283.057C1008.36 296.554 1027.35 315.106 1041.37 337.238C1055.4 359.369 1064.06 384.468 1066.68 410.538C1069.3 436.608 1065.8 462.93 1056.45 487.408C1047.11 511.887 1032.19 533.847 1012.87 551.541C1058.64 571.366 1098.44 602.825 1128.29 642.795C1130.94 646.341 1132.87 650.377 1133.96 654.669C1135.05 658.962 1135.29 663.428 1134.65 667.811C1134.01 672.194 1132.52 676.408 1130.25 680.212C1127.98 684.016 1124.99 687.335 1121.43 689.979ZM894.714 949.262C897.15 953.095 898.785 957.381 899.522 961.862C900.259 966.343 900.082 970.927 899.002 975.338C897.922 979.749 895.961 983.896 893.237 987.529C890.513 991.163 887.083 994.207 883.152 996.48C879.221 998.753 874.872 1000.21 870.365 1000.75C865.858 1001.3 861.287 1000.93 856.927 999.667C852.566 998.401 848.507 996.267 844.993 993.391C841.478 990.516 838.582 986.959 836.478 982.935C815.272 947.017 785.071 917.251 748.854 896.572C712.638 875.894 671.657 865.018 629.956 865.018C588.255 865.018 547.274 875.894 511.057 896.572C474.841 917.251 444.64 947.017 423.434 982.935C421.33 986.959 418.433 990.516 414.919 993.391C411.405 996.267 407.345 998.401 402.985 999.667C398.625 1000.93 394.054 1001.3 389.547 1000.75C385.04 1000.21 380.69 998.753 376.76 996.48C372.829 994.207 369.398 991.163 366.675 987.529C363.951 983.896 361.99 979.749 360.91 975.338C359.83 970.927 359.653 966.343 360.389 961.862C361.126 957.381 362.762 953.095 365.197 949.262C397.833 893.17 447.595 849.029 507.17 823.325C473.648 797.651 449.011 762.114 436.723 721.709C424.434 681.304 425.113 638.063 438.663 598.065C452.213 558.066 477.953 523.32 512.265 498.711C546.577 474.102 587.736 460.867 629.956 460.867C672.176 460.867 713.335 474.102 747.647 498.711C781.959 523.32 807.699 558.066 821.249 598.065C834.799 638.063 835.477 681.304 823.189 721.709C810.901 762.114 786.264 797.651 752.741 823.325C812.316 849.029 862.078 893.17 894.714 949.262ZM629.956 797.733C656.587 797.733 682.621 789.834 704.764 775.033C726.907 760.233 744.166 739.197 754.358 714.585C764.549 689.974 767.216 662.891 762.02 636.764C756.824 610.636 744 586.636 725.169 567.799C706.337 548.962 682.345 536.134 656.225 530.936C630.105 525.739 603.031 528.407 578.427 538.601C553.823 548.796 532.793 566.06 517.997 588.21C503.202 610.36 495.304 636.401 495.304 663.041C495.304 698.763 509.491 733.023 534.743 758.283C559.995 783.542 594.244 797.733 629.956 797.733ZM394.316 562.022C394.316 553.091 390.769 544.526 384.456 538.211C378.143 531.896 369.581 528.348 360.653 528.348C341.765 528.347 323.256 523.047 307.229 513.05C291.201 503.053 278.297 488.761 269.983 471.796C261.669 454.831 258.278 435.874 260.194 417.078C262.111 398.282 269.259 380.4 280.826 365.464C292.393 350.528 307.916 339.136 325.631 332.582C343.346 326.028 362.543 324.575 381.043 328.388C399.542 332.201 416.601 341.128 430.283 354.153C443.965 367.178 453.721 383.781 458.443 402.074C460.675 410.726 466.252 418.136 473.946 422.675C481.64 427.214 490.821 428.51 499.47 426.277C508.119 424.044 515.527 418.466 520.065 410.77C524.602 403.073 525.897 393.889 523.665 385.238C517.111 359.87 504.729 336.382 487.503 316.644C470.278 296.905 448.685 281.46 424.442 271.538C400.199 261.617 373.976 257.491 347.859 259.491C321.742 261.491 296.452 269.56 274.002 283.057C251.551 296.554 232.559 315.106 218.537 337.238C204.516 359.369 195.851 384.468 193.233 410.538C190.616 436.608 194.116 462.93 203.458 487.408C212.799 511.887 227.722 533.847 247.041 551.541C201.313 571.384 161.567 602.843 131.745 642.795C126.383 649.939 124.078 658.922 125.336 667.767C126.595 676.612 131.315 684.594 138.457 689.958C145.599 695.322 154.579 697.628 163.421 696.369C172.264 695.11 180.244 690.389 185.606 683.245C205.896 655.964 232.305 633.829 262.709 618.623C293.113 603.416 326.661 595.563 360.653 595.695C369.581 595.695 378.143 592.147 384.456 585.832C390.769 579.517 394.316 570.952 394.316 562.022Z" fill="white" style="fill:white;fill-opacity:1;"/>
<defs>
<linearGradient id="paint0_linear_1289_580" x1="0" y1="0" x2="1260" y2="1247" gradientUnits="userSpaceOnUse">
<stop stop-color="#0198F0" style="stop-color:#0198F0;stop-color:color(display-p3 0.0045 0.5957 0.9406);stop-opacity:1;"/>
<stop offset="1" stop-color="#001724" style="stop-color:#001724;stop-color:color(display-p3 0.0013 0.0902 0.1421);stop-opacity:1;"/>
</linearGradient>
</defs>
</svg>
