<svg width="1074" height="1284" viewBox="0 0 1074 1284" fill="none" xmlns="http://www.w3.org/2000/svg">
<path d="M2.25647 408.715C0.752155 398.935 0 388.968 0 378.812C0.376078 368.657 2.25647 358.689 5.64116 348.91C9.77801 336.121 16.5474 324.837 25.9493 315.058C35.3513 305.278 46.0695 297.568 58.104 291.926C70.8906 285.907 83.8653 281.77 97.028 279.513C110.567 276.88 123.729 276.316 136.516 277.821C149.679 279.325 162.277 282.71 174.312 287.976C186.722 292.866 198.381 300.012 209.287 309.416C220.946 319.571 229.595 331.419 235.236 344.96C241.254 358.125 244.45 371.854 244.826 386.147C245.579 400.44 243.886 414.733 239.749 429.026C235.989 442.943 230.159 455.919 222.262 467.955C222.262 467.955 222.074 468.331 221.698 469.084C215.304 477.735 207.971 485.634 199.697 492.78C191.423 499.55 183.714 506.885 176.568 514.784C168.295 523.435 163.406 532.274 161.901 541.301C160.397 549.952 158.893 559.732 157.388 570.639C156.26 581.171 153.44 590.386 148.927 598.285C144.79 605.808 136.892 609.381 125.234 609.005C117.336 608.629 111.319 606.184 107.182 601.67C103.421 596.781 100.601 591.139 98.7203 584.744C97.216 577.974 96.6519 571.016 97.028 563.869C97.4041 556.346 97.9682 549.764 98.7203 544.122C100.977 530.957 105.114 518.545 111.131 506.885C117.148 494.849 124.482 483.565 133.131 473.033C138.02 467.391 142.909 462.313 147.798 457.8C152.687 452.91 157.2 447.832 161.337 442.566C165.474 437.301 169.047 431.659 172.055 425.641C175.064 419.622 177.133 412.664 178.261 404.765C179.389 397.619 178.825 390.472 176.568 383.326C174.312 375.803 170.927 369.221 166.414 363.579C161.901 357.561 156.448 352.671 150.055 348.91C143.662 344.772 136.704 342.515 129.183 342.139C122.413 341.763 115.268 342.703 107.746 344.96C100.225 346.841 93.2672 350.038 86.8739 354.552C80.4806 358.689 75.2155 363.767 71.0786 369.785C67.3179 375.803 65.6255 382.573 66.0016 390.096C66.3777 394.61 67.1298 399.311 68.2581 404.201C69.7624 408.715 70.7026 413.228 71.0786 417.742C71.8308 421.879 71.6428 426.017 70.5145 430.154C69.7624 434.292 67.3179 438.241 63.181 442.002C56.4116 448.396 49.6422 451.594 42.8728 451.594C36.1034 451.217 29.8982 448.961 24.257 444.823C18.6158 440.686 13.7268 435.42 9.58998 429.026C5.8292 422.255 3.3847 415.485 2.25647 408.715ZM164.722 690.249C164.722 701.157 160.585 710.937 152.311 719.588C144.414 727.863 135.2 732 124.67 732C114.516 732 105.49 727.863 97.5921 719.588C89.6945 710.56 85.7457 700.781 85.7457 690.249C85.7457 678.589 89.6945 668.81 97.5921 660.911C105.49 652.26 114.516 647.935 124.67 647.935C135.2 647.935 144.414 652.26 152.311 660.911C160.585 669.186 164.722 678.965 164.722 690.249Z" fill="#FCC100" style="fill:#FCC100;fill:color(display-p3 0.9888 0.7581 0.0000);fill-opacity:1;"/>
<path d="M441.256 131.715C439.752 121.935 439 111.968 439 101.812C439.376 91.6565 441.256 81.689 444.641 71.9096C448.778 59.1211 455.547 47.8371 464.949 38.0577C474.351 28.2783 485.069 20.5676 497.104 14.9256C509.891 8.90749 522.865 4.77004 536.028 2.51326C549.567 -0.119677 562.729 -0.683879 575.516 0.820652C588.679 2.32518 601.277 5.71037 613.312 10.9762C625.722 15.8659 637.381 23.0124 648.287 32.4157C659.946 42.5713 668.595 54.4195 674.236 67.9602C680.254 81.1248 683.45 94.8536 683.826 109.147C684.579 123.44 682.886 137.733 678.749 152.026C674.989 165.943 669.159 178.919 661.262 190.955C661.262 190.955 661.074 191.331 660.698 192.084C654.304 200.735 646.971 208.634 638.697 215.78C630.423 222.55 622.714 229.885 615.568 237.784C607.295 246.435 602.406 255.274 600.901 264.301C599.397 272.952 597.893 282.732 596.388 293.639C595.26 304.171 592.44 313.386 587.927 321.285C583.79 328.808 575.892 332.381 564.234 332.005C556.336 331.629 550.319 329.184 546.182 324.67C542.421 319.781 539.601 314.139 537.72 307.744C536.216 300.974 535.652 294.016 536.028 286.869C536.404 279.346 536.968 272.764 537.72 267.122C539.977 253.957 544.114 241.545 550.131 229.885C556.148 217.849 563.482 206.565 572.131 196.033C577.02 190.391 581.909 185.313 586.798 180.8C591.687 175.91 596.2 170.832 600.337 165.566C604.474 160.301 608.047 154.659 611.055 148.641C614.064 142.622 616.133 135.664 617.261 127.765C618.389 120.619 617.825 113.472 615.568 106.326C613.312 98.803 609.927 92.2207 605.414 86.5787C600.901 80.5606 595.448 75.6709 589.055 71.9096C582.662 67.7721 575.704 65.5154 568.183 65.1392C561.413 64.7631 554.268 65.7034 546.746 67.9602C539.225 69.8409 532.267 73.038 525.874 77.5516C519.481 81.689 514.215 86.7668 510.079 92.7849C506.318 98.803 504.626 105.573 505.002 113.096C505.378 117.61 506.13 122.311 507.258 127.201C508.762 131.715 509.703 136.228 510.079 140.742C510.831 144.879 510.643 149.017 509.515 153.154C508.762 157.292 506.318 161.241 502.181 165.002C495.412 171.396 488.642 174.594 481.873 174.594C475.103 174.217 468.898 171.961 463.257 167.823C457.616 163.686 452.727 158.42 448.59 152.026C444.829 145.255 442.385 138.485 441.256 131.715ZM603.722 413.249C603.722 424.157 599.585 433.937 591.311 442.588C583.414 450.863 574.2 455 563.67 455C553.516 455 544.49 450.863 536.592 442.588C528.694 433.56 524.746 423.781 524.746 413.249C524.746 401.589 528.694 391.81 536.592 383.911C544.49 375.26 553.516 370.935 563.67 370.935C574.2 370.935 583.414 375.26 591.311 383.911C599.585 392.186 603.722 401.965 603.722 413.249Z" fill="#FCC100" style="fill:#FCC100;fill:color(display-p3 0.9888 0.7581 0.0000);fill-opacity:1;"/>
<path d="M384.42 519.141C493.893 489.076 559.329 493.034 681.139 526.22C709.518 574.41 720.384 608.246 703.951 673.095C771.711 664.574 708.414 815.107 658.507 780.212C647.874 803.455 643.661 828.001 638.309 842.427C649.348 901.603 776.045 930.233 809.04 1006.62C818.818 1001.38 833.79 908.021 843.007 887.13C912.773 835.144 932.366 830.106 950 842.427L946.588 867.04L906.825 898.688L936.497 901.829L1037.7 863.877C1042.06 863.233 1068.14 882.173 1071.44 880.744C1062.15 904.682 1062.91 901.829 1071.44 915.821C1055.18 934.366 1051.28 949.548 1047.45 953.426C1014.91 968.131 991.361 976.859 887.758 988.971C872.349 1066.36 861.595 1108.18 830.896 1173.79L801.807 1192L759.028 1187.37L713.114 1131.42V1149.14L359.767 1173.79L349.553 1153.82C318.692 1192.33 299.988 1200.07 263.524 1183.18C239.27 1161.28 222.417 1114.76 186.768 983.305C110.091 981.388 65.0769 982.621 20.893 943.639C6.41496 919.078 1.19466 906.549 7.89762 892.945C-7.68913 883.633 24.8974 868.428 31.0733 863.877L153.811 898.688L165.436 892.945L125.579 853.918V842.427L137.204 832.329L210.276 863.877L239.338 892.945L250.963 961.034L275.874 1013.35L363.891 848.936C372.785 838.826 366.462 826.293 361.203 814.395C350.368 664.66 357.426 599.198 384.42 519.141Z" fill="#EFBDA2" />
<ellipse cx="413.609" cy="667.495" rx="36.2264" ry="38.425" fill="white" style="fill:white;fill-opacity:1;"/>
<ellipse cx="556.43" cy="672.769" rx="36.2264" ry="38.425" fill="white" style="fill:white;fill-opacity:1;"/>
<path fill-rule="evenodd" clip-rule="evenodd" d="M438.506 407.399C436.775 409.483 435.275 419.678 435.953 424.736C436.522 428.977 436.522 428.977 426.893 429.6C407.416 430.862 393.065 437.822 375.73 454.413C360.276 469.202 355.336 471.139 343.624 467.002C333.778 463.525 332.006 478.962 339.985 498.708C341.437 502.302 342.234 505.5 341.754 505.816C329.251 514.053 345.337 549.992 364.018 555.554C370.366 557.444 369.843 563.498 361.145 588.789C359.036 594.92 358.534 598.037 358.972 602.282C359.946 611.714 360.1 611.572 344.688 615.403C335.164 617.77 330.621 619.395 329.932 620.68C328.334 623.667 330.719 635.526 333.888 640.344C336.554 644.397 336.687 645.292 336.898 660.546C337.23 684.639 341.616 703.628 349.006 712.975C353.15 718.216 353.15 718.216 353.259 737.763C353.449 772.063 356.145 797.39 362.013 819.993C364.164 828.283 364.913 832.837 364.163 833.087C355.93 835.83 337.301 852.776 329.294 864.805C316.172 884.521 270.369 985.575 270.369 994.811C270.369 1002.1 257.157 971.536 250.234 948.234C247.671 939.607 246.689 933.589 245.811 921.122C243.961 894.87 241.767 888.141 231.416 876.963C215.209 859.463 157.27 830.205 138.719 830.154C110.255 830.075 119.018 864.312 153.377 887.42C168.606 897.662 134.622 890.41 78.3955 871.418C31.5146 855.582 19.3676 855.052 19.3676 868.842C19.3676 871.44 19.0559 871.607 14.2071 871.607C2.5398 871.607 -2.21222 879.387 2.78761 890.305C4.54144 894.134 5.20828 896.703 4.50952 896.936C-4.1575 899.825 0.495627 920.387 11.4387 927.555C13.5233 928.921 14.0497 930.164 14.0497 933.719C14.0497 961.633 99.7466 990.405 168.205 985.475C188.155 984.037 185.036 980.232 193.921 1016.85C218.246 1117.09 231.675 1153.32 252.76 1175.58C281.596 1206.03 317.982 1200.74 343.021 1162.46C348.542 1154.02 348.542 1154.02 349.073 1194.89C349.684 1241.79 348.949 1238.42 360.191 1245.76C440.442 1298.13 649.564 1295.92 709.484 1242.06C718.082 1234.33 717.54 1237.96 718.131 1184.19C718.663 1135.82 718.663 1135.82 724.099 1146.62C746.964 1192.04 777.371 1207.3 811.517 1190.49C842.931 1175.03 855.708 1142.3 888.511 993.241C889.469 988.885 889.469 988.885 914.676 988.916C982.085 988.997 1056.35 963.265 1056.35 939.825C1056.35 937.976 1056.8 936.463 1057.36 936.463C1059.16 936.463 1069.06 925.836 1071.24 921.561C1075.07 914.068 1073.86 908.51 1067.73 905.422C1064.75 903.921 1064.75 903.921 1066.95 901.129C1077 888.353 1073.51 874.796 1060.16 874.796C1057.92 874.796 1057.07 873.982 1055.67 870.503C1050.42 857.372 1038.43 859.259 973.518 883.43C941.717 895.271 906.799 903.423 913.296 897.488C913.881 896.954 917.947 894.142 922.331 891.238C963.719 863.833 964.476 822.314 923.337 836.01C857.873 857.804 828.795 888.346 826.688 937.527C825.844 957.196 825.844 957.196 819.235 975.271C815.601 985.212 812.104 994.9 811.466 996.801C810.828 998.702 809.941 1000.26 809.496 1000.26C808.608 1000.26 808.406 999.746 794.187 961.449C776.812 914.653 765.923 890.981 752.341 870.473C730.992 838.237 700.087 824.683 654.633 827.62C648.61 828.009 643.682 828.079 643.682 827.773C643.682 827.469 644.843 825.126 646.263 822.567C650.129 815.601 655.012 802.704 657.555 792.744C660.233 782.252 659.963 782.632 663.226 784.77C677.511 794.127 700.953 783.372 715.744 760.674C744.154 717.077 740.864 670.711 709.357 670.664C704.536 670.657 704.551 671.725 709.16 656.836C725.745 603.256 727.898 557.175 714.513 542.227C711.452 538.81 710.91 537.334 710.426 531.105C709.721 522.044 705.783 513.724 699.626 508.289C695.347 504.51 695.023 503.829 694.346 497.157C692.345 477.448 683.677 469.274 664.576 469.084C655.159 468.989 655.159 468.989 651.631 459.612C645.109 442.281 640.104 437.752 616.399 427.735C608.299 424.312 601.216 421.112 600.66 420.624C596.155 416.67 591.567 420.335 591.567 427.887C591.567 430.52 591.208 432.505 590.769 432.298C590.33 432.091 580.966 427.507 569.959 422.109C545.214 409.974 542.643 409.721 542.643 419.419C542.643 424.61 542.438 424.74 538.552 422C519.823 408.797 495.33 405.287 471.269 412.357C460.432 415.541 456.813 415.167 450.112 410.169C444.168 405.735 440.594 404.882 438.506 407.399ZM536.108 517.53C541.949 523.085 549.67 525.399 562.319 525.383C570.738 525.373 574.988 524.653 586.897 521.221C588.773 520.68 589.253 521.138 589.829 524.021C591.981 534.775 610.876 542.308 628.931 539.61C630.796 539.331 632.798 541.907 647.315 563.273C659.419 581.089 663.62 590.706 665.892 605.801C667.276 615 668.606 655.773 667.521 655.773C666.161 655.773 639.008 639.486 637.828 637.962C636.207 635.869 602.169 624.451 588.346 621.362C550.651 612.939 510.508 615.869 496.621 628.058C492.719 631.482 492.719 631.482 486.598 630.213C482.965 629.458 477.441 629.215 473.006 629.613C465.534 630.284 465.534 630.284 462.622 626.621C452.639 614.065 405.126 605.314 372.511 610.027C363.775 611.289 363.786 611.495 372.225 604.578C391.611 588.687 401.927 585.599 428.484 587.746C444.492 589.039 445.848 588.826 450.894 584.234C455.762 579.802 455.302 569.876 449.947 563.779C438.933 551.238 399.791 555.441 374.865 571.839C370.505 574.708 370.447 573.869 374.178 562.061C376.428 554.939 384.596 534.873 385.702 533.749C385.855 533.593 389.043 534.251 392.787 535.212C407.557 539.002 429.993 534.069 441.321 524.539C444.375 521.97 444.69 521.918 447.786 523.461C471.492 535.284 517.629 529.749 531.568 513.41C531.619 513.35 533.662 515.204 536.108 517.53ZM539.452 557.997C520.236 559.806 510.911 567.958 513.328 580.832C515.092 590.234 517.339 590.777 541.973 587.763C562.972 585.193 582.377 589.963 601.928 602.5C611.61 608.708 613.897 609.086 617.117 605.004C628.137 591.029 591.05 561.273 559.128 558.477C555.033 558.119 550.726 557.695 549.556 557.535C548.386 557.376 543.839 557.583 539.452 557.997ZM420.112 621.288C450.992 625.873 461.796 633.553 460.292 649.85C454.334 714.381 425.794 737.913 373.895 721.09C355.762 715.211 356.206 716.863 358.637 664.279C360.673 620.246 359.221 623.401 378.853 620.329C385.889 619.228 410.011 619.789 420.112 621.288ZM356.07 632.116C354.355 648.681 353.4 668.193 353.365 687.404C353.326 709.296 352.699 711.529 348.969 703.098C341.44 686.084 339.713 649.235 345.491 628.939C345.998 627.165 350.596 625.236 354.804 625.035C356.652 624.947 356.753 625.508 356.07 632.116ZM403.62 628.545C360.531 642.619 369.797 707.871 414.885 707.871C454.207 707.871 465.22 648.273 429.157 630.635C422.162 627.214 410.593 626.266 403.62 628.545ZM567.128 628.195C592.88 631.423 614.71 639.083 616.931 645.672C622.803 663.095 612.706 712.184 600.805 724.083C584.103 740.778 527.511 736.459 510.156 717.162C494.149 699.365 490.436 643.27 504.696 634.677C515.571 628.124 543.458 625.228 567.128 628.195ZM427.366 635.63C443.823 643.595 451.083 666.57 442.646 683.992C427.717 714.822 383.701 705.222 381.223 670.595C379.327 644.102 404.872 624.745 427.366 635.63ZM539.753 636.07C501.806 655.184 514.733 712.655 556.979 712.655C609.523 712.655 610.583 634.528 558.064 632.596C547.606 632.211 547.301 632.268 539.753 636.07ZM573.336 641.437C604.573 658.451 592.912 707.871 557.661 707.871C528.479 707.871 512.699 675.102 530.162 650.762C539.379 637.913 559.061 633.662 573.336 641.437ZM487.991 643.529C491.52 645.002 491.718 645.334 491.003 648.579C487.332 665.241 493.001 700.917 501.667 715.7C510.484 730.74 534.069 739.796 564.297 739.749C603.841 739.688 615.05 727.349 623.589 674.486C628.731 642.648 666.22 650.875 666.783 683.964C667.156 705.758 667.737 706.398 676.947 695.129C700.726 666.032 730.732 670.514 730.208 703.086C729.49 747.694 688.012 796.888 665.556 779.765C658.758 774.58 655.31 776.479 653.167 786.587C638.302 856.683 572.834 910.154 502.009 910.043C424.509 909.922 377.144 873.812 364.543 805.238C360.104 781.078 355.757 721.693 358.429 721.693C359.036 721.693 361.846 722.69 364.673 723.907C384.805 732.584 418.198 733.543 433.228 725.877C435.449 724.745 437.451 723.819 437.677 723.819C437.904 723.819 436.282 727.649 436 733.5C436.5 754 450.912 755 462.5 755C467.5 755 483.5 748.5 483.5 748.5C483.5 748.5 483.5 745.5 480.5 746.636C470.167 748.238 446.923 753.185 445 741.174C439.369 728.509 450.315 700.805 469.169 666.501C474.79 657.203 477 641.437 477 641.437C477 641.437 476.604 638.772 487.991 643.529ZM421.843 657.777C412.706 663.347 413.805 681.204 423.344 682.153C432.48 683.063 437.9 664.669 430.413 658.165C427.069 655.26 426.048 655.215 421.843 657.777ZM557.635 660.307C547.038 665.751 548.354 685.543 559.313 685.543C569.833 685.543 573.396 665.459 563.76 660.478C560.269 658.673 560.788 658.687 557.635 660.307ZM707.73 695.819C694.625 704.708 677.834 730.103 677.741 741.174C677.693 746.781 681.019 743.985 684.726 735.301C691.156 720.23 699.625 708.621 710.313 700.224C720.706 692.06 718.59 688.452 707.73 695.819ZM469.257 798.24C454.575 801.864 438.413 810.783 438.413 815.262C438.413 818.395 441.148 817.892 447.678 813.559C472.225 797.271 513.118 797.553 534.088 814.157C541.087 819.698 545.444 816.963 539.147 810.982C525.915 798.417 492.919 792.401 469.257 798.24ZM147.527 836.632C160.279 840.117 195.941 857.067 210.1 866.37C230.713 879.916 237.641 889.924 239.482 908.82C240.08 914.96 241.038 924.768 241.612 930.616C243.662 951.541 258.46 989.705 292.73 1062.46C298.515 1074.74 304.824 1088.57 306.751 1093.2C310.38 1101.92 311.31 1102.97 313.933 1101.31C315.922 1100.05 314.666 1096.94 297.414 1060.33C282.235 1028.12 282.415 1029.59 295.004 1040.7C303.459 1048.16 320.039 1061.24 343.587 1079.03C350.267 1084.08 351.403 1135.97 345.111 1148.58C319.759 1199.34 276.211 1203.91 246.235 1158.93C231.939 1137.49 218.079 1095.38 198.554 1014.08C194.599 997.608 190.692 983.679 189.609 982.182C187.438 979.185 189.686 979.312 160.822 980.552C99.1298 983.204 19.3676 956.871 19.3676 933.853C19.3676 925.682 26.2276 926.163 46.8554 935.776C73.1383 948.027 93.7269 953.464 95.5775 948.645C96.4974 946.248 95.9114 945.968 85.4917 943.831C73.233 941.318 64.6383 938.248 47.2245 930.163C32.0644 923.123 24.846 921.436 19.4463 923.672C13.737 926.036 5.55714 916.871 5.5465 908.098C5.53586 899.234 9.5604 898.677 25.749 905.306C61.0509 919.76 101.995 930.874 105.787 927.03C107.914 924.875 104.426 923.1 95.1425 921.611C79.491 919.102 54.9173 911.429 32.1304 901.936C25.9883 899.378 19.1655 896.955 16.9681 896.553C9.24663 895.14 2.7057 882.852 7.57578 878.91C12.4586 874.958 18.6018 876.146 34.9286 884.197C64.5787 898.819 108.476 910.57 113.751 905.296C116.185 902.862 113.516 901.883 95.9444 898.763C50.8002 890.746 9.37213 868.396 30.8955 863.67C35.4083 862.679 44.756 865.168 70.2444 874.146C122.174 892.437 145.611 897.856 170.128 897.238C176.983 897.066 176.395 893.827 168.886 890.39C128.247 871.791 110.227 826.436 147.527 836.632ZM945.309 842.262C956.474 853.423 937.57 878.397 904.423 896.277C892.416 902.754 918.87 905.823 939.883 900.391C945.147 899.03 961.898 893.256 977.108 887.557C1028.83 868.181 1043.48 864.541 1049.53 869.559C1053.58 872.92 1051.4 875.425 1042.25 877.918C1031.74 880.784 1019.58 885.705 1005.23 892.903C991.894 899.594 981.422 903.737 971.392 906.29C963.634 908.266 961.047 910.278 963.926 912.099C967.698 914.483 986.209 908.266 1011.67 896.062C1046.71 879.266 1068.04 875.506 1068.04 886.126C1068.04 892.209 1059.2 904.567 1054.85 904.567C1050.61 904.567 1026.63 911.602 1004.76 919.261C993.063 923.359 980.141 927.829 976.046 929.195C968.497 931.714 966.126 934.517 970.964 935.204C972.263 935.388 986.861 930.98 1003.4 925.408C1058 907.014 1068.04 905.318 1068.04 914.488C1068.04 923.253 1056.65 933.246 1050.38 929.974C1044.43 926.865 1038.46 927.849 1017.74 935.354C1008.13 938.836 994.576 943.407 987.623 945.512C974.475 949.493 972.667 950.387 973.862 952.319C975.459 954.903 989.604 951.225 1019.06 940.567C1043.63 931.68 1051.03 931.363 1051.03 939.199C1051.03 959.958 979.208 983.508 915.32 983.696C886.682 983.78 884.048 984.159 884.048 988.204C884.048 989.708 869.519 1053.43 862.272 1083.72C845.343 1154.46 828.445 1182.3 797.632 1190.2C764.193 1198.77 734.965 1170.75 715.428 1111.4C707.556 1087.49 707.153 1089.21 722.547 1081.06C737.39 1073.21 763.252 1058.26 779.965 1047.87C791.279 1040.84 791.279 1040.84 777.131 1069.72C762.401 1099.79 757.685 1111.31 758.853 1114.35C760.34 1118.22 762.491 1115.78 766.391 1105.78C768.616 1100.08 778.248 1079.39 787.797 1059.8C823.559 986.429 830.247 967.632 831.876 935.932C834.08 893.014 845.03 879.352 898.406 852.926C930.418 837.077 938.325 835.28 945.309 842.262ZM617.525 867.088C607.631 921.357 549.581 961.51 502.768 946.464C485.083 940.781 460.483 910.961 476.35 914.442C519.876 923.992 574.554 906.58 608.651 872.315C613.586 867.355 617.766 863.252 617.938 863.199C618.111 863.145 617.925 864.896 617.525 867.088ZM874.15 929.213C870.504 930.542 870.325 935.143 873.944 934.478C889.417 931.639 904.301 936.191 926.387 950.517C934.95 956.071 939.697 954.416 932.414 948.415C915.575 934.539 886.147 924.84 874.15 929.213ZM158.695 932.085C141.227 937.849 130.587 943.608 131.759 946.664C132.581 948.805 133.384 948.62 143.071 944.044C164.401 933.967 180.338 931.846 189.445 937.87C195.609 941.947 200.193 939.697 195.103 935.092C187.638 928.338 173.57 927.177 158.695 932.085Z" fill="black" style="fill:black;fill-opacity:1;"/>
<path d="M440.342 408.07C440.652 407.982 441.12 407.954 441.83 408.123C443.315 408.477 445.425 409.591 448.348 411.771C451.81 414.354 454.74 415.945 458.365 416.32C461.888 416.685 465.836 415.87 471.264 414.275C494.803 407.359 518.652 410.82 536.831 423.635C537.775 424.301 538.633 424.893 539.345 425.26C539.702 425.444 540.15 425.642 540.645 425.728C541.173 425.819 541.881 425.8 542.554 425.375C543.193 424.971 543.511 424.382 543.676 423.945C543.84 423.509 543.921 423.042 543.969 422.624C544.064 421.79 544.074 420.69 544.074 419.419C544.074 418.238 544.114 417.283 544.216 416.515C544.319 415.735 544.471 415.269 544.618 414.999C544.739 414.778 544.843 414.705 544.966 414.653C545.139 414.581 545.515 414.494 546.257 414.567C547.792 414.719 550.185 415.47 553.902 417.047C557.567 418.602 562.322 420.87 568.51 423.904C579.47 429.279 588.84 433.867 589.347 434.105V434.106C589.692 434.269 590.112 434.355 590.562 434.291C590.999 434.229 591.339 434.045 591.574 433.865C591.998 433.541 592.216 433.134 592.312 432.934C592.528 432.487 592.651 431.96 592.732 431.513C592.905 430.557 592.998 429.275 592.998 427.888C592.998 424.423 594.06 422.337 595.104 421.504C595.587 421.118 596.079 420.976 596.593 421.021C597.067 421.064 597.698 421.28 598.445 421.857L598.772 422.128C599.048 422.37 599.44 422.58 599.649 422.692C599.946 422.851 600.327 423.043 600.771 423.259C601.664 423.693 602.875 424.254 604.309 424.901C606.462 425.874 609.144 427.052 612.063 428.305L615.052 429.577C626.92 434.592 633.8 438.118 638.548 442.414C642.927 446.376 645.613 451.107 648.59 458.748L649.19 460.316C650.058 462.624 650.757 464.486 651.451 465.91C652.153 467.35 652.953 468.571 654.146 469.443C655.351 470.325 656.736 470.69 658.277 470.869C659.786 471.044 661.677 471.061 663.987 471.084H663.988C673.29 471.177 679.645 473.212 683.933 477.256C688.235 481.313 690.809 487.721 691.787 497.359C692.117 500.606 692.383 502.817 693.26 504.665C694.163 506.569 695.639 507.938 697.734 509.788C703.28 514.683 706.958 522.171 707.791 530.456L707.863 531.26C708.104 534.361 708.371 536.545 709.057 538.41C709.768 540.347 710.875 541.798 712.454 543.561V543.562C715.462 546.921 717.737 552.206 719.124 559.29C720.505 566.345 720.973 575.012 720.509 584.951C719.58 604.827 714.937 629.571 706.681 656.244C704.539 663.163 698.604 670.072 692.007 676.612C688.722 679.869 685.409 682.908 682.37 685.821C679.406 688.663 676.708 691.381 674.829 693.863C672.498 696.716 670.845 698.646 669.642 699.697C669.489 699.83 669.353 699.94 669.232 700.031C669.194 699.908 669.154 699.76 669.112 699.584C668.932 698.821 668.779 697.754 668.657 696.318C668.413 693.449 668.308 689.392 668.215 683.93L668.183 682.064L667.733 682.04C667.664 681.387 667.605 680.512 667.564 679.453C667.466 676.865 667.472 673.39 667.563 669.895C667.655 666.399 667.831 662.928 668.064 660.349C668.182 659.049 668.31 658.028 668.438 657.358C668.461 657.243 668.484 657.145 668.503 657.062C668.524 657.038 668.544 657.017 668.561 656.996C668.767 656.739 668.871 656.485 668.918 656.362C669.018 656.096 669.071 655.825 669.102 655.638C669.169 655.229 669.215 654.701 669.248 654.117C669.316 652.928 669.347 651.255 669.351 649.262C669.357 645.264 669.248 639.855 669.062 634.172C668.717 623.567 668.098 611.814 667.435 606.482L667.301 605.504C664.97 590.016 660.609 580.117 648.4 562.148C641.158 551.49 636.986 545.44 634.39 542.098C633.107 540.447 632.103 539.315 631.223 538.617C630.246 537.843 629.229 537.459 628.067 537.632H628.066C619.383 538.93 610.503 537.759 603.588 535.002C596.556 532.198 592.097 528.001 591.222 523.628C591.073 522.885 590.913 522.203 590.709 521.625C590.511 521.064 590.207 520.411 589.663 519.891C588.516 518.796 587.103 518.961 586.151 519.197L585.773 519.3C573.969 522.702 569.915 523.374 561.748 523.383H561.747C549.331 523.398 542.223 521.126 536.918 516.08H536.917C535.686 514.91 534.552 513.854 533.715 513.094C533.299 512.716 532.944 512.401 532.683 512.179C532.557 512.072 532.428 511.965 532.314 511.879C532.267 511.843 532.169 511.77 532.051 511.7C532.007 511.674 531.856 511.584 531.648 511.515C531.553 511.482 531.315 511.408 531.001 511.408C530.684 511.409 530.006 511.495 529.48 512.108L529.478 512.111C526.286 515.852 521.121 519.107 514.626 521.676C508.158 524.233 500.515 526.053 492.532 527.011C476.501 528.934 459.48 527.342 448.11 521.672C447.353 521.294 446.631 520.944 445.967 520.721C445.261 520.484 444.491 520.344 443.641 520.485C442.817 520.623 442.119 520.993 441.498 521.411C440.889 521.822 440.217 522.376 439.465 523.009C434.126 527.5 426.018 531.01 417.347 532.917C408.68 534.823 399.71 535.069 392.716 533.274C390.822 532.788 389.057 532.376 387.733 532.103C387.077 531.967 386.502 531.86 386.064 531.797C385.853 531.766 385.625 531.739 385.418 531.729C385.321 531.725 385.161 531.721 384.981 531.74C384.893 531.75 384.741 531.772 384.562 531.827C384.418 531.872 384.048 532.001 383.708 532.346C383.439 532.619 383.232 532.971 383.12 533.164C382.973 533.419 382.81 533.728 382.639 534.071C382.294 534.762 381.872 535.672 381.4 536.73C380.455 538.852 379.278 541.641 378.064 544.615C376.091 549.454 373.996 554.852 372.627 558.728L364.478 553.839L364.262 553.709L364.02 553.637C359.814 552.384 355.599 549.363 351.803 545.239C348.022 541.132 344.765 536.047 342.448 530.871C340.124 525.679 338.8 520.518 338.762 516.263C338.724 512.111 339.891 509.2 342.071 507.634L342.285 507.486C343.072 506.968 343.235 506.155 343.278 505.904C343.339 505.55 343.33 505.202 343.31 504.929C343.267 504.364 343.137 503.698 342.966 503.009C342.617 501.608 342.021 499.818 341.271 497.959C337.343 488.24 335.916 479.802 336.539 474.375C336.854 471.634 337.65 469.998 338.539 469.208C339.283 468.547 340.42 468.193 342.389 468.888C348.431 471.022 353.15 471.739 358.435 469.667C363.172 467.809 368.185 463.765 375.129 457.203L376.544 455.857C393.353 439.771 407.111 433.032 425.57 431.657L426.453 431.596C428.839 431.441 430.703 431.322 432.109 431.161C433.449 431.008 434.686 430.791 435.625 430.287C436.146 430.007 436.627 429.615 436.984 429.063C437.337 428.52 437.49 427.947 437.55 427.429C437.656 426.514 437.494 425.42 437.366 424.47C437.063 422.21 437.241 418.608 437.736 415.243C437.981 413.581 438.294 412.041 438.638 410.817C438.964 409.656 439.257 409.012 439.416 408.761L439.476 408.677C439.771 408.321 440.053 408.152 440.342 408.07Z" fill="#554845" stroke="black" stroke-width="4"/>
<path d="M425 495.5L425.97 497.249L426.724 496.831L426.938 495.995L425 495.5ZM452.593 503.91C453.648 503.583 454.238 502.462 453.91 501.407C453.583 500.352 452.462 499.762 451.407 500.09L452 502L452.593 503.91ZM445.686 520.509L446.428 518.652C440.104 516.122 433.728 510.918 429.666 505.948C427.627 503.451 426.299 501.169 425.791 499.456C425.537 498.601 425.534 498.046 425.605 497.733C425.659 497.5 425.75 497.371 425.97 497.249L425 495.5L424.031 493.75C422.785 494.441 422.004 495.536 421.706 496.843C421.426 498.07 421.593 499.371 421.956 500.595C422.682 503.038 424.38 505.8 426.569 508.479C430.966 513.859 437.865 519.535 444.943 522.366L445.686 520.509ZM425 495.5L426.938 495.995C426.88 496.221 426.67 496.679 426.131 496.936C425.905 497.043 425.706 497.071 425.581 497.077C425.46 497.082 425.386 497.066 425.377 497.064C425.372 497.063 425.463 497.085 425.69 497.19C425.904 497.29 426.173 497.432 426.509 497.624C427.741 498.33 429.999 499.809 432.414 501.086C437.425 503.736 444.582 506.396 452.593 503.91L452 502L451.407 500.09C444.918 502.104 438.957 500.021 434.284 497.55C431.857 496.266 430.132 495.09 428.496 494.153C427.804 493.757 426.968 493.31 426.193 493.148C425.793 493.065 425.111 492.99 424.41 493.325C423.608 493.707 423.216 494.405 423.063 495.004L425 495.5Z" fill="black" style="fill:black;fill-opacity:1;"/>
<path d="M650.191 754.93C657.558 737.296 665.993 706.352 666.231 696.084L667.362 695.68C667.931 697.726 669.176 700 670.128 700.73C671.697 701.934 671.7 702.059 670.161 702.059C669.029 702.059 668.634 702.718 668.98 704.037C669.56 706.258 667.548 721.025 662.8 749.372C659.442 769.434 659.418 774.338 662.671 777.33C663.754 778.327 664.049 778.749 663.326 778.269C659.944 776.021 656.061 777.943 655.118 782.332C647.859 816.133 632.659 842.532 605.801 867.981C589.962 882.99 566.123 899.108 562.802 897.056C562.081 896.611 561.866 896.766 562.278 897.433C563.758 899.827 538.948 907.479 523.645 909.349C434.968 920.187 373.873 876.814 361.981 794.581C359.372 776.541 357.906 754.686 360.234 768.51C364.656 794.794 376.005 812.895 391.242 817.963C397.249 819.962 397.961 820.51 398.54 823.582C403.317 848.975 429.185 867.85 465.903 872.736C523.173 880.356 567.673 861.447 577.078 825.495C577.532 823.755 578.497 823.266 581.471 823.266C601.864 823.266 635.698 789.622 650.191 754.93Z" fill="#A78570" style="fill:#A78570;fill:color(display-p3 0.6549 0.5216 0.4392);fill-opacity:1;"/>
<path d="M480.82 843.359C462.695 840.481 457.498 831.425 471.421 826.988C479.135 824.529 501.728 825.249 506.597 828.108C518.616 835.167 499.7 846.357 480.82 843.359Z" fill="#A78570" style="fill:#A78570;fill:color(display-p3 0.6549 0.5216 0.4392);fill-opacity:1;"/>
<path d="M477.702 766.692C477.702 766.692 484.536 765.538 488.02 764.292C491.505 763.046 491.185 762.183 493.147 762.109C493.948 763.239 494.477 764.295 500.16 764.295C537.056 764.295 571.621 781.908 571.554 800.676C571.526 808.307 570.476 808.735 563.923 803.789C525.427 774.734 437.854 773.069 408.122 800.828C399.408 808.962 397.58 809.023 398.732 801.144C400.826 786.815 419.703 771.307 441.571 765.949C445.793 764.915 449.015 763.696 448.733 763.239C448.45 762.783 449.951 763.292 452.068 764.371C456.007 766.378 460.013 767.111 470.843 767.804C472.807 767.704 476.883 766.544 477.702 766.692Z" fill="#A78570" style="fill:#A78570;fill:color(display-p3 0.6549 0.5216 0.4392);fill-opacity:1;"/>
<path d="M782.542 420.505C780.847 409.479 780 398.24 780 386.79C780.424 375.34 782.542 364.102 786.355 353.076C791.015 338.657 798.641 325.935 809.233 314.909C819.824 303.883 831.899 295.189 845.456 288.828C859.86 282.043 874.477 277.378 889.305 274.834C904.557 271.865 919.385 271.229 933.79 272.925C948.618 274.622 962.81 278.438 976.368 284.375C990.349 289.888 1003.48 297.946 1015.77 308.548C1028.9 319.998 1038.65 333.356 1045 348.623C1051.78 363.466 1055.38 378.945 1055.8 395.06C1056.65 411.175 1054.75 427.29 1050.09 443.405C1045.85 459.096 1039.28 473.726 1030.38 487.297C1030.38 487.297 1030.17 487.721 1029.75 488.569C1022.55 498.323 1014.29 507.229 1004.96 515.286C995.644 522.919 986.959 531.189 978.91 540.095C969.589 549.848 964.081 559.814 962.387 569.992C960.692 579.746 958.998 590.772 957.303 603.07C956.032 614.945 952.854 625.334 947.77 634.24C943.11 642.722 934.213 646.75 921.08 646.326C912.183 645.902 905.404 643.146 900.744 638.057C896.507 632.544 893.33 626.183 891.211 618.973C889.517 611.34 888.881 603.494 889.305 595.437C889.729 586.955 890.364 579.534 891.211 573.173C893.753 558.33 898.414 544.335 905.192 531.189C911.971 517.619 920.232 504.896 929.977 493.022C935.484 486.661 940.992 480.936 946.499 475.847C952.007 470.334 957.091 464.609 961.751 458.672C966.412 452.734 970.436 446.373 973.826 439.588C977.215 432.803 979.545 424.957 980.816 416.052C982.087 407.994 981.452 399.937 978.91 391.879C976.368 383.398 972.555 375.976 967.471 369.615C962.387 362.83 956.244 357.317 949.041 353.076C941.839 348.411 934.001 345.867 925.528 345.443C917.902 345.019 909.853 346.079 901.379 348.623C892.906 350.744 885.068 354.348 877.866 359.437C870.664 364.102 864.733 369.827 860.072 376.612C855.836 383.398 853.929 391.031 854.353 399.513C854.776 404.602 855.624 409.903 856.895 415.416C858.589 420.505 859.649 425.593 860.072 430.682C860.92 435.347 860.708 440.012 859.437 444.677C858.589 449.342 855.836 453.795 851.175 458.035C843.549 465.245 835.923 468.849 828.298 468.849C820.672 468.425 813.681 465.881 807.326 461.216C800.971 456.551 795.464 450.614 790.803 443.405C786.567 435.771 783.813 428.138 782.542 420.505ZM965.564 737.927C965.564 750.226 960.904 761.252 951.583 771.005C942.687 780.335 932.307 785 920.444 785C909.005 785 898.837 780.335 889.94 771.005C881.044 760.827 876.595 749.801 876.595 737.927C876.595 724.781 881.044 713.755 889.94 704.849C898.837 695.095 909.005 690.218 920.444 690.218C932.307 690.218 942.687 695.095 951.583 704.849C960.904 714.179 965.564 725.205 965.564 737.927Z" fill="#FCC100" style="fill:#FCC100;fill:color(display-p3 0.9888 0.7581 0.0000);fill-opacity:1;"/>
</svg>
