<svg width="1122" height="1122" viewBox="0 0 1122 1122" fill="none" xmlns="http://www.w3.org/2000/svg">
<path d="M1122 561C1122 870.832 870.832 1122 561 1122C251.168 1122 0 870.832 0 561C0 251.168 251.168 0 561 0C870.832 0 1122 251.168 1122 561ZM113.158 561C113.158 808.336 313.664 1008.84 561 1008.84C808.336 1008.84 1008.84 808.336 1008.84 561C1008.84 313.664 808.336 113.158 561 113.158C313.664 113.158 113.158 313.664 113.158 561Z" fill="#F05E61" style="fill:#F05E61;fill:color(display-p3 0.9407 0.3690 0.3786);fill-opacity:1;"/>
<rect x="911.312" y="251" width="138.616" height="925" transform="rotate(56.9479 911.312 251)" fill="#F05E61" style="fill:#F05E61;fill:color(display-p3 0.9407 0.3690 0.3786);fill-opacity:1;"/>
<path d="M408.42 244.141C517.893 214.076 583.329 218.034 705.139 251.22C733.518 299.41 744.384 333.246 727.951 398.095C795.711 389.574 732.414 540.107 682.507 505.212C671.874 528.455 667.661 553.001 662.309 567.427C673.348 626.603 800.045 655.233 833.04 731.617C842.818 726.377 857.79 633.021 867.007 612.13C936.773 560.144 956.366 555.106 974 567.427L970.588 592.04L930.825 623.688L960.497 626.829L1061.7 588.877C1066.06 588.233 1092.14 607.173 1095.44 605.744C1086.15 629.682 1086.91 626.829 1095.44 640.821C1079.18 659.366 1075.28 674.548 1071.45 678.426C1038.91 693.131 1015.36 701.859 911.758 713.971C896.349 791.356 885.595 833.18 854.896 898.791L825.807 917.002L783.028 912.366L737.114 856.424V874.139L383.767 898.791L373.553 878.816C342.692 917.334 323.988 925.068 287.524 908.179C263.27 886.282 246.417 839.756 210.768 708.305C134.091 706.388 89.0769 707.621 44.893 668.639C30.415 644.078 25.1947 631.549 31.8976 617.945C16.3109 608.633 48.8974 593.428 55.0733 588.877L177.811 623.688L189.436 617.945L149.579 578.918V567.427L161.204 557.329L234.276 588.877L263.338 617.945L274.963 686.034L299.874 738.347L387.891 573.936C396.785 563.826 390.462 551.293 385.203 539.395C374.368 389.66 381.426 324.198 408.42 244.141Z" fill="#EFBDA2" style="fill:#EFBDA2;fill:color(display-p3 0.9373 0.7412 0.6353);fill-opacity:1;"/>
<ellipse cx="437.609" cy="392.495" rx="36.2264" ry="38.425" fill="white" style="fill:white;fill-opacity:1;"/>
<ellipse cx="580.43" cy="397.769" rx="36.2264" ry="38.425" fill="white" style="fill:white;fill-opacity:1;"/>
<path fill-rule="evenodd" clip-rule="evenodd" d="M462.506 132.399C460.775 134.483 459.275 144.678 459.953 149.736C460.522 153.977 460.522 153.977 450.893 154.6C431.416 155.862 417.065 162.822 399.73 179.413C384.276 194.202 379.336 196.139 367.624 192.002C357.778 188.525 356.006 203.962 363.985 223.708C365.437 227.302 366.234 230.5 365.754 230.816C353.251 239.053 369.337 274.992 388.018 280.554C394.366 282.444 393.843 288.498 385.145 313.789C383.036 319.92 382.534 323.037 382.972 327.282C383.946 336.714 384.1 336.572 368.688 340.403C359.164 342.77 354.621 344.395 353.932 345.68C352.334 348.667 354.719 360.526 357.888 365.344C360.554 369.397 360.687 370.292 360.898 385.546C361.23 409.639 365.616 428.628 373.006 437.975C377.15 443.216 377.15 443.216 377.259 462.763C377.449 497.063 380.145 522.39 386.013 544.993C388.164 553.283 388.913 557.837 388.163 558.087C379.93 560.83 361.301 577.776 353.294 589.805C340.172 609.521 294.369 710.575 294.369 719.811C294.369 727.1 281.157 696.536 274.234 673.234C271.671 664.607 270.689 658.589 269.811 646.122C267.961 619.87 265.767 613.141 255.416 601.963C239.209 584.463 181.27 555.205 162.719 555.154C134.255 555.075 143.018 589.312 177.377 612.42C192.606 622.662 158.622 615.41 102.396 596.418C55.5146 580.582 43.3676 580.052 43.3676 593.842C43.3676 596.44 43.0559 596.607 38.2071 596.607C26.5398 596.607 21.7878 604.387 26.7876 615.305C28.5414 619.134 29.2083 621.703 28.5095 621.936C19.8425 624.825 24.4956 645.387 35.4387 652.555C37.5233 653.921 38.0497 655.164 38.0497 658.719C38.0497 686.633 123.747 715.405 192.205 710.475C212.155 709.037 209.036 705.232 217.921 741.849C242.246 842.091 255.675 878.317 276.76 900.58C305.596 931.027 341.982 925.74 367.021 887.463C372.542 879.023 372.542 879.023 373.073 919.891C373.684 966.788 372.949 963.424 384.191 970.761C464.442 1023.13 673.564 1020.92 733.484 967.062C742.082 959.334 741.54 962.959 742.131 909.194C742.663 860.817 742.663 860.817 748.099 871.616C770.964 917.036 801.371 932.298 835.517 915.494C866.931 900.033 879.708 867.302 912.511 718.241C913.469 713.885 913.469 713.885 938.676 713.916C1006.09 713.997 1080.35 688.265 1080.35 664.825C1080.35 662.976 1080.8 661.463 1081.36 661.463C1083.16 661.463 1093.06 650.836 1095.24 646.561C1099.07 639.068 1097.86 633.51 1091.73 630.422C1088.75 628.921 1088.75 628.921 1090.95 626.129C1101 613.353 1097.51 599.796 1084.16 599.796C1081.92 599.796 1081.07 598.982 1079.67 595.503C1074.42 582.372 1062.43 584.259 997.518 608.43C965.717 620.271 930.799 628.423 937.296 622.488C937.881 621.954 941.947 619.142 946.331 616.238C987.719 588.833 988.476 547.314 947.337 561.01C881.873 582.804 852.795 613.346 850.688 662.527C849.844 682.196 849.844 682.196 843.235 700.271C839.601 710.212 836.104 719.9 835.466 721.801C834.828 723.702 833.941 725.257 833.496 725.257C832.608 725.257 832.406 724.746 818.187 686.449C800.812 639.653 789.923 615.981 776.341 595.473C754.992 563.237 724.087 549.683 678.633 552.62C672.61 553.009 667.682 553.079 667.682 552.773C667.682 552.469 668.843 550.126 670.263 547.567C674.129 540.601 679.012 527.704 681.555 517.744C684.233 507.252 683.963 507.632 687.226 509.77C701.511 519.127 724.953 508.372 739.744 485.674C768.154 442.077 764.864 395.711 733.357 395.664C728.536 395.657 728.551 396.725 733.16 381.836C749.745 328.256 751.898 282.175 738.513 267.227C735.452 263.81 734.91 262.334 734.426 256.105C733.721 247.044 729.783 238.724 723.626 233.289C719.347 229.51 719.023 228.829 718.346 222.157C716.345 202.448 707.677 194.274 688.576 194.084C679.159 193.989 679.159 193.989 675.631 184.612C669.109 167.281 664.104 162.752 640.399 152.735C632.299 149.312 625.216 146.112 624.66 145.624C620.155 141.67 615.567 145.335 615.567 152.887C615.567 155.52 615.208 157.505 614.769 157.298C614.33 157.091 604.966 152.507 593.959 147.109C569.214 134.974 566.643 134.721 566.643 144.419C566.643 149.61 566.438 149.74 562.552 147C543.823 133.797 519.33 130.287 495.269 137.357C484.432 140.541 480.813 140.167 474.112 135.169C468.168 130.735 464.594 129.882 462.506 132.399ZM560.108 242.53C565.949 248.085 573.67 250.399 586.319 250.383C594.738 250.373 598.988 249.653 610.897 246.221C612.773 245.68 613.253 246.138 613.829 249.021C615.981 259.775 634.876 267.308 652.931 264.61C654.796 264.331 656.798 266.907 671.315 288.273C683.419 306.089 687.62 315.706 689.892 330.801C691.276 340 692.606 380.773 691.521 380.773C690.161 380.773 663.008 364.486 661.828 362.962C660.207 360.869 626.169 349.451 612.346 346.362C574.651 337.939 534.508 340.869 520.621 353.058C516.719 356.482 516.719 356.482 510.598 355.213C506.965 354.458 501.441 354.215 497.006 354.613C489.534 355.284 489.534 355.284 486.622 351.621C476.639 339.065 429.126 330.314 396.511 335.027C387.775 336.289 387.786 336.495 396.225 329.578C415.611 313.687 425.927 310.599 452.484 312.746C468.492 314.039 469.848 313.826 474.894 309.234C479.762 304.802 479.302 294.876 473.947 288.779C462.933 276.238 423.791 280.441 398.865 296.839C394.505 299.708 394.447 298.869 398.178 287.061C400.428 279.939 408.596 259.873 409.702 258.749C409.855 258.593 413.043 259.251 416.787 260.212C431.557 264.002 453.993 259.069 465.321 249.539C468.375 246.97 468.69 246.918 471.786 248.461C495.492 260.284 541.629 254.749 555.568 238.41C555.619 238.35 557.662 240.204 560.108 242.53ZM563.452 282.997C544.236 284.806 534.911 292.958 537.328 305.832C539.092 315.234 541.339 315.777 565.973 312.763C586.972 310.193 606.377 314.963 625.928 327.5C635.61 333.708 637.897 334.086 641.117 330.004C652.137 316.029 615.05 286.273 583.128 283.477C579.033 283.119 574.726 282.695 573.556 282.535C572.386 282.376 567.839 282.583 563.452 282.997ZM444.112 346.288C474.992 350.873 485.796 358.553 484.292 374.85C478.334 439.381 449.794 462.913 397.895 446.09C379.762 440.211 380.206 441.863 382.637 389.279C384.673 345.246 383.221 348.401 402.853 345.329C409.889 344.228 434.011 344.789 444.112 346.288ZM380.07 357.116C378.355 373.681 377.4 393.193 377.365 412.404C377.326 434.296 376.699 436.529 372.969 428.098C365.44 411.084 363.713 374.235 369.491 353.939C369.998 352.165 374.596 350.236 378.804 350.035C380.652 349.947 380.753 350.508 380.07 357.116ZM427.62 353.545C384.531 367.619 393.797 432.871 438.885 432.871C478.207 432.871 489.22 373.273 453.157 355.635C446.162 352.214 434.593 351.266 427.62 353.545ZM591.128 353.195C616.88 356.423 638.71 364.083 640.931 370.672C646.803 388.095 636.706 437.184 624.805 449.083C608.103 465.778 551.511 461.459 534.156 442.162C518.149 424.365 514.436 368.27 528.696 359.677C539.571 353.124 567.458 350.228 591.128 353.195ZM451.366 360.63C467.823 368.595 475.083 391.57 466.646 408.992C451.717 439.822 407.701 430.222 405.223 395.595C403.327 369.102 428.872 349.745 451.366 360.63ZM563.753 361.07C525.806 380.184 538.733 437.655 580.979 437.655C633.523 437.655 634.583 359.528 582.064 357.596C571.606 357.211 571.301 357.268 563.753 361.07ZM597.336 366.437C628.573 383.451 616.912 432.871 581.661 432.871C552.479 432.871 536.699 400.102 554.162 375.762C563.379 362.913 583.061 358.662 597.336 366.437ZM511.991 368.529C515.52 370.002 515.718 370.334 515.003 373.579C511.332 390.241 517.001 425.917 525.667 440.7C534.484 455.74 558.069 464.796 588.297 464.749C627.841 464.688 639.05 452.349 647.589 399.486C652.731 367.648 690.22 375.875 690.783 408.964C691.156 430.758 691.737 431.398 700.947 420.129C724.726 391.032 754.732 395.514 754.208 428.086C753.49 472.694 712.012 521.888 689.556 504.765C682.758 499.58 679.31 501.479 677.167 511.587C662.302 581.683 596.834 635.154 526.009 635.043C448.509 634.922 401.144 598.812 388.543 530.238C384.104 506.078 379.757 446.693 382.429 446.693C383.036 446.693 385.846 447.69 388.673 448.907C408.805 457.584 442.198 458.543 457.228 450.877C459.449 449.745 461.451 448.819 461.677 448.819C461.904 448.819 460.282 452.649 460 458.5C460.5 479 474.912 480 486.5 480C491.5 480 507.5 473.5 507.5 473.5C507.5 473.5 507.5 470.5 504.5 471.636C494.167 473.238 470.923 478.185 469 466.174C463.369 453.509 474.315 425.805 493.169 391.501C498.79 382.203 501 366.437 501 366.437C501 366.437 500.604 363.772 511.991 368.529ZM445.843 382.777C436.706 388.347 437.805 406.204 447.344 407.153C456.48 408.063 461.9 389.669 454.413 383.165C451.069 380.26 450.048 380.215 445.843 382.777ZM581.635 385.307C571.038 390.751 572.354 410.543 583.313 410.543C593.833 410.543 597.396 390.459 587.76 385.478C584.269 383.673 584.788 383.687 581.635 385.307ZM731.73 420.819C718.625 429.708 701.834 455.103 701.741 466.174C701.693 471.781 705.019 468.985 708.726 460.301C715.156 445.23 723.625 433.621 734.313 425.224C744.706 417.06 742.59 413.452 731.73 420.819ZM493.257 523.24C478.575 526.864 462.413 535.783 462.413 540.262C462.413 543.395 465.148 542.892 471.678 538.559C496.225 522.271 537.118 522.553 558.088 539.157C565.087 544.698 569.444 541.963 563.147 535.982C549.915 523.417 516.919 517.401 493.257 523.24ZM171.527 561.632C184.279 565.117 219.941 582.067 234.1 591.37C254.713 604.916 261.641 614.924 263.482 633.82C264.08 639.96 265.038 649.768 265.612 655.616C267.662 676.541 282.46 714.705 316.73 787.455C322.515 799.735 328.824 813.571 330.751 818.2C334.38 826.918 335.31 827.967 337.933 826.31C339.922 825.054 338.666 821.937 321.414 785.329C306.235 753.118 306.415 754.59 319.004 765.696C327.459 773.157 344.039 786.24 367.587 804.035C374.267 809.082 375.403 860.974 369.111 873.576C343.759 924.344 300.211 928.906 270.235 883.934C255.939 862.487 242.079 820.38 222.554 739.078C218.599 722.608 214.692 708.679 213.609 707.182C211.438 704.185 213.686 704.312 184.822 705.552C123.13 708.204 43.3676 681.871 43.3676 658.853C43.3676 650.682 50.2276 651.163 70.8554 660.776C97.1383 673.027 117.727 678.464 119.577 673.645C120.497 671.248 119.911 670.968 109.492 668.831C97.233 666.318 88.6383 663.248 71.2245 655.163C56.0644 648.123 48.846 646.436 43.4463 648.672C37.737 651.036 29.5571 641.871 29.5465 633.098C29.5359 624.234 33.5604 623.677 49.749 630.306C85.0509 644.76 125.995 655.874 129.787 652.03C131.914 649.875 128.426 648.1 119.142 646.611C103.491 644.102 78.9173 636.429 56.1304 626.936C49.9883 624.378 43.1655 621.955 40.9681 621.553C33.2466 620.14 26.7057 607.852 31.5758 603.91C36.4586 599.958 42.6018 601.146 58.9286 609.197C88.5787 623.819 132.476 635.57 137.751 630.296C140.185 627.862 137.516 626.883 119.944 623.763C74.8002 615.746 33.3721 593.396 54.8955 588.67C59.4083 587.679 68.756 590.168 94.2444 599.146C146.174 617.437 169.611 622.856 194.128 622.238C200.983 622.066 200.395 618.827 192.886 615.39C152.247 596.791 134.227 551.436 171.527 561.632ZM969.309 567.262C980.474 578.423 961.57 603.397 928.423 621.277C916.416 627.754 942.87 630.823 963.883 625.391C969.147 624.03 985.898 618.256 1001.11 612.557C1052.83 593.181 1067.48 589.541 1073.53 594.559C1077.58 597.92 1075.4 600.425 1066.25 602.918C1055.74 605.784 1043.58 610.705 1029.23 617.903C1015.89 624.594 1005.42 628.737 995.392 631.29C987.634 633.266 985.047 635.278 987.926 637.099C991.698 639.483 1010.21 633.266 1035.67 621.062C1070.71 604.266 1092.04 600.506 1092.04 611.126C1092.04 617.209 1083.2 629.567 1078.85 629.567C1074.61 629.567 1050.63 636.602 1028.76 644.261C1017.06 648.359 1004.14 652.829 1000.05 654.195C992.497 656.714 990.126 659.517 994.964 660.204C996.263 660.388 1010.86 655.98 1027.4 650.408C1082 632.014 1092.04 630.318 1092.04 639.488C1092.04 648.253 1080.65 658.246 1074.38 654.974C1068.43 651.865 1062.46 652.849 1041.74 660.354C1032.13 663.836 1018.58 668.407 1011.62 670.512C998.475 674.493 996.667 675.387 997.862 677.319C999.459 679.903 1013.6 676.225 1043.06 665.567C1067.63 656.68 1075.03 656.363 1075.03 664.199C1075.03 684.958 1003.21 708.508 939.32 708.696C910.682 708.78 908.048 709.159 908.048 713.204C908.048 714.708 893.519 778.434 886.272 808.719C869.343 879.457 852.445 907.295 821.632 915.196C788.193 923.771 758.965 895.754 739.428 836.4C731.556 812.489 731.153 814.209 746.547 806.061C761.39 798.206 787.252 783.257 803.965 772.872C815.279 765.841 815.279 765.841 801.131 794.723C786.401 824.789 781.685 836.306 782.853 839.35C784.34 843.222 786.491 840.777 790.391 830.781C792.616 825.08 802.248 804.387 811.797 784.797C847.559 711.429 854.247 692.632 855.876 660.932C858.08 618.014 869.03 604.352 922.406 577.926C954.418 562.077 962.325 560.28 969.309 567.262ZM641.525 592.088C631.631 646.357 573.581 686.51 526.768 671.464C509.083 665.781 484.483 635.961 500.35 639.442C543.876 648.992 598.554 631.58 632.651 597.315C637.586 592.355 641.766 588.252 641.938 588.199C642.111 588.145 641.925 589.896 641.525 592.088ZM898.15 654.213C894.504 655.542 894.325 660.143 897.944 659.478C913.417 656.639 928.301 661.191 950.387 675.517C958.95 681.071 963.697 679.416 956.414 673.415C939.575 659.539 910.147 649.84 898.15 654.213ZM182.695 657.085C165.227 662.849 154.587 668.608 155.759 671.664C156.581 673.805 157.384 673.62 167.071 669.044C188.401 658.967 204.338 656.846 213.445 662.87C219.609 666.947 224.193 664.697 219.103 660.092C211.638 653.338 197.57 652.177 182.695 657.085Z" fill="black" style="fill:black;fill-opacity:1;"/>
<path d="M464.342 133.07C464.652 132.982 465.12 132.954 465.83 133.123C467.315 133.477 469.425 134.591 472.348 136.771C475.81 139.354 478.74 140.945 482.365 141.32C485.888 141.685 489.836 140.87 495.264 139.275C518.803 132.359 542.652 135.82 560.831 148.635C561.775 149.301 562.633 149.893 563.345 150.26C563.702 150.444 564.15 150.642 564.645 150.728C565.173 150.819 565.881 150.8 566.554 150.375C567.193 149.971 567.511 149.382 567.676 148.945C567.84 148.509 567.921 148.042 567.969 147.624C568.064 146.79 568.074 145.69 568.074 144.419C568.074 143.238 568.114 142.283 568.216 141.515C568.319 140.735 568.471 140.269 568.618 139.999C568.739 139.778 568.843 139.705 568.966 139.653C569.139 139.581 569.515 139.494 570.257 139.567C571.792 139.719 574.185 140.47 577.902 142.047C581.567 143.602 586.322 145.87 592.51 148.904C603.47 154.279 612.84 158.867 613.347 159.105V159.106C613.692 159.269 614.112 159.355 614.562 159.291C614.999 159.229 615.339 159.045 615.574 158.865C615.998 158.541 616.216 158.134 616.312 157.934C616.528 157.487 616.651 156.96 616.732 156.513C616.905 155.557 616.998 154.275 616.998 152.888C616.998 149.423 618.06 147.337 619.104 146.504C619.587 146.118 620.079 145.976 620.593 146.021C621.067 146.064 621.698 146.28 622.445 146.857L622.772 147.128C623.048 147.37 623.44 147.58 623.649 147.692C623.946 147.851 624.327 148.043 624.771 148.259C625.664 148.693 626.875 149.254 628.309 149.901C630.462 150.874 633.144 152.052 636.063 153.305L639.052 154.577C650.92 159.592 657.8 163.118 662.548 167.414C666.927 171.376 669.613 176.107 672.59 183.748L673.19 185.316C674.058 187.624 674.757 189.486 675.451 190.91C676.153 192.35 676.953 193.571 678.146 194.443C679.351 195.325 680.736 195.69 682.277 195.869C683.786 196.044 685.677 196.061 687.987 196.084H687.988C697.29 196.177 703.645 198.212 707.933 202.256C712.235 206.313 714.809 212.721 715.787 222.359C716.117 225.606 716.383 227.817 717.26 229.665C718.163 231.569 719.639 232.938 721.734 234.788C727.28 239.683 730.958 247.171 731.791 255.456L731.863 256.26C732.104 259.361 732.371 261.545 733.057 263.41C733.768 265.347 734.875 266.798 736.454 268.561V268.562C739.462 271.921 741.737 277.206 743.124 284.29C744.505 291.345 744.973 300.012 744.509 309.951C743.58 329.827 738.937 354.571 730.681 381.244C728.539 388.163 722.604 395.072 716.007 401.612C712.722 404.869 709.409 407.908 706.37 410.821C703.406 413.663 700.708 416.381 698.829 418.863C696.498 421.716 694.845 423.646 693.642 424.697C693.489 424.83 693.353 424.94 693.232 425.031C693.194 424.908 693.154 424.76 693.112 424.584C692.932 423.821 692.779 422.754 692.657 421.318C692.413 418.449 692.308 414.392 692.215 408.93L692.183 407.064L691.733 407.04C691.664 406.387 691.605 405.512 691.564 404.453C691.466 401.865 691.472 398.39 691.563 394.895C691.655 391.399 691.831 387.928 692.064 385.349C692.182 384.049 692.31 383.028 692.438 382.358C692.461 382.243 692.484 382.145 692.503 382.062C692.524 382.038 692.544 382.017 692.561 381.996C692.767 381.739 692.871 381.485 692.918 381.362C693.018 381.096 693.071 380.825 693.102 380.638C693.169 380.229 693.215 379.701 693.248 379.117C693.316 377.928 693.347 376.255 693.351 374.262C693.357 370.264 693.248 364.855 693.062 359.172C692.717 348.567 692.098 336.814 691.435 331.482L691.301 330.504C688.97 315.016 684.609 305.117 672.4 287.148C665.158 276.49 660.986 270.44 658.39 267.098C657.107 265.447 656.103 264.315 655.223 263.617C654.246 262.843 653.229 262.459 652.067 262.632H652.066C643.383 263.93 634.503 262.759 627.588 260.002C620.556 257.198 616.097 253.001 615.222 248.628C615.073 247.885 614.913 247.203 614.709 246.625C614.511 246.064 614.207 245.411 613.663 244.891C612.516 243.796 611.103 243.961 610.151 244.197L609.773 244.3C597.969 247.702 593.915 248.374 585.748 248.383H585.747C573.331 248.398 566.223 246.126 560.918 241.08H560.917C559.686 239.91 558.552 238.854 557.715 238.094C557.299 237.716 556.944 237.401 556.683 237.179C556.557 237.072 556.428 236.965 556.314 236.879C556.267 236.843 556.169 236.77 556.051 236.7C556.007 236.674 555.856 236.584 555.648 236.515C555.553 236.482 555.315 236.408 555.001 236.408C554.684 236.409 554.006 236.495 553.48 237.108L553.478 237.111C550.286 240.852 545.121 244.107 538.626 246.676C532.158 249.233 524.515 251.053 516.532 252.011C500.501 253.934 483.48 252.342 472.11 246.672C471.353 246.294 470.631 245.944 469.967 245.721C469.261 245.484 468.491 245.344 467.641 245.485C466.817 245.623 466.119 245.993 465.498 246.411C464.889 246.822 464.217 247.376 463.465 248.009C458.126 252.5 450.018 256.01 441.347 257.917C432.68 259.823 423.71 260.069 416.716 258.274C414.822 257.788 413.057 257.376 411.733 257.103C411.077 256.967 410.502 256.86 410.064 256.797C409.853 256.766 409.625 256.739 409.418 256.729C409.321 256.725 409.161 256.721 408.981 256.74C408.893 256.75 408.741 256.772 408.562 256.827C408.418 256.872 408.048 257.001 407.708 257.346C407.439 257.619 407.232 257.971 407.12 258.164C406.973 258.419 406.81 258.728 406.639 259.071C406.294 259.762 405.872 260.672 405.4 261.73C404.455 263.852 403.278 266.641 402.064 269.615C400.091 274.454 397.996 279.852 396.627 283.728L388.478 278.839L388.262 278.709L388.02 278.637C383.814 277.384 379.599 274.363 375.803 270.239C372.022 266.132 368.765 261.047 366.448 255.871C364.124 250.679 362.8 245.518 362.762 241.263C362.724 237.111 363.891 234.2 366.071 232.634L366.285 232.486C367.072 231.968 367.235 231.155 367.278 230.904C367.339 230.55 367.33 230.202 367.31 229.929C367.267 229.364 367.137 228.698 366.966 228.009C366.617 226.608 366.021 224.818 365.271 222.959C361.343 213.24 359.916 204.802 360.539 199.375C360.854 196.634 361.65 194.998 362.539 194.208C363.283 193.547 364.42 193.193 366.389 193.888C372.431 196.022 377.15 196.739 382.435 194.667C387.172 192.809 392.185 188.765 399.129 182.203L400.544 180.857C417.353 164.771 431.111 158.032 449.57 156.657L450.453 156.596C452.839 156.441 454.703 156.322 456.109 156.161C457.449 156.008 458.686 155.791 459.625 155.287C460.146 155.007 460.627 154.615 460.984 154.063C461.337 153.52 461.49 152.947 461.55 152.429C461.656 151.514 461.494 150.42 461.366 149.47C461.063 147.21 461.241 143.608 461.736 140.243C461.981 138.581 462.294 137.041 462.638 135.817C462.964 134.656 463.257 134.012 463.416 133.761L463.476 133.677C463.771 133.321 464.053 133.152 464.342 133.07Z" fill="#554845" stroke="black" style="fill:#554845;fill:color(display-p3 0.3333 0.2824 0.2706);fill-opacity:1;stroke:black;stroke-opacity:1;" stroke-width="4"/>
<path d="M449 220.5L449.97 222.249L450.724 221.831L450.938 220.995L449 220.5ZM476.593 228.91C477.648 228.583 478.238 227.462 477.91 226.407C477.583 225.352 476.462 224.762 475.407 225.09L476 227L476.593 228.91ZM469.686 245.509L470.428 243.652C464.104 241.122 457.728 235.918 453.666 230.948C451.627 228.451 450.299 226.169 449.791 224.456C449.537 223.601 449.534 223.046 449.605 222.733C449.659 222.5 449.75 222.371 449.97 222.249L449 220.5L448.031 218.75C446.785 219.441 446.004 220.536 445.706 221.843C445.426 223.07 445.593 224.371 445.956 225.595C446.682 228.038 448.38 230.8 450.569 233.479C454.966 238.859 461.865 244.535 468.943 247.366L469.686 245.509ZM449 220.5L450.938 220.995C450.88 221.221 450.67 221.679 450.131 221.936C449.905 222.043 449.706 222.071 449.581 222.077C449.46 222.082 449.386 222.066 449.377 222.064C449.372 222.063 449.463 222.085 449.69 222.19C449.904 222.29 450.173 222.432 450.509 222.624C451.741 223.33 453.999 224.809 456.414 226.086C461.425 228.736 468.582 231.396 476.593 228.91L476 227L475.407 225.09C468.918 227.104 462.957 225.021 458.284 222.55C455.857 221.266 454.132 220.09 452.496 219.153C451.804 218.757 450.968 218.31 450.193 218.148C449.793 218.065 449.111 217.99 448.41 218.325C447.608 218.707 447.216 219.405 447.063 220.004L449 220.5Z" fill="black" style="fill:black;fill-opacity:1;"/>
<path d="M674.191 479.93C681.558 462.296 689.993 431.352 690.231 421.084L691.362 420.68C691.931 422.726 693.176 425 694.128 425.73C695.697 426.934 695.7 427.059 694.161 427.059C693.029 427.059 692.634 427.718 692.98 429.037C693.56 431.258 691.548 446.025 686.8 474.372C683.442 494.434 683.418 499.338 686.671 502.33C687.754 503.327 688.049 503.749 687.326 503.269C683.944 501.021 680.061 502.943 679.118 507.332C671.859 541.133 656.659 567.532 629.801 592.981C613.962 607.99 590.123 624.108 586.802 622.056C586.081 621.611 585.866 621.766 586.278 622.433C587.758 624.827 562.948 632.479 547.645 634.349C458.968 645.187 397.873 601.814 385.981 519.581C383.372 501.541 381.906 479.686 384.234 493.51C388.656 519.794 400.005 537.895 415.242 542.963C421.249 544.962 421.961 545.51 422.54 548.582C427.317 573.975 453.185 592.85 489.903 597.736C547.173 605.356 591.673 586.447 601.078 550.495C601.532 548.755 602.497 548.266 605.471 548.266C625.864 548.266 659.698 514.622 674.191 479.93Z" fill="#A78570" style="fill:#A78570;fill:color(display-p3 0.6549 0.5216 0.4392);fill-opacity:1;"/>
<path d="M504.82 568.359C486.695 565.481 481.498 556.425 495.421 551.988C503.135 549.529 525.728 550.249 530.597 553.108C542.616 560.167 523.7 571.357 504.82 568.359Z" fill="#A78570" style="fill:#A78570;fill:color(display-p3 0.6549 0.5216 0.4392);fill-opacity:1;"/>
<path d="M501.702 491.692C501.702 491.692 508.536 490.538 512.02 489.292C515.505 488.046 515.185 487.183 517.147 487.109C517.948 488.239 518.477 489.295 524.16 489.295C561.056 489.295 595.621 506.908 595.554 525.676C595.526 533.307 594.476 533.735 587.923 528.789C549.427 499.734 461.854 498.069 432.122 525.828C423.408 533.962 421.58 534.023 422.732 526.144C424.826 511.815 443.703 496.307 465.571 490.949C469.793 489.915 473.015 488.696 472.733 488.239C472.45 487.783 473.951 488.292 476.068 489.371C480.007 491.378 484.013 492.111 494.843 492.804C496.807 492.704 500.883 491.544 501.702 491.692Z" fill="#A78570" style="fill:#A78570;fill:color(display-p3 0.6549 0.5216 0.4392);fill-opacity:1;"/>
</svg>
