<svg width="904" height="961" viewBox="0 0 904 961" fill="none" xmlns="http://www.w3.org/2000/svg">
<path d="M300 95.5L903 0V881L300 817.531V95.5Z" fill="#606060"/>
<path d="M694.687 645.524L670.656 662.977L728.066 742.025L752.098 724.572L694.687 645.524Z" fill="#0C0C0C"/>
<path d="M378.542 632.002L351.453 644.18L374.529 695.512L401.618 683.335L378.542 632.002Z" fill="#0C0C0C"/>
<path d="M564.004 912.507L569.004 881.007L589.006 855.015L629.506 826.515H701.506L773.006 740.015L753.506 716.515L848.506 631.015L872.506 665.015L894.506 705.015L902.006 727.515L898.506 756.015L875.001 787.5L835.001 826.515L763.501 877.5L743.501 899.5L698.501 917L656.501 958L639.004 947.007L617.004 956.507L606.504 944.507L586.504 940.507L581.504 926.007L572.504 923.007L564.004 912.507Z" fill="#EFBDA2"/>
<path d="M4 384.494H20.0234L36.0234 394.991L16.0234 352.991L20.0234 336.991L30.0234 332.991L47.5234 338.491L43.5234 313.491L54.0234 299.991L64.5234 302.991L94.0234 338.491L90.0234 293.991L109.523 289.991L157.023 399.991L175.499 353L202.023 344.491L210.023 354.991L198.023 403.991L194.523 456.991L177.523 491.991L202.023 558.991L226.523 604.991L257.023 600.991L322.139 705.032L226.522 735C191.884 735.003 177.442 730.938 161.499 715.5L135 659.994L100 518.994L73.5 501.994L43.5234 456.991L8 412.494L4 384.494Z" fill="#EFBDA2"/>
<path fill-rule="evenodd" clip-rule="evenodd" d="M91.6122 288.637C95.2382 286.264 102.342 286.498 107.519 289.163C117.85 294.482 125.087 307.863 136.83 343.363C141.998 358.989 147.13 372.318 151.006 380.185C154.346 386.965 157.283 392.309 157.533 392.062C157.784 391.812 159.089 386.717 160.435 380.74C164.618 362.166 172.091 350.538 183.403 344.998C191.33 341.117 198.463 340.503 204.076 343.22C210.735 346.444 212.411 350.041 212.295 360.873C212.211 368.792 211.686 371.314 207.926 381.873C200.745 402.041 200.014 405.515 199.931 419.873C199.836 436.324 198.432 449.799 195.817 459.354C193.312 468.508 187.024 482.153 182.928 487.325C181.258 489.434 179.891 492.115 179.891 493.282C179.892 498.555 195.076 536.111 208.819 564.83C214.219 576.116 227.194 600.899 228.359 602.153C228.53 602.289 237.136 596.57 247.506 589.427C257.893 582.271 281.966 565.983 301.002 553.23L335.612 530.044L335.536 529.973L341.613 525.766C360.302 542.302 380.982 552.235 406.391 556.998C411.041 557.87 415.389 558.366 421.631 558.627C422.164 561.636 422.81 563.622 425.002 567.498C425.009 567.499 425.015 567.499 425.022 567.5C426.072 570.111 433.303 578.475 438.057 582.431C451.313 593.462 465.656 597.814 486.391 597.098C501.627 596.571 510.789 592.617 525.5 585.5C561.449 562.653 580.883 527.089 576 492C575.431 487.91 574.011 486.448 573.5 485C572.652 480.351 572.168 474.397 571 471.555L588.904 471.145C588.895 471.192 588.891 471.23 588.891 471.258C588.9 471.653 595.572 471.787 603.725 471.555C639.23 470.548 675.507 476.313 707.391 488.034C719.801 492.596 742.059 504.025 754.796 512.374C794.942 538.688 826.582 569.643 853.239 608.685C858.721 616.716 859.232 620.625 855.391 625.19C854.016 626.824 852.891 628.434 852.891 628.767C852.898 629.112 858.937 638.53 866.317 649.706C896.199 694.957 903.314 710.972 903.26 732.872C903.237 742.022 902.789 745.216 900.594 751.872C892.261 777.139 863.226 807.808 808.891 848.742C799.266 855.992 784.755 866.361 776.644 871.783C763.99 880.242 761.58 882.276 759.664 886.111C754.598 896.255 740.116 906.015 722.891 910.896C703.809 916.304 697.142 920.872 680.605 939.872C674.86 946.472 669.087 952.837 667.776 954.017C664.02 957.395 657.709 960.371 654.304 960.372C650.204 960.372 644.934 956.726 642.333 952.091L640.244 948.367L638.124 950.625C636.958 951.867 633.446 954.432 630.319 956.326C625.792 959.07 623.555 959.781 619.331 959.822C614.781 959.865 613.586 959.451 610.936 956.914C609.237 955.286 607.33 952.23 606.698 950.122C605.827 947.217 605.168 946.453 603.97 946.962C603.102 947.332 600.102 947.849 597.305 948.113C587.902 949 582.488 943.983 580.536 932.572L579.391 925.872L575.278 926.174C570.589 926.516 566.092 923.491 563.129 918.004C560.548 913.221 560.871 898.806 563.756 889.979C569.983 870.935 584.747 851.402 599.412 842.806C601.921 841.337 603.833 839.991 603.667 839.814C584.928 853.342 542.953 853.372 499.953 834C486.332 827.864 490.412 832.333 466.544 807.894C450.825 791.922 441.024 779.915 429.38 762.372C418.038 745.282 402.844 719.227 394.385 702.359L388.911 691.446L382.651 694.296C374.729 697.9 344.41 711.807 322.813 721.744C313.404 726.073 304.887 729.371 303.115 729.372C300.918 729.372 298.032 727.886 293.345 724.338L286.694 719.303L279.042 722.234C250.768 733.065 219.703 738.713 200.947 736.432C166.135 732.199 149.391 713.595 130.975 658.683C120.764 628.237 110.554 582.079 101.372 524.856C100.961 522.293 100.144 521.578 95.9372 520.083C84.3712 515.975 67.9882 501.952 57.5961 487.266C55.0252 483.634 49.7333 474.633 45.8364 467.266C37.9305 452.321 34.1977 447.007 23.6323 435.661C14.0878 425.412 9.75966 419.995 6.02576 413.63C-0.564244 402.393 -1.96624 389.042 2.89976 383.863C7.54986 378.912 16.8928 378.739 24.5297 383.459L27.7338 385.438L23.2953 377.655C12.9384 359.499 10.6332 345.863 16.2221 335.822C20.7142 327.754 30.0771 326.3 38.644 332.339C41.1554 334.108 42.9101 334.867 42.5971 334.049C42.2861 333.239 41.4886 329.815 40.8246 326.443C38.3748 313.988 41.5425 302.542 48.7895 297.661C58.5212 291.106 68.9151 298.788 82.9042 322.873C85.7772 327.82 87.8072 330.969 87.4152 329.873C87.0212 328.773 86.0342 324.272 85.2212 319.873C82.5472 305.39 85.1032 292.899 91.6122 288.637ZM848.066 635.382C847.694 635.388 844.465 639.094 840.891 643.618C831.971 654.907 808.553 678.187 796.068 688.178C790.39 692.719 779.512 700.552 771.895 705.581L758.046 714.726L763.916 721.8C767.145 725.689 771.096 730.43 772.696 732.333L775.606 735.794L780.297 731.664C786.598 726.117 799.823 719.809 807.973 718.461C815.906 717.149 815.891 717.15 815.891 718.254C815.88 719.101 802.074 726.369 800.47 726.372C798.806 726.372 783.143 737.343 778.891 741.487C776.416 743.899 766.989 754.647 757.943 765.372C739.936 786.72 724.498 804.383 710.228 819.964L700.986 830.055L694.688 829.108C691.225 828.588 682.091 828.159 674.391 828.155C621.336 828.127 581 852.994 569.32 892.932C564.466 909.529 569.024 922.85 578.239 919.001C581.264 917.737 581.872 916.792 583.851 910.276C588.067 896.398 596.955 880.883 607.8 868.474C616.275 858.777 630.89 849.218 630.891 853.372C630.891 853.921 630.493 854.371 630.01 854.372C629.525 854.372 624.875 858.579 619.676 863.719C600.732 882.448 586.891 909.178 586.891 927.035C586.891 940.465 591.623 944.864 601.723 940.823C605.428 939.34 605.686 938.933 607.719 931.339C610.223 921.985 617.203 907.529 623.632 898.388C633.64 884.155 654.094 867.175 657.331 870.412C658.054 871.135 657.997 871.689 657.145 872.216C652.93 874.821 641.873 884.855 637.138 890.372C622.172 907.812 611.08 931.578 612.11 943.998C613.121 956.193 621.876 956.636 634.467 945.129C638.335 941.595 640.176 939.026 640.977 936.053C645.664 918.646 664.675 896.787 681.088 889.933C687.552 887.234 686.235 890.02 678.129 896.191C666.039 905.394 655.645 917.047 650.796 926.833C646.224 936.059 644.964 942.719 646.904 947.403C648.212 950.56 652.351 953.372 655.691 953.372C659.528 953.371 666.627 947.173 675.964 935.668C690.939 917.218 701.495 909.767 718.891 905.372C734.81 901.35 747.695 893.077 755.196 882.059C758.185 877.67 761.387 874.751 768.272 870.138C802.467 847.226 843.291 814.137 864.664 792.009C888.25 767.59 896.891 751.585 896.891 732.322C896.891 713.356 889.355 696.878 861.122 654.122C854.319 643.818 848.446 635.39 848.066 635.382ZM107.358 297.449C101.894 292.412 98.0692 292.041 93.9612 296.148C88.3622 301.747 89.0562 312.702 96.6072 337.873C99.0812 346.121 101.514 353.639 102.011 354.579C102.509 355.521 104.45 361.595 106.326 368.079C108.54 375.733 110.204 379.835 111.065 379.766C111.794 379.707 113.967 379.311 115.891 378.886C118.734 378.257 117.516 379.384 109.391 384.901C95.9292 394.043 88.6702 399.91 80.7492 408.049C74.7826 414.18 62.6111 429.849 61.5717 432.738C61.3478 433.361 60.8615 433.594 60.4926 433.255C58.5399 431.457 67.8618 413.905 75.5287 404.942C77.377 402.782 78.8899 400.592 78.8911 400.076C78.8902 399.56 77.3693 397.055 75.5112 394.507C73.6523 391.958 67.9653 383.122 62.8725 374.873C47.9603 350.716 39.7108 339.951 33.6909 336.791C26.0259 332.767 19.8911 337.437 19.8911 347.293C19.8914 357.869 24.7361 368.535 40.8256 393.373C61.1237 424.708 61.5923 427.127 43.8383 408.935C28.2502 392.963 20.554 387.239 13.7973 386.59C8.92526 386.122 8.88456 386.142 7.32456 389.877C6.00086 393.045 5.94446 394.439 6.96036 398.754C9.30546 408.716 14.0647 415.962 28.6352 431.75C39.7915 443.84 44.1731 449.912 50.4369 461.97C65.6908 491.329 80.5652 506.775 101.841 515.352C109.552 518.461 111.25 519.753 108.732 520.593C106.352 521.389 118.359 587.329 127.274 622.417C136.971 660.583 149.505 692.679 160.344 707.097C169.152 718.815 180.294 725.858 194.985 728.996C216.489 733.588 260.22 725.166 288.999 710.887C294.165 708.324 298.714 705.914 299.108 705.532C299.501 705.148 297.818 698.844 295.365 691.52C287.071 666.743 275.022 640.49 264.665 624.625C258.383 615 247.33 603.371 244.477 603.383C242.305 603.393 231.891 607.883 231.891 608.809C231.893 609.106 233.457 612.612 235.368 616.605C240.715 627.777 244.203 637.459 243.233 638.43C241.687 639.97 212.196 588.016 200.674 563.456C188.845 538.24 174.933 503.463 173.399 495.272C172.829 492.231 173.261 490.832 176.174 486.272C188.057 467.669 191.331 456.115 193.43 425.373C195.052 401.613 195.928 396.761 201.421 381.131C209.405 358.412 207.711 348.338 195.918 348.394C190.111 348.422 184.457 351.037 179.281 356.088C171.874 363.316 167.174 376.093 164.712 395.692L163.479 405.512L158.18 408.107C143.869 415.114 132.994 433.808 130.974 454.873L130.303 461.873L129.097 456.573C127.477 449.453 127.579 442.992 129.422 435.915C132.584 423.774 141.082 411.667 150.832 405.41L155.779 402.235L152.155 396.573C145.659 386.416 138.862 370.528 130.944 346.988C119.06 311.659 116.154 305.557 107.358 297.449ZM685.696 659.372C684.019 659.373 695.796 673.622 714.02 693.642C724.431 705.08 725.421 705.521 733.108 712.738C735.705 715.177 738.446 719.765 739.825 718.912C740.429 718.539 740.338 717.287 740.338 717.287C740.338 717.287 738.679 714.859 732.161 707.485C728.46 703.298 716.697 690.759 706.024 679.622C695.355 668.49 686.21 659.382 685.696 659.372ZM378.726 664.122C373.96 651.951 372.884 649.828 372.897 652.622C372.918 656.983 385.35 689.246 386.548 688.049C387.172 687.423 383.744 676.938 378.726 664.122ZM59.6909 303.783C55.7191 301.708 53.0945 302.049 50.3657 304.994C47.3077 308.293 46.4701 312.703 47.1821 321.749C48.1193 333.649 52.5596 343.484 72.309 377.388C77.5786 386.435 81.8912 394.633 81.8912 395.605C81.8912 398.214 82.8412 397.839 88.8982 392.833C91.9192 390.337 96.7532 386.712 99.6412 384.779C102.526 382.848 104.887 381.05 104.891 380.782C104.889 380.513 102.588 375.476 99.7772 369.587C78.5446 325.105 68.2927 308.278 59.6909 303.783Z" fill="black"/>
<path d="M296.268 132.07L574.749 110.555L626.463 234.768L596.861 415.577L563.671 491.547L501.911 544.003L444.68 560.866L382.868 557.272L341.275 536.219L312.01 505.734L287.947 455.142L276.891 352.662C276.891 352.662 277.486 239.143 282.978 210.555C287.121 188.987 298.498 150.693 297.068 152.57L296.268 132.07Z" fill="#EFBDA2"/>
<path d="M379.881 382.993C369.142 376.741 364.233 360.316 368.084 343.524C369.903 335.592 388.63 290.623 397.341 268.401C400.175 260.922 404.363 258.035 403.337 267.436C403.705 268.395 399.522 278.296 394.043 289.439C361.123 356.376 367.449 390.628 410.381 377.915C418.628 375.474 421.787 376.109 419.802 379.806C416.369 386.2 389.122 388.375 379.881 382.993Z" fill="black"/>
<path d="M561.872 449.247C561.953 449.255 562.135 449.335 562.423 449.634C562.977 450.211 563.676 451.336 564.473 452.925C566.055 456.083 567.948 460.92 569.796 466.4C573.493 477.369 576.975 490.822 577.421 498.433C579.533 534.462 556.479 567.059 527.01 584.83C497.532 602.606 461.808 605.459 438.557 582.278L438.548 582.27L437.44 581.229C431.927 576.02 426.769 570.739 422.595 565.669C418.136 560.254 414.823 555.108 413.38 550.565C411.941 546.039 412.372 542.175 415.305 539.2C418.274 536.188 423.879 534.006 432.999 533.083C458.144 530.538 485.075 519.671 508.328 504.432C531.579 489.194 551.193 469.559 561.676 449.444C561.735 449.331 561.785 449.282 561.813 449.263C561.833 449.249 561.848 449.245 561.872 449.247Z" fill="#EFBDA2" stroke="black" stroke-width="0.805962"/>
<path d="M354.338 24.9032C354.338 17.777 356.993 7.81876 360.188 2.95721C363.137 -1.52998 364.886 -1.12408 371.776 5.64741C378.877 12.6278 380.899 12.859 393.378 8.12482C416.717 -0.732634 429.14 1.67647 470.28 23.0379C470.642 23.227 470.983 19.6856 471.037 15.1709C471.207 0.900143 473.729 -1.22917 482.955 5.09965C486.203 7.32748 495.203 11.795 502.955 15.0277C510.709 18.2604 519.012 22.054 521.409 23.4569C527.149 26.8184 526.933 26.9773 526.933 19.3993C526.933 10.886 528.988 10.0702 537.198 15.3232C540.673 17.5471 549.278 22.0501 556.32 25.3314C575.614 34.3202 583.925 43.1199 587.958 58.8342C589.792 65.9814 589.791 65.9814 601.511 66.03C620.856 66.1114 623.446 68.665 626.786 90.9433C628.769 104.17 628.769 104.17 634.235 107.563C640.66 111.551 648.144 122.142 648.144 127.247C648.144 129.217 650.221 133.908 652.76 137.669C666.586 158.151 665.409 206.701 649.545 270.345C647.256 279.528 647.256 279.528 651.706 279.528C629.009 280.968 620.714 295.203 607.15 312.688C606.813 310.064 606.713 306.071 606.691 300.594L605.844 270.932C608.516 272.538 607.072 219.001 604.155 208.355C601.73 199.499 594.747 187.761 581.311 169.954C575.905 162.789 569.908 154.075 567.983 150.588C565.564 146.209 563.871 144.478 562.506 144.989C548.392 150.276 530.304 144.233 524.975 132.447C522.949 127.969 522.003 127.114 519.775 127.752C506.795 131.468 501.32 132.408 492.635 132.408C480.024 132.408 471.568 129.619 466.407 123.759C461.745 118.465 462.65 118.573 457.763 122.724C439.442 138.285 383.33 142.734 369.612 129.715C368.928 129.065 366.677 130.047 364.342 132.015C352.056 142.367 327.167 147.586 310.045 143.4C306.722 142.587 297.259 160.585 292.291 176.562C291.223 176.266 289.664 172.14 288.462 171.027C288.462 170.206 284.679 167.328 280.054 164.631C255.971 150.589 241.737 122.569 252.75 110.882C255.515 107.946 255.54 107.636 253.585 100.154C248.212 79.5914 251.691 68.3274 262.808 70.2847C275.045 72.4389 278.075 71.082 291.572 57.3998C310.34 38.3726 324.603 31.2622 344.002 31.2622C354.338 31.2622 354.338 31.2621 354.338 24.9032Z" fill="black"/>
<path d="M394.675 11.1961C378.919 16.6751 375.945 16.5371 369.2 10.01C361.377 2.44111 358.381 7.15685 357.975 27.6881C357.844 34.3112 357.844 34.3111 350.329 33.9144C329.06 32.79 310.21 41.7184 292.627 61.2434C281.892 73.1655 278.836 74.6892 266.051 74.5027C254.017 74.328 251.827 84.432 260.028 102.289C263.697 110.279 263.69 110.308 257.867 111.699C249.875 113.608 255.499 135.947 266.813 147.226C281.456 161.825 288.981 164.623 292.627 156.825C301.643 137.541 301.542 139.551 293.86 132.091C284.309 122.816 286.857 120.402 297.272 128.86C311.313 140.262 332.239 140.808 353.009 130.315C362.619 125.46 363.271 124.149 359.153 117.947C349.982 104.129 349.464 87.6621 358.401 94.0067C366.081 99.4594 376.504 99.1192 383.576 93.187C388.649 88.931 392.256 90.8344 388.049 95.5475C381.96 102.372 369.732 105.055 362.267 101.206C357.231 98.6108 356.932 98.951 358.67 105.318C363.433 122.782 378.114 130.151 407.909 130.032C429.912 129.945 439.659 126.585 460.671 111.849C462.026 110.898 463.675 111.95 467.12 115.963C477.585 128.153 499.017 129.3 521.404 118.867C532.939 113.492 536.388 114.442 528.842 120.914C517.394 130.732 544.067 143.887 563.566 138.04C565.978 137.317 566.992 138.318 570.508 144.896C572.773 149.132 578.914 158.013 584.152 164.63C608.2 195 611.185 204.945 611.389 255.353C612.202 292.61 610.023 294.094 610.023 305.963C637.049 275.758 645.421 288.406 656.867 185.823C658.68 170.349 653.774 149.303 645.421 136.731C642.537 132.389 641.326 129.124 641.567 126.336C642.057 120.654 637.135 113.946 629.659 110.11C623.641 107.023 623.455 106.744 622.6 99.5237C619.172 70.5699 612.414 64.3921 591.292 70.8995C584.18 73.0919 584.48 73.3717 583.114 63.2506C581.019 47.7333 570.872 35.9939 553.455 28.9386C548.889 27.0878 541.978 23.5503 538.098 21.0755C534.22 18.6021 530.849 16.5779 530.611 16.5779C529.498 16.5779 531.484 27.9653 533.163 31.2006C537.293 39.1622 534.282 39.7165 525.627 32.5851C522.282 29.8292 514.315 25.2488 507.921 22.4049C501.527 19.561 491.872 15.0199 486.464 12.3127C481.057 9.60537 476.319 7.7033 475.937 8.08424C475.041 8.97616 475.266 16.8182 476.353 22.5901C477.639 29.4312 472.598 28.6023 452.494 18.6717C425.357 5.2653 415.424 3.98194 394.675 11.1961Z" fill="#554845"/>
<path d="M443.267 209.711C435.407 194.556 448.351 182.449 474.327 180.662C513.193 177.991 557.331 198.783 557.331 219.765C557.331 231.335 551.158 232.166 532.957 223.045C509.894 211.488 489.798 208.709 465.514 213.717C450.372 216.841 446.613 216.163 443.267 209.711Z" fill="black"/>
<path d="M284.435 225.302C268.924 210.518 281.095 199.65 281.095 199.65C281.095 199.65 287.62 196.007 293.449 192.438C319.771 176.319 367.299 175.71 377.752 191.356C384.598 201.604 378.54 215.033 367.85 213.308C334.241 207.882 288.582 214.448 284.435 225.302Z" fill="black"/>
<path d="M321.254 253.87C354.94 241.499 385.9 275.217 370.843 307.226L370.478 307.981C365.719 317.623 354.886 323.76 342.711 325.468C330.552 327.174 317.342 324.413 308.045 316.611C299.006 309.026 296.344 295.577 299.033 282.736C301.72 269.905 309.664 258.126 321.254 253.87Z" fill="white" stroke="black" stroke-width="2.41789"/>
<path d="M336.583 278.263C340.284 278.263 343.034 279.421 344.861 281.158C346.69 282.897 347.623 285.24 347.649 287.663C347.701 292.496 344.132 297.684 336.75 298.847C326.862 300.404 320.989 288.228 328.343 281.347C329.69 280.086 330.753 279.328 331.96 278.876C333.17 278.422 334.559 278.263 336.583 278.263Z" fill="black" stroke="black" stroke-width="0.805962"/>
<path d="M476.738 258.972C510.425 246.601 541.384 280.318 526.327 312.327L525.963 313.083C521.203 322.724 510.37 328.861 498.195 330.569C486.037 332.275 472.826 329.515 463.529 321.713C454.491 314.128 451.828 300.679 454.517 287.838C457.204 275.007 465.148 263.228 476.738 258.972Z" fill="white" stroke="black" stroke-width="2.41789"/>
<path d="M492.1 283.255C495.8 283.255 498.549 284.424 500.377 286.178C502.207 287.934 503.141 290.302 503.167 292.751C503.219 297.636 499.645 302.875 492.266 304.048C482.39 305.618 476.498 293.328 483.862 286.369C485.209 285.096 486.272 284.331 487.478 283.874C488.688 283.416 490.077 283.255 492.1 283.255Z" fill="black" stroke="black" stroke-width="0.805962"/>
<path d="M477.746 415.714C474.307 414.152 473.251 411.954 475.069 410.142C479.882 405.342 502.468 419.441 500.046 425.732C498.987 428.482 495.605 428.107 493.969 425.059C491.063 419.646 487.828 419.332 481.277 423.826C447.554 446.956 350.344 451.375 350.344 429.776C350.344 426.265 352.464 426.339 363.135 430.221C397.675 442.79 432.594 440.408 469.393 422.973C481.126 417.414 481.251 417.306 477.746 415.714Z" fill="black"/>
<path d="M320.978 423.481C332.133 405.267 349.838 394.515 368.818 394.43C378.37 394.43 387.182 397.217 389.023 396.905C397.611 398.392 410.396 395.644 414.679 393.683C417.692 392.427 418.274 389.241 418.892 389.727C419.697 390.36 421.09 389.224 425.801 389.726C488.057 396.357 502.933 401.891 512.966 422.157C521.656 439.707 520.971 442.358 510.809 430.499C508.064 427.596 500.618 420.404 492.796 414.864C486.928 413.199 482.651 401.237 454.662 419.405C423.633 428.683 417.583 428.94 378.37 422.661C347.042 417.645 340.255 418.266 326.784 427.387C315.178 435.244 314.182 434.574 320.978 423.481Z" fill="#A78570"/>
<path d="M441.228 557.371C471.483 556.076 546.031 529.841 579.769 452.16C587.78 432.455 590.857 422.173 596.505 400.441C604.8 368.524 608.637 323.548 610.761 314.741L610.662 314.78C608.607 315.583 608.313 315.698 607.441 312.797C601.236 357.966 547.498 463.299 525.48 456.702C520.723 454.549 520.305 454.843 517.93 462.007C491.812 540.762 346.986 544.931 326.217 466.826C319.665 455.5 324.043 452.16 321.267 452.16C301.175 455.936 289.713 413.681 282.727 390.883C282.08 403.474 284.964 441.717 294.987 466.826C298.372 481.095 318.39 512.389 339.193 528.831C371.803 554.604 401.952 559.053 441.228 557.371Z" fill="#A78570"/>
<path d="M391.669 482.48C366.061 469.593 370.168 461.114 402.543 460.031C433.909 458.98 437.651 459.692 437.651 466.713C437.651 479.82 407.16 490.277 391.669 482.48Z" fill="#554845" fill-opacity="0.45"/>
<path fill-rule="evenodd" clip-rule="evenodd" d="M290.731 230.857C324.711 225.373 379.062 234.51 389.628 247.481C393.316 252.009 421.413 251.346 426.482 246.612C443.688 230.544 491.745 229.044 544.022 242.943C552.355 245.159 562.628 247.895 566.853 249.022C571.747 250.328 579.865 254.513 589.251 260.568C597.345 265.792 604.795 270.562 605.807 271.168L627.096 287.404C624.457 290.194 621.963 292.596 617.636 296.547L613.803 294.789C603.484 286.948 606.604 288.4 591.454 278.861C571.744 266.45 569.221 268.136 565.588 296.154C558.574 350.269 546.175 363.177 501.203 363.177C442.474 363.177 422.044 342.812 420.857 283.087C420.545 267.362 420.545 267.361 416.737 265.74C404.026 260.33 398.466 262.665 395.556 274.581C395.556 276.709 394.503 278.899 395.023 281.455C390.315 295.628 372.806 336.199 367.37 349.463C367.057 349.464 362.045 350.98 357.881 352.261C341.537 357.997 298.275 355.844 284.211 348.593C277.962 345.372 273.931 343.91 269.612 338.601C259.545 326.224 254.931 310.287 253.353 282.438C252.564 268.508 251.986 265.473 249.403 261.679C239.449 247.054 243.184 238.869 261.141 235.957C271.19 235.957 282.537 232.178 290.731 230.857ZM511.558 248.188C494.737 245.47 478.401 244.867 464.802 246.157C451.595 247.411 441.08 250.441 435.17 254.957L434.612 255.399C431.167 258.23 428.949 264.105 427.925 271.775C426.907 279.402 427.092 288.642 428.297 298.002C429.503 307.36 431.726 316.814 434.768 324.867C437.817 332.937 441.663 339.525 446.064 343.239C450.407 346.902 457.077 349.982 464.968 352.344C472.848 354.703 481.894 356.332 490.944 357.125C499.995 357.917 509.034 357.872 516.897 356.893C524.779 355.913 531.41 354.002 535.705 351.116C539.731 348.411 543.516 343.75 546.848 337.75C550.174 331.758 553.024 324.476 555.201 316.585C559.557 300.794 561.199 282.643 558.637 267.629C557.976 263.757 554.016 260.114 546.124 256.803C538.287 253.516 526.803 250.651 511.558 248.188ZM319.47 242.633C311.688 242.567 304.069 242.752 297.759 243.196C291.418 243.643 286.48 244.347 284.001 245.286L283.992 245.289L283.982 245.292C280.392 246.522 276.604 247.446 273.878 247.602C271.456 247.741 269.616 247.921 268.187 248.271C266.772 248.618 265.805 249.122 265.089 249.876C264.367 250.638 263.838 251.72 263.416 253.334C262.993 254.952 262.69 257.046 262.381 259.788C262.159 261.751 261.784 263.747 261.358 265.382C261.145 266.199 260.917 266.937 260.685 267.541C260.459 268.126 260.206 268.65 259.925 268.986C259.812 269.124 259.672 269.404 259.543 269.881C259.417 270.347 259.315 270.948 259.24 271.674C259.091 273.127 259.054 275.03 259.119 277.258C259.25 281.713 259.784 287.415 260.584 293.343C261.385 299.27 262.45 305.411 263.642 310.741C264.838 316.087 266.151 320.568 267.43 323.208C270.751 330.057 274.309 334.136 277.631 336.801C280.963 339.473 284.075 340.743 286.629 341.975C301.824 349.309 321.545 351.228 338.35 348.777C346.748 347.552 354.384 345.239 360.341 341.995C366.304 338.746 370.521 334.598 372.212 329.733C374.259 323.844 377.133 316.321 378.601 313.012C386.824 294.477 389.18 279.664 385.874 268.543C382.585 257.484 373.64 249.907 358.824 245.94C351.207 243.902 335.061 242.764 319.47 242.633Z" fill="black"/>
<path d="M290.796 231.255C307.73 228.522 329.767 229.43 348.894 232.646C358.456 234.253 367.278 236.434 374.36 239.019C381.462 241.61 386.749 244.584 389.317 247.736C389.849 248.389 390.776 248.904 391.928 249.317C393.091 249.735 394.539 250.068 396.17 250.32C399.432 250.826 403.473 251.02 407.549 250.924C411.625 250.828 415.75 250.441 419.182 249.778C420.897 249.447 422.447 249.046 423.734 248.574C425.014 248.105 426.067 247.554 426.759 246.908C435.249 238.979 451.435 234.589 472.114 233.943C492.768 233.299 517.812 236.392 543.921 243.334C552.254 245.55 562.526 248.285 566.75 249.412C571.579 250.7 579.65 254.854 589.033 260.907C597.079 266.1 604.502 270.852 605.584 271.504L628.31 287.16C626.248 289.368 621.812 293.421 617.533 297.599L614.074 294.491L614.061 294.479L614.049 294.47L612.266 293.105C604.059 286.776 605.893 287.475 591.67 278.521C586.745 275.419 582.859 273.177 579.751 272.011C576.646 270.846 574.207 270.717 572.269 272.013C570.364 273.287 569.062 275.868 568.004 279.782C566.941 283.716 566.099 289.1 565.191 296.103C561.683 323.165 556.838 339.795 547.342 349.681C537.866 359.544 523.675 362.774 501.205 362.774C471.867 362.774 452.217 357.684 439.738 345.244C427.257 332.803 421.855 312.918 421.262 283.079C421.184 279.152 421.139 276.197 421.056 273.956C420.973 271.72 420.851 270.164 420.613 269.042C420.373 267.909 420.004 267.177 419.401 266.628C418.821 266.099 418.05 265.77 417.116 265.372C410.724 262.651 404.221 261.847 399.726 264.153C397.463 265.315 395.734 267.255 394.804 270.078C393.882 272.874 393.748 276.517 394.615 281.113C394.579 281.28 394.487 281.598 394.326 282.073C394.148 282.599 393.898 283.29 393.585 284.127C392.959 285.801 392.084 288.051 391.026 290.719C388.91 296.055 386.066 303.057 383.038 310.454C377.033 325.124 370.314 341.317 367.091 349.179C367.058 349.185 367.022 349.191 366.984 349.199C366.813 349.235 366.583 349.286 366.305 349.353C365.747 349.485 364.988 349.678 364.099 349.92C362.543 350.343 360.583 350.919 358.6 351.589L357.749 351.882C349.656 354.722 334.821 355.623 320.213 354.896C312.919 354.532 305.699 353.765 299.431 352.637C293.153 351.507 287.859 350.021 284.397 348.236C278.114 344.997 274.178 343.576 269.926 338.348C259.939 326.07 255.333 310.237 253.756 282.416C252.968 268.509 252.395 265.355 249.737 261.453C244.769 254.153 243.335 248.621 245.173 244.594C247.013 240.562 252.229 237.815 261.181 236.359C266.239 236.355 271.609 235.405 276.719 234.297C281.861 233.181 286.712 231.913 290.796 231.255ZM511.849 247.15C494.95 244.42 478.524 243.81 464.823 245.11C451.144 246.409 440.108 249.618 434.058 254.589C430.281 257.693 428.023 263.929 426.993 271.645C425.96 279.386 426.151 288.721 427.365 298.146C428.579 307.573 430.819 317.108 433.895 325.25C436.967 333.381 440.891 340.171 445.5 344.059C450.004 347.857 456.832 350.989 464.784 353.369C472.744 355.752 481.862 357.392 490.973 358.19C500.083 358.988 509.198 358.945 517.15 357.955C525.092 356.967 531.919 355.03 536.419 352.007C540.64 349.171 544.524 344.348 547.897 338.273C551.273 332.193 554.152 324.829 556.347 316.875C560.734 300.972 562.4 282.662 559.807 267.46C559.044 262.993 554.576 259.158 546.657 255.836C538.704 252.499 527.122 249.618 511.849 247.15ZM464.899 245.913C478.523 244.62 494.88 245.225 511.721 247.946C526.973 250.411 538.48 253.28 546.346 256.579C554.245 259.893 558.326 263.581 559.012 267.596C561.581 282.655 559.933 300.844 555.569 316.661C553.388 324.567 550.532 331.869 547.193 337.882C543.852 343.9 540.042 348.6 535.97 351.337C531.626 354.256 524.947 356.173 517.051 357.155C509.165 358.137 500.108 358.182 491.043 357.388C481.978 356.594 472.914 354.962 465.016 352.598C457.109 350.231 450.401 347.139 446.019 343.443C441.568 339.688 437.704 333.051 434.649 324.966C431.599 316.891 429.372 307.419 428.164 298.044C426.956 288.668 426.77 279.405 427.792 271.751C428.817 264.07 431.045 258.109 434.57 255.212C440.425 250.401 451.255 247.208 464.899 245.913ZM319.396 241.73C311.595 241.665 303.948 241.85 297.602 242.297C291.283 242.742 286.2 243.45 283.552 244.449C280.001 245.666 276.32 246.554 273.735 246.702C271.31 246.841 269.385 247.025 267.852 247.4C266.312 247.778 265.137 248.356 264.236 249.306C263.34 250.25 262.75 251.524 262.306 253.225C261.861 254.923 261.553 257.084 261.243 259.827C261.027 261.744 260.662 263.688 260.249 265.273C260.042 266.066 259.825 266.763 259.611 267.319C259.447 267.745 259.292 268.067 259.156 268.284L259.027 268.467C258.768 268.778 258.579 269.231 258.435 269.764C258.289 270.304 258.18 270.965 258.101 271.725C257.945 273.244 257.91 275.196 257.975 277.447C258.107 281.952 258.645 287.693 259.449 293.644C260.253 299.595 261.324 305.766 262.524 311.131C263.722 316.486 265.055 321.07 266.392 323.828C269.774 330.804 273.426 335.013 276.884 337.786C280.335 340.554 283.584 341.881 286.085 343.088C301.511 350.533 321.454 352.46 338.422 349.984C346.908 348.746 354.672 346.404 360.767 343.084C366.858 339.766 371.325 335.448 373.135 330.239C375.178 324.36 378.039 316.87 379.489 313.601C387.748 294.984 390.223 279.884 386.809 268.4C383.384 256.88 374.068 249.104 359.017 245.074C351.255 242.996 334.983 241.862 319.396 241.73ZM319.39 242.536C334.98 242.668 351.157 243.805 358.808 245.854C373.682 249.836 382.716 257.46 386.037 268.631C389.369 279.838 386.985 294.719 378.753 313.274C377.289 316.573 374.419 324.087 372.373 329.975C370.653 334.922 366.377 339.11 360.382 342.376C354.391 345.639 346.725 347.958 338.306 349.187C321.461 351.644 301.687 349.723 286.435 342.362C283.894 341.136 280.749 339.854 277.388 337.158C274.033 334.468 270.453 330.357 267.117 323.477C265.824 320.809 264.507 316.304 263.31 310.955C262.116 305.617 261.049 299.469 260.248 293.536C259.447 287.602 258.912 281.891 258.781 277.424C258.716 275.19 258.752 273.277 258.903 271.808C258.979 271.073 259.082 270.458 259.213 269.974C259.329 269.543 259.46 269.245 259.591 269.057L259.646 268.982C259.899 268.679 260.139 268.19 260.363 267.608C260.591 267.016 260.818 266.288 261.029 265.477C261.452 263.853 261.824 261.871 262.044 259.918C262.354 257.175 262.658 255.066 263.086 253.429C263.513 251.794 264.056 250.666 264.821 249.86C265.582 249.059 266.598 248.537 268.044 248.183C269.498 247.826 271.358 247.646 273.781 247.507C276.305 247.362 279.769 246.549 283.143 245.437L283.816 245.211L283.828 245.206C286.348 244.253 291.321 243.548 297.659 243.102C303.978 242.656 311.603 242.47 319.39 242.536Z" stroke="black" stroke-width="0.805962"/>
<path d="M284.842 187.284C286.647 179.35 289.909 169.665 289.909 168.844L293.264 172.187C292.259 175.195 292.036 178.402 291.294 181.349C286.729 199.507 282.382 225.544 279.832 256.05C277.001 289.905 279.716 310.654 279.716 348.054C279.716 361.366 283.072 408.488 288.226 437.497C318.733 609.192 547.525 592.36 591.752 415.166C596.258 397.111 601.693 386.27 601.693 395.334C601.693 395.985 603.56 397.168 605.842 397.961C634.513 407.926 672.839 363.57 672.839 320.424C672.839 279.897 641.762 273.228 616.617 308.359C609.149 318.794 607.083 320.181 606.536 309.712C618.842 284.472 642.306 278.964 651.367 279.868C679.572 279.868 687.329 327.003 665.528 365.907C649.586 394.355 626.688 408.953 605.485 404.187C600.759 403.125 600.704 403.163 599.795 407.993C598.581 414.443 592.749 434.827 591.165 438.154C590.477 439.599 588.104 445.414 585.89 451.077C583.676 456.741 580.711 463.629 579.3 466.387L571.426 479.561C550.543 519.633 490.789 557.619 440.656 562.693C390.007 562.693 379.067 557.755 355.075 545.769C322.094 529.292 302.476 505.815 290.343 468.311C280.662 438.388 276.745 410.754 274.387 355.781C274.034 349.487 273.157 337.665 274.034 293.494C274.476 271.189 275.229 251.61 275.706 249.984C275.706 246.716 277.039 234.381 279.471 216.816C280.621 208.508 283.038 195.218 284.842 187.284Z" fill="black"/>
<path d="M619.4 362.623C609.418 362.623 628.82 322.884 646.573 306.97C650.306 303.623 653.855 300.885 654.458 300.885C658.232 300.885 655.962 304.936 646.762 314.628C635.68 326.3 625.892 343.265 622.674 356.384C621.808 359.912 620.385 362.623 619.4 362.623Z" fill="black"/>
<path fill-rule="evenodd" clip-rule="evenodd" d="M616.724 308.444C641.869 273.313 672.945 279.982 672.945 320.51C672.945 363.656 634.619 408.01 605.949 398.046C603.667 397.252 601.8 396.07 601.8 395.419C601.799 389.841 599.743 391.802 597.109 398.342C604.689 367.931 608.42 327.043 610.545 316.088C612.018 314.816 614.018 312.226 616.724 308.444ZM654.565 300.97C653.962 300.97 650.413 303.708 646.681 307.055C628.927 322.969 609.525 362.708 619.507 362.708C620.493 362.707 621.916 359.996 622.781 356.468C626 343.35 635.787 326.385 646.869 314.713C656.069 305.021 658.338 300.97 654.565 300.97Z" fill="#EFBDA2"/>
</svg>
