<svg width="788" height="549" viewBox="0 0 788 549" fill="none" xmlns="http://www.w3.org/2000/svg">
<path d="M398.926 4.25926C396.205 2.36757 391.794 2.36757 389.074 4.25926L0.424805 274.484L389.367 33.7076C392.008 32.0727 395.992 32.0728 398.633 33.7076L787.575 274.484L398.926 4.25926Z" fill="url(#paint0_linear_315_168)" style=""/>
<path d="M398.926 544.709C396.205 546.601 391.794 546.601 389.074 544.709L0.424805 274.484L389.367 515.261C392.008 516.896 395.992 516.896 398.633 515.261L787.575 274.484L398.926 544.709Z" fill="url(#paint1_linear_315_168)" style=""/>
<path d="M90.2519 284.078C91.9159 285.794 93.7619 287.172 95.7899 288.212C97.8699 289.252 100.418 289.772 103.434 289.772C106.346 289.772 108.556 289.252 110.064 288.212C111.624 287.12 112.404 285.69 112.404 283.922C112.404 282.57 111.858 281.504 110.766 280.724C109.674 279.892 108.244 279.19 106.476 278.618C104.76 277.994 102.94 277.37 101.016 276.746C99.0919 276.07 97.2459 275.238 95.4779 274.25C93.7619 273.262 92.3579 271.962 91.2659 270.35C90.1739 268.738 89.6279 266.658 89.6279 264.11C89.6279 261.458 90.3039 259.222 91.6559 257.402C93.0079 255.582 94.8279 254.204 97.1159 253.268C99.4559 252.28 102.03 251.786 104.838 251.786C106.814 251.786 108.686 251.942 110.454 252.254C112.222 252.566 113.834 253.008 115.29 253.58C116.902 254.152 117.89 254.906 118.254 255.842C118.67 256.726 118.748 257.87 118.488 259.274L118.098 260.99C117.994 261.302 117.89 261.536 117.786 261.692C117.682 261.848 117.5 261.926 117.24 261.926C116.98 261.926 116.59 261.796 116.07 261.536C114.458 260.652 112.716 259.95 110.844 259.43C108.972 258.91 106.996 258.65 104.916 258.65C102.784 258.65 100.99 259.066 99.5339 259.898C98.1299 260.73 97.4279 262.004 97.4279 263.72C97.4279 265.124 97.9739 266.268 99.0659 267.152C100.158 267.984 101.562 268.686 103.278 269.258C105.046 269.83 106.892 270.428 108.816 271.052C110.74 271.676 112.56 272.456 114.276 273.392C116.044 274.328 117.474 275.576 118.566 277.136C119.658 278.696 120.204 280.724 120.204 283.22C120.204 287.276 118.8 290.552 115.992 293.048C113.236 295.492 109.336 296.714 104.292 296.714C100.6 296.714 97.5579 296.142 95.1659 294.998C92.8259 293.802 91.0839 292.32 89.9399 290.552C88.8479 288.784 88.3019 287.042 88.3019 285.326C88.3019 284.234 88.6659 283.688 89.3939 283.688C89.7579 283.688 90.0439 283.818 90.2519 284.078ZM136.673 287.198C137.973 287.198 139.091 287.692 140.027 288.68C140.963 289.616 141.431 290.76 141.431 292.112C141.431 293.412 140.963 294.556 140.027 295.544C139.091 296.48 137.973 296.948 136.673 296.948C135.373 296.948 134.255 296.48 133.319 295.544C132.383 294.556 131.915 293.412 131.915 292.112C131.915 290.76 132.383 289.616 133.319 288.68C134.255 287.692 135.373 287.198 136.673 287.198ZM163.223 285.014L159.713 294.92C159.505 295.596 159.115 295.934 158.543 295.934H152.537C152.277 295.934 152.095 295.856 151.991 295.7C151.887 295.492 151.861 295.284 151.913 295.076L167.045 253.346C167.201 252.826 167.513 252.566 167.981 252.566H170.555C172.427 252.566 173.883 252.956 174.923 253.736C175.963 254.516 176.899 256.05 177.731 258.338L191.069 295.076C191.173 295.284 191.173 295.492 191.069 295.7C190.965 295.856 190.783 295.934 190.523 295.934H184.361C183.581 295.934 183.087 295.596 182.879 294.92L179.369 285.014H163.223ZM165.563 278.54H177.185L171.335 261.77L165.563 278.54ZM207.004 287.198C208.304 287.198 209.422 287.692 210.358 288.68C211.294 289.616 211.762 290.76 211.762 292.112C211.762 293.412 211.294 294.556 210.358 295.544C209.422 296.48 208.304 296.948 207.004 296.948C205.704 296.948 204.586 296.48 203.65 295.544C202.714 294.556 202.246 293.412 202.246 292.112C202.246 290.76 202.714 289.616 203.65 288.68C204.586 287.692 205.704 287.198 207.004 287.198ZM246.58 284.624L255.706 253.502C255.81 253.242 255.94 253.034 256.096 252.878C256.252 252.67 256.486 252.566 256.798 252.566H261.166C262.674 252.566 263.922 253.008 264.91 253.892C265.95 254.776 266.496 255.972 266.548 257.48L268.576 295.076C268.576 295.648 268.394 295.934 268.03 295.934H261.868C261.348 295.934 261.088 295.648 261.088 295.076L259.45 264.656L250.324 295.076C250.22 295.648 249.882 295.934 249.31 295.934H243.538C243.174 295.934 242.836 295.648 242.524 295.076L233.788 264.89L232.15 295.076C232.15 295.648 231.916 295.934 231.448 295.934H225.364C224.896 295.934 224.662 295.648 224.662 295.076L227.002 253.502C227.002 252.878 227.262 252.566 227.782 252.566H232.228C233.892 252.566 235.218 252.826 236.206 253.346C237.194 253.866 237.896 254.88 238.312 256.388L246.58 284.624ZM286.171 287.198C287.471 287.198 288.589 287.692 289.525 288.68C290.461 289.616 290.929 290.76 290.929 292.112C290.929 293.412 290.461 294.556 289.525 295.544C288.589 296.48 287.471 296.948 286.171 296.948C284.871 296.948 283.753 296.48 282.817 295.544C281.881 294.556 281.413 293.412 281.413 292.112C281.413 290.76 281.881 289.616 282.817 288.68C283.753 287.692 284.871 287.198 286.171 287.198ZM343.395 296.714C339.391 296.714 335.881 295.83 332.865 294.062C329.849 292.242 327.509 289.668 325.845 286.34C324.181 283.012 323.349 279.034 323.349 274.406C323.349 269.674 324.233 265.644 326.001 262.316C327.769 258.936 330.187 256.336 333.255 254.516C336.375 252.696 339.937 251.786 343.941 251.786C346.073 251.786 347.945 251.968 349.557 252.332C351.169 252.696 352.651 253.164 354.003 253.736C355.511 254.464 356.447 255.27 356.811 256.154C357.227 257.038 357.305 258.156 357.045 259.508L356.577 261.458C356.369 262.03 356.109 262.316 355.797 262.316C355.537 262.316 355.147 262.186 354.627 261.926C353.015 261.042 351.403 260.366 349.791 259.898C348.231 259.378 346.333 259.118 344.097 259.118C340.249 259.118 337.129 260.392 334.737 262.94C332.345 265.436 331.149 269.258 331.149 274.406C331.149 279.398 332.371 283.142 334.815 285.638C337.259 288.134 340.431 289.382 344.331 289.382C347.087 289.382 349.453 288.836 351.429 287.744C353.405 286.652 354.887 285.534 355.875 284.39C356.135 284.078 356.343 283.896 356.499 283.844C356.707 283.74 356.915 283.688 357.123 283.688C357.903 283.688 358.293 284.312 358.293 285.56C358.293 286.444 358.033 287.51 357.513 288.758C356.993 290.006 356.135 291.254 354.939 292.502C353.795 293.698 352.261 294.712 350.337 295.544C348.465 296.324 346.151 296.714 343.395 296.714ZM378.865 280.88V295.076C378.865 295.648 378.579 295.934 378.007 295.934H372.079C371.507 295.934 371.221 295.648 371.221 295.076V253.502C371.221 252.878 371.507 252.566 372.079 252.566H387.055C392.515 252.566 396.519 253.866 399.067 256.466C401.615 259.014 402.889 262.368 402.889 266.528C402.889 269.804 402.083 272.586 400.471 274.874C398.911 277.162 396.805 278.826 394.153 279.866L403.201 295.076C403.305 295.284 403.305 295.492 403.201 295.7C403.149 295.856 402.993 295.934 402.733 295.934H396.181C395.349 295.934 394.751 295.622 394.387 294.998L386.587 280.88H378.865ZM378.865 273.86H387.679C389.759 273.86 391.553 273.34 393.061 272.3C394.569 271.208 395.323 269.284 395.323 266.528C395.323 264.292 394.621 262.602 393.217 261.458C391.813 260.314 389.993 259.742 387.757 259.742H378.865V273.86ZM424.808 288.836H438.77C441.786 288.836 443.294 290.292 443.294 293.204V294.842C443.294 295.57 442.956 295.934 442.28 295.934H418.022C417.45 295.934 417.164 295.648 417.164 295.076V253.502C417.164 252.878 417.45 252.566 418.022 252.566H438.146C441.162 252.566 442.67 254.022 442.67 256.934V258.572C442.67 259.3 442.306 259.664 441.578 259.664H424.808V270.74H436.586C439.602 270.74 441.11 272.17 441.11 275.03V276.746C441.11 277.474 440.772 277.838 440.096 277.838H424.808V288.836ZM464.657 285.014L461.147 294.92C460.939 295.596 460.549 295.934 459.977 295.934H453.971C453.711 295.934 453.529 295.856 453.425 295.7C453.321 295.492 453.295 295.284 453.347 295.076L468.479 253.346C468.635 252.826 468.947 252.566 469.415 252.566H471.989C473.861 252.566 475.317 252.956 476.357 253.736C477.397 254.516 478.333 256.05 479.165 258.338L492.503 295.076C492.607 295.284 492.607 295.492 492.503 295.7C492.399 295.856 492.217 295.934 491.957 295.934H485.795C485.015 295.934 484.521 295.596 484.313 294.92L480.803 285.014H464.657ZM466.997 278.54H478.619L472.769 261.77L466.997 278.54ZM510.936 259.742H499.392C498.82 259.742 498.534 259.43 498.534 258.806V253.502C498.534 252.878 498.82 252.566 499.392 252.566H526.77C529.838 252.566 531.372 254.048 531.372 257.012V258.65C531.372 258.91 531.268 259.17 531.06 259.43C530.904 259.638 530.644 259.742 530.28 259.742H518.658V295.076C518.658 295.648 518.398 295.934 517.878 295.934H511.872C511.248 295.934 510.936 295.648 510.936 295.076V259.742ZM544.581 295.934C544.009 295.934 543.723 295.648 543.723 295.076V253.502C543.723 252.878 544.009 252.566 544.581 252.566H545.283C547.311 252.566 548.819 253.086 549.807 254.126C550.847 255.166 551.367 256.908 551.367 259.352V295.076C551.367 295.648 551.081 295.934 550.509 295.934H544.581ZM586.538 296.714C580.09 296.714 575.098 294.712 571.562 290.708C568.026 286.652 566.258 281.192 566.258 274.328C566.258 269.752 567.064 265.774 568.676 262.394C570.288 259.014 572.602 256.414 575.618 254.594C578.686 252.722 582.326 251.786 586.538 251.786C590.802 251.786 594.416 252.722 597.38 254.594C600.396 256.414 602.71 259.014 604.322 262.394C605.934 265.774 606.74 269.752 606.74 274.328C606.74 281.192 604.972 286.652 601.436 290.708C597.952 294.712 592.986 296.714 586.538 296.714ZM586.538 289.46C588.774 289.46 590.828 289.018 592.7 288.134C594.572 287.198 596.08 285.638 597.224 283.454C598.368 281.218 598.94 278.176 598.94 274.328C598.94 270.48 598.368 267.438 597.224 265.202C596.08 262.966 594.546 261.38 592.622 260.444C590.75 259.508 588.722 259.04 586.538 259.04C584.302 259.04 582.222 259.508 580.298 260.444C578.426 261.38 576.918 262.966 575.774 265.202C574.63 267.438 574.058 270.48 574.058 274.328C574.058 278.176 574.63 281.218 575.774 283.454C576.918 285.638 578.426 287.198 580.298 288.134C582.222 289.018 584.302 289.46 586.538 289.46ZM646.709 281.894V253.502C646.709 252.878 646.995 252.566 647.567 252.566H648.191C650.219 252.566 651.753 253.086 652.793 254.126C653.833 255.166 654.353 256.908 654.353 259.352V295.076C654.353 295.648 654.067 295.934 653.495 295.934H647.957C647.229 295.934 646.657 295.596 646.241 294.92L629.237 267.23V295.076C629.237 295.648 628.951 295.934 628.379 295.934H622.451C621.879 295.934 621.593 295.648 621.593 295.076V253.502C621.593 252.878 621.879 252.566 622.451 252.566H624.791C626.403 252.566 627.651 252.878 628.535 253.502C629.419 254.074 630.277 255.036 631.109 256.388L646.709 281.894ZM669.189 284.078C670.853 285.794 672.699 287.172 674.727 288.212C676.807 289.252 679.355 289.772 682.371 289.772C685.283 289.772 687.493 289.252 689.001 288.212C690.561 287.12 691.341 285.69 691.341 283.922C691.341 282.57 690.795 281.504 689.703 280.724C688.611 279.892 687.181 279.19 685.413 278.618C683.697 277.994 681.877 277.37 679.953 276.746C678.029 276.07 676.183 275.238 674.415 274.25C672.699 273.262 671.295 271.962 670.203 270.35C669.111 268.738 668.565 266.658 668.565 264.11C668.565 261.458 669.241 259.222 670.593 257.402C671.945 255.582 673.765 254.204 676.053 253.268C678.393 252.28 680.967 251.786 683.775 251.786C685.751 251.786 687.623 251.942 689.391 252.254C691.159 252.566 692.771 253.008 694.227 253.58C695.839 254.152 696.827 254.906 697.191 255.842C697.607 256.726 697.685 257.87 697.425 259.274L697.035 260.99C696.931 261.302 696.827 261.536 696.723 261.692C696.619 261.848 696.437 261.926 696.177 261.926C695.917 261.926 695.527 261.796 695.007 261.536C693.395 260.652 691.653 259.95 689.781 259.43C687.909 258.91 685.933 258.65 683.853 258.65C681.721 258.65 679.927 259.066 678.471 259.898C677.067 260.73 676.365 262.004 676.365 263.72C676.365 265.124 676.911 266.268 678.003 267.152C679.095 267.984 680.499 268.686 682.215 269.258C683.983 269.83 685.829 270.428 687.753 271.052C689.677 271.676 691.497 272.456 693.213 273.392C694.981 274.328 696.411 275.576 697.503 277.136C698.595 278.696 699.141 280.724 699.141 283.22C699.141 287.276 697.737 290.552 694.929 293.048C692.173 295.492 688.273 296.714 683.229 296.714C679.537 296.714 676.495 296.142 674.103 294.998C671.763 293.802 670.021 292.32 668.877 290.552C667.785 288.784 667.239 287.042 667.239 285.326C667.239 284.234 667.603 283.688 668.331 283.688C668.695 283.688 668.981 283.818 669.189 284.078Z" fill="#111111" style="fill:#111111;fill:color(display-p3 0.0673 0.0670 0.0670);fill-opacity:1;"/>
<path d="M218.564 354.987C217.7 354.519 216.872 354.177 216.08 353.961C215.288 353.745 214.424 353.637 213.488 353.637C212.552 353.637 211.778 353.817 211.166 354.177C210.59 354.537 210.302 355.077 210.302 355.797C210.302 356.481 210.644 357.039 211.328 357.471C212.012 357.903 212.858 358.299 213.866 358.659C214.874 359.019 215.882 359.433 216.89 359.901C217.934 360.369 218.798 360.981 219.482 361.737C220.166 362.457 220.508 363.447 220.508 364.707C220.508 366.615 219.824 368.163 218.456 369.351C217.124 370.539 215.288 371.133 212.948 371.133C211.472 371.133 210.194 370.881 209.114 370.377C208.034 369.837 207.206 369.171 206.63 368.379C206.054 367.587 205.766 366.795 205.766 366.003C205.766 365.391 205.964 365.085 206.36 365.085C206.504 365.085 206.666 365.175 206.846 365.355C207.53 365.967 208.322 366.507 209.222 366.975C210.122 367.443 211.238 367.677 212.57 367.677C213.866 367.677 214.838 367.443 215.486 366.975C216.134 366.507 216.458 365.877 216.458 365.085C216.458 364.365 216.116 363.789 215.432 363.357C214.748 362.925 213.884 362.547 212.84 362.223C211.832 361.863 210.806 361.449 209.762 360.981C208.754 360.513 207.908 359.901 207.224 359.145C206.54 358.389 206.198 357.381 206.198 356.121C206.198 354.213 206.918 352.755 208.358 351.747C209.798 350.703 211.526 350.181 213.542 350.181C215.306 350.181 216.836 350.505 218.132 351.153C218.852 351.441 219.32 351.819 219.536 352.287C219.752 352.719 219.77 353.313 219.59 354.069L219.428 354.771C219.392 355.023 219.266 355.149 219.05 355.149C218.978 355.149 218.888 355.131 218.78 355.095C218.708 355.059 218.636 355.023 218.564 354.987ZM238.511 367.731C237.719 368.847 236.765 369.675 235.649 370.215C234.533 370.755 233.291 371.025 231.923 371.025C229.943 371.025 228.251 370.557 226.847 369.621C225.479 368.685 224.435 367.425 223.715 365.841C222.995 364.257 222.635 362.511 222.635 360.603C222.635 358.587 223.031 356.805 223.823 355.257C224.615 353.673 225.713 352.431 227.117 351.531C228.557 350.631 230.213 350.181 232.085 350.181C233.597 350.181 234.911 350.469 236.027 351.045C237.179 351.621 238.079 352.377 238.727 353.313C238.907 352.377 239.267 351.711 239.807 351.315C240.347 350.883 241.031 350.667 241.859 350.667H242.129C242.381 350.667 242.507 350.829 242.507 351.153V370.053C242.507 370.377 242.381 370.539 242.129 370.539H238.943C238.655 370.539 238.511 370.377 238.511 370.053V367.731ZM232.517 367.245C233.417 367.245 234.317 367.065 235.217 366.705C236.153 366.309 236.927 365.625 237.539 364.653C238.187 363.681 238.511 362.331 238.511 360.603C238.511 358.839 238.187 357.489 237.539 356.553C236.927 355.581 236.171 354.915 235.271 354.555C234.371 354.195 233.507 354.015 232.679 354.015C231.131 354.015 229.763 354.555 228.575 355.635C227.387 356.715 226.793 358.371 226.793 360.603C226.793 362.223 227.081 363.519 227.657 364.491C228.269 365.463 229.007 366.165 229.871 366.597C230.771 367.029 231.653 367.245 232.517 367.245ZM251.092 353.313C251.632 352.485 252.406 351.765 253.414 351.153C254.458 350.541 255.7 350.235 257.14 350.235C258.724 350.235 260.092 350.559 261.244 351.207C262.396 351.855 263.314 352.755 263.998 353.907C264.646 352.971 265.528 352.125 266.644 351.369C267.796 350.613 269.218 350.235 270.91 350.235C273.466 350.235 275.446 351.009 276.85 352.557C278.29 354.105 279.01 356.211 279.01 358.875V370.053C279.01 370.377 278.866 370.539 278.578 370.539H275.446C275.158 370.539 275.014 370.377 275.014 370.053V359.577C275.014 357.669 274.582 356.265 273.718 355.365C272.854 354.429 271.684 353.961 270.208 353.961C268.66 353.961 267.418 354.447 266.482 355.419C265.582 356.355 265.132 357.813 265.132 359.793V370.053C265.132 370.377 264.988 370.539 264.7 370.539H261.514C261.226 370.539 261.082 370.377 261.082 370.053V359.577C261.082 357.669 260.65 356.265 259.786 355.365C258.958 354.429 257.806 353.961 256.33 353.961C254.746 353.961 253.486 354.447 252.55 355.419C251.65 356.355 251.2 357.813 251.2 359.793V370.053C251.2 370.377 251.074 370.539 250.822 370.539H247.636C247.348 370.539 247.204 370.377 247.204 370.053V351.099C247.204 350.811 247.348 350.667 247.636 350.667H247.906C249.706 350.667 250.768 351.549 251.092 353.313ZM287.561 367.893V378.693C287.561 379.017 287.435 379.179 287.183 379.179H283.997C283.709 379.179 283.565 379.017 283.565 378.693V351.099C283.565 350.811 283.709 350.667 283.997 350.667H284.267C285.239 350.667 285.977 350.955 286.481 351.531C286.985 352.071 287.309 352.719 287.453 353.475C288.065 352.539 288.929 351.765 290.045 351.153C291.161 350.505 292.493 350.181 294.041 350.181C297.029 350.181 299.351 351.171 301.007 353.151C302.663 355.095 303.491 357.579 303.491 360.603C303.491 362.511 303.131 364.257 302.411 365.841C301.691 367.425 300.647 368.685 299.279 369.621C297.911 370.557 296.255 371.025 294.311 371.025C292.907 371.025 291.611 370.773 290.423 370.269C289.235 369.765 288.281 368.973 287.561 367.893ZM293.555 367.245C294.419 367.245 295.301 367.029 296.201 366.597C297.101 366.165 297.839 365.463 298.415 364.491C299.027 363.519 299.333 362.223 299.333 360.603C299.333 358.371 298.739 356.715 297.551 355.635C296.399 354.555 295.031 354.015 293.447 354.015C292.619 354.015 291.737 354.195 290.801 354.555C289.901 354.915 289.127 355.581 288.479 356.553C287.867 357.489 287.561 358.839 287.561 360.603C287.561 362.331 287.885 363.681 288.533 364.653C289.181 365.625 289.973 366.309 290.909 366.705C291.845 367.065 292.727 367.245 293.555 367.245ZM312.239 371.025C310.691 371.025 309.467 370.539 308.567 369.567C307.667 368.559 307.217 366.975 307.217 364.815V341.001C307.217 340.677 307.361 340.515 307.649 340.515H307.919C310.115 340.515 311.213 341.757 311.213 344.241V364.545C311.213 366.417 311.915 367.353 313.319 367.353C313.895 367.353 314.381 367.245 314.777 367.029C315.173 366.777 315.551 366.453 315.911 366.057C316.091 365.841 316.271 365.733 316.451 365.733C316.631 365.733 316.757 365.805 316.829 365.949C316.901 366.093 316.937 366.255 316.937 366.435C316.937 367.011 316.775 367.659 316.451 368.379C316.163 369.099 315.677 369.729 314.993 370.269C314.309 370.773 313.391 371.025 312.239 371.025ZM318.311 345.321C318.311 344.601 318.545 344.007 319.013 343.539C319.481 343.071 320.057 342.837 320.741 342.837C321.389 342.837 321.947 343.071 322.415 343.539C322.883 344.007 323.117 344.601 323.117 345.321C323.117 346.005 322.883 346.581 322.415 347.049C321.947 347.517 321.389 347.751 320.741 347.751C320.057 347.751 319.481 347.517 319.013 347.049C318.545 346.581 318.311 346.005 318.311 345.321ZM319.121 370.539C318.833 370.539 318.689 370.377 318.689 370.053V351.153C318.689 350.829 318.833 350.667 319.121 350.667H319.391C320.435 350.667 321.245 350.973 321.821 351.585C322.433 352.197 322.739 353.133 322.739 354.393V370.053C322.739 370.377 322.595 370.539 322.307 370.539H319.121ZM331.146 353.367C331.722 352.467 332.55 351.729 333.63 351.153C334.71 350.541 335.97 350.235 337.41 350.235C339.93 350.235 341.91 351.009 343.35 352.557C344.79 354.105 345.51 356.211 345.51 358.875V370.053C345.51 370.377 345.366 370.539 345.078 370.539H341.892C341.604 370.539 341.46 370.377 341.46 370.053V359.631C341.46 357.723 341.01 356.301 340.11 355.365C339.21 354.429 338.004 353.961 336.492 353.961C334.872 353.961 333.594 354.447 332.658 355.419C331.722 356.355 331.254 357.831 331.254 359.847V370.053C331.254 370.377 331.128 370.539 330.876 370.539H327.69C327.402 370.539 327.258 370.377 327.258 370.053V351.153C327.258 350.829 327.402 350.667 327.69 350.667H327.96C328.788 350.667 329.49 350.901 330.066 351.369C330.642 351.837 331.002 352.503 331.146 353.367ZM365.134 367.623C364.378 368.703 363.424 369.513 362.272 370.053C361.156 370.593 359.914 370.863 358.546 370.863C356.602 370.863 354.928 370.413 353.524 369.513C352.156 368.577 351.094 367.335 350.338 365.787C349.618 364.239 349.258 362.511 349.258 360.603C349.258 358.587 349.654 356.805 350.446 355.257C351.238 353.673 352.336 352.431 353.74 351.531C355.18 350.631 356.836 350.181 358.708 350.181C360.22 350.181 361.534 350.469 362.65 351.045C363.802 351.621 364.72 352.377 365.404 353.313C365.548 352.377 365.89 351.711 366.43 351.315C366.97 350.883 367.654 350.667 368.482 350.667H368.752C369.04 350.667 369.184 350.811 369.184 351.099V369.891C369.184 372.843 368.338 375.219 366.646 377.019C364.99 378.855 362.47 379.773 359.086 379.773C357.322 379.773 355.774 379.485 354.442 378.909C353.146 378.333 352.138 377.613 351.418 376.749C350.698 375.921 350.338 375.075 350.338 374.211C350.338 373.959 350.392 373.743 350.5 373.563C350.608 373.383 350.752 373.293 350.932 373.293C351.076 373.293 351.184 373.329 351.256 373.401C351.328 373.473 351.436 373.563 351.58 373.671C352.3 374.319 353.2 374.859 354.28 375.291C355.36 375.759 356.728 375.993 358.384 375.993C360.868 375.993 362.614 375.453 363.622 374.373C364.63 373.293 365.134 371.799 365.134 369.891V367.623ZM359.14 367.245C360.04 367.245 360.94 367.065 361.84 366.705C362.776 366.309 363.55 365.625 364.162 364.653C364.81 363.681 365.134 362.331 365.134 360.603C365.134 358.839 364.81 357.489 364.162 356.553C363.55 355.581 362.794 354.915 361.894 354.555C360.994 354.195 360.13 354.015 359.302 354.015C357.754 354.015 356.386 354.555 355.198 355.635C354.01 356.715 353.416 358.371 353.416 360.603C353.416 362.223 353.704 363.519 354.28 364.491C354.892 365.463 355.63 366.165 356.494 366.597C357.394 367.029 358.276 367.245 359.14 367.245Z" fill="#141414" style="fill:#141414;fill:color(display-p3 0.0769 0.0769 0.0769);fill-opacity:1;"/>
<path d="M276.94 407.368C277.48 406.54 278.254 405.82 279.262 405.208C280.306 404.596 281.548 404.29 282.988 404.29C284.572 404.29 285.94 404.614 287.092 405.262C288.244 405.91 289.162 406.81 289.846 407.962C290.494 407.026 291.376 406.18 292.492 405.424C293.644 404.668 295.066 404.29 296.758 404.29C299.314 404.29 301.294 405.064 302.698 406.612C304.138 408.16 304.858 410.266 304.858 412.93V424.108C304.858 424.432 304.714 424.594 304.426 424.594H301.294C301.006 424.594 300.862 424.432 300.862 424.108V413.632C300.862 411.724 300.43 410.32 299.566 409.42C298.702 408.484 297.532 408.016 296.056 408.016C294.508 408.016 293.266 408.502 292.33 409.474C291.43 410.41 290.98 411.868 290.98 413.848V424.108C290.98 424.432 290.836 424.594 290.548 424.594H287.362C287.074 424.594 286.93 424.432 286.93 424.108V413.632C286.93 411.724 286.498 410.32 285.634 409.42C284.806 408.484 283.654 408.016 282.178 408.016C280.594 408.016 279.334 408.502 278.398 409.474C277.498 410.41 277.048 411.868 277.048 413.848V424.108C277.048 424.432 276.922 424.594 276.67 424.594H273.484C273.196 424.594 273.052 424.432 273.052 424.108V405.154C273.052 404.866 273.196 404.722 273.484 404.722H273.754C275.554 404.722 276.616 405.604 276.94 407.368ZM322.806 421.786C322.014 422.902 321.06 423.73 319.944 424.27C318.828 424.81 317.586 425.08 316.218 425.08C314.238 425.08 312.546 424.612 311.142 423.676C309.774 422.74 308.73 421.48 308.01 419.896C307.29 418.312 306.93 416.566 306.93 414.658C306.93 412.642 307.326 410.86 308.118 409.312C308.91 407.728 310.008 406.486 311.412 405.586C312.852 404.686 314.508 404.236 316.38 404.236C317.892 404.236 319.206 404.524 320.322 405.1C321.474 405.676 322.374 406.432 323.022 407.368C323.202 406.432 323.562 405.766 324.102 405.37C324.642 404.938 325.326 404.722 326.154 404.722H326.424C326.676 404.722 326.802 404.884 326.802 405.208V424.108C326.802 424.432 326.676 424.594 326.424 424.594H323.238C322.95 424.594 322.806 424.432 322.806 424.108V421.786ZM316.812 421.3C317.712 421.3 318.612 421.12 319.512 420.76C320.448 420.364 321.222 419.68 321.834 418.708C322.482 417.736 322.806 416.386 322.806 414.658C322.806 412.894 322.482 411.544 321.834 410.608C321.222 409.636 320.466 408.97 319.566 408.61C318.666 408.25 317.802 408.07 316.974 408.07C315.426 408.07 314.058 408.61 312.87 409.69C311.682 410.77 311.088 412.426 311.088 414.658C311.088 416.278 311.376 417.574 311.952 418.546C312.564 419.518 313.302 420.22 314.166 420.652C315.066 421.084 315.948 421.3 316.812 421.3ZM333.713 407.422C334.289 406.522 335.117 405.784 336.197 405.208C337.277 404.596 338.537 404.29 339.977 404.29C342.497 404.29 344.477 405.064 345.917 406.612C347.357 408.16 348.077 410.266 348.077 412.93V424.108C348.077 424.432 347.933 424.594 347.645 424.594H344.459C344.171 424.594 344.027 424.432 344.027 424.108V413.686C344.027 411.778 343.577 410.356 342.677 409.42C341.777 408.484 340.571 408.016 339.059 408.016C337.439 408.016 336.161 408.502 335.225 409.474C334.289 410.41 333.821 411.886 333.821 413.902V424.108C333.821 424.432 333.695 424.594 333.443 424.594H330.257C329.969 424.594 329.825 424.432 329.825 424.108V405.208C329.825 404.884 329.969 404.722 330.257 404.722H330.527C331.355 404.722 332.057 404.956 332.633 405.424C333.209 405.892 333.569 406.558 333.713 407.422ZM359.655 425.134C356.703 425.134 354.489 424.27 353.013 422.542C351.537 420.778 350.799 418.366 350.799 415.306V405.208C350.799 404.884 350.943 404.722 351.231 404.722H351.501C353.697 404.722 354.795 405.964 354.795 408.448V415.738C354.795 417.646 355.227 419.068 356.091 420.004C356.991 420.94 358.179 421.408 359.655 421.408C361.131 421.408 362.301 420.994 363.165 420.166C364.065 419.302 364.515 417.88 364.515 415.9V405.208C364.515 404.884 364.659 404.722 364.947 404.722H365.217C367.449 404.722 368.565 405.964 368.565 408.448V415.576C368.565 418.528 367.809 420.868 366.297 422.596C364.821 424.288 362.607 425.134 359.655 425.134ZM372.873 408.286H369.633C369.345 408.286 369.201 408.142 369.201 407.854V405.208C369.201 404.884 369.345 404.722 369.633 404.722H372.873V400.726C372.873 398.494 373.377 396.856 374.385 395.812C375.393 394.768 376.671 394.246 378.219 394.246C379.335 394.246 380.235 394.48 380.919 394.948C381.639 395.416 382.161 395.974 382.485 396.622C382.845 397.27 383.025 397.864 383.025 398.404C383.025 398.908 382.863 399.16 382.539 399.16C382.431 399.16 382.269 399.106 382.053 398.998C381.657 398.674 381.225 398.404 380.757 398.188C380.325 397.936 379.803 397.81 379.191 397.81C378.471 397.81 377.895 398.044 377.463 398.512C377.067 398.98 376.869 399.79 376.869 400.942V404.722H381.783C382.071 404.722 382.215 404.884 382.215 405.208V407.854C382.215 408.142 382.071 408.286 381.783 408.286H376.869V424.108C376.869 424.432 376.725 424.594 376.437 424.594H373.305C373.017 424.594 372.873 424.432 372.873 424.108V408.286ZM398.806 421.786C398.014 422.902 397.06 423.73 395.944 424.27C394.828 424.81 393.586 425.08 392.218 425.08C390.238 425.08 388.546 424.612 387.142 423.676C385.774 422.74 384.73 421.48 384.01 419.896C383.29 418.312 382.93 416.566 382.93 414.658C382.93 412.642 383.326 410.86 384.118 409.312C384.91 407.728 386.008 406.486 387.412 405.586C388.852 404.686 390.508 404.236 392.38 404.236C393.892 404.236 395.206 404.524 396.322 405.1C397.474 405.676 398.374 406.432 399.022 407.368C399.202 406.432 399.562 405.766 400.102 405.37C400.642 404.938 401.326 404.722 402.154 404.722H402.424C402.676 404.722 402.802 404.884 402.802 405.208V424.108C402.802 424.432 402.676 424.594 402.424 424.594H399.238C398.95 424.594 398.806 424.432 398.806 424.108V421.786ZM392.812 421.3C393.712 421.3 394.612 421.12 395.512 420.76C396.448 420.364 397.222 419.68 397.834 418.708C398.482 417.736 398.806 416.386 398.806 414.658C398.806 412.894 398.482 411.544 397.834 410.608C397.222 409.636 396.466 408.97 395.566 408.61C394.666 408.25 393.802 408.07 392.974 408.07C391.426 408.07 390.058 408.61 388.87 409.69C387.682 410.77 387.088 412.426 387.088 414.658C387.088 416.278 387.376 417.574 387.952 418.546C388.564 419.518 389.302 420.22 390.166 420.652C391.066 421.084 391.948 421.3 392.812 421.3ZM419.866 409.366C419.074 408.934 418.318 408.61 417.598 408.394C416.914 408.178 416.068 408.07 415.06 408.07C413.368 408.07 411.964 408.646 410.848 409.798C409.768 410.95 409.228 412.606 409.228 414.766C409.228 416.854 409.768 418.51 410.848 419.734C411.928 420.922 413.476 421.516 415.492 421.516C416.68 421.516 417.67 421.3 418.462 420.868C419.29 420.436 419.938 419.986 420.406 419.518C420.478 419.446 420.568 419.374 420.676 419.302C420.82 419.194 420.946 419.14 421.054 419.14C421.414 419.14 421.594 419.41 421.594 419.95C421.594 420.67 421.324 421.444 420.784 422.272C420.28 423.064 419.506 423.748 418.462 424.324C417.454 424.864 416.176 425.134 414.628 425.134C411.784 425.134 409.48 424.216 407.716 422.38C405.952 420.508 405.07 417.952 405.07 414.712C405.07 412.588 405.484 410.752 406.312 409.204C407.14 407.62 408.292 406.396 409.768 405.532C411.244 404.668 412.954 404.236 414.898 404.236C415.834 404.236 416.644 404.308 417.328 404.452C418.048 404.56 418.75 404.758 419.434 405.046C420.838 405.622 421.342 406.612 420.946 408.016L420.676 409.096C420.604 409.384 420.478 409.528 420.298 409.528C420.19 409.528 420.046 409.474 419.866 409.366ZM425.008 408.286H421.336C421.048 408.286 420.904 408.142 420.904 407.854V405.154C420.904 404.866 421.048 404.722 421.336 404.722H425.008V398.026C425.008 397.702 425.134 397.54 425.386 397.54H425.656C426.7 397.54 427.51 397.864 428.086 398.512C428.698 399.124 429.004 400.06 429.004 401.32V404.722H433.162C433.414 404.722 433.54 404.866 433.54 405.154V407.854C433.54 408.142 433.414 408.286 433.162 408.286H429.004V424.108C429.004 424.432 428.86 424.594 428.572 424.594H425.386C425.134 424.594 425.008 424.432 425.008 424.108V408.286ZM443.766 425.134C440.814 425.134 438.6 424.27 437.124 422.542C435.648 420.778 434.91 418.366 434.91 415.306V405.208C434.91 404.884 435.054 404.722 435.342 404.722H435.612C437.808 404.722 438.906 405.964 438.906 408.448V415.738C438.906 417.646 439.338 419.068 440.202 420.004C441.102 420.94 442.29 421.408 443.766 421.408C445.242 421.408 446.412 420.994 447.276 420.166C448.176 419.302 448.626 417.88 448.626 415.9V405.208C448.626 404.884 448.77 404.722 449.058 404.722H449.328C451.56 404.722 452.676 405.964 452.676 408.448V415.576C452.676 418.528 451.92 420.868 450.408 422.596C448.932 424.288 446.718 425.134 443.766 425.134ZM459.306 407.584C459.954 406.468 460.728 405.712 461.628 405.316C462.528 404.92 463.698 404.722 465.138 404.722H465.732C466.02 404.722 466.164 404.866 466.164 405.154V408.124C466.164 408.448 466.02 408.61 465.732 408.61H464.436C462.528 408.61 461.214 409.096 460.494 410.068C459.774 411.04 459.414 412.57 459.414 414.658V424.108C459.414 424.432 459.288 424.594 459.036 424.594H455.85C455.562 424.594 455.418 424.432 455.418 424.108V405.154C455.418 404.866 455.562 404.722 455.85 404.722H456.12C457.02 404.722 457.74 404.974 458.28 405.478C458.856 405.946 459.198 406.648 459.306 407.584ZM467.37 399.376C467.37 398.656 467.604 398.062 468.072 397.594C468.54 397.126 469.116 396.892 469.8 396.892C470.448 396.892 471.006 397.126 471.474 397.594C471.942 398.062 472.176 398.656 472.176 399.376C472.176 400.06 471.942 400.636 471.474 401.104C471.006 401.572 470.448 401.806 469.8 401.806C469.116 401.806 468.54 401.572 468.072 401.104C467.604 400.636 467.37 400.06 467.37 399.376ZM468.18 424.594C467.892 424.594 467.748 424.432 467.748 424.108V405.208C467.748 404.884 467.892 404.722 468.18 404.722H468.45C469.494 404.722 470.304 405.028 470.88 405.64C471.492 406.252 471.798 407.188 471.798 408.448V424.108C471.798 424.432 471.654 424.594 471.366 424.594H468.18ZM478.585 407.422C479.161 406.522 479.989 405.784 481.069 405.208C482.149 404.596 483.409 404.29 484.849 404.29C487.369 404.29 489.349 405.064 490.789 406.612C492.229 408.16 492.949 410.266 492.949 412.93V424.108C492.949 424.432 492.805 424.594 492.517 424.594H489.331C489.043 424.594 488.899 424.432 488.899 424.108V413.686C488.899 411.778 488.449 410.356 487.549 409.42C486.649 408.484 485.443 408.016 483.931 408.016C482.311 408.016 481.033 408.502 480.097 409.474C479.161 410.41 478.693 411.886 478.693 413.902V424.108C478.693 424.432 478.567 424.594 478.315 424.594H475.129C474.841 424.594 474.697 424.432 474.697 424.108V405.208C474.697 404.884 474.841 404.722 475.129 404.722H475.399C476.227 404.722 476.929 404.956 477.505 405.424C478.081 405.892 478.441 406.558 478.585 407.422ZM510.953 421.678C510.197 422.758 509.243 423.568 508.091 424.108C506.975 424.648 505.733 424.918 504.365 424.918C502.421 424.918 500.747 424.468 499.343 423.568C497.975 422.632 496.913 421.39 496.157 419.842C495.437 418.294 495.077 416.566 495.077 414.658C495.077 412.642 495.473 410.86 496.265 409.312C497.057 407.728 498.155 406.486 499.559 405.586C500.999 404.686 502.655 404.236 504.527 404.236C506.039 404.236 507.353 404.524 508.469 405.1C509.621 405.676 510.539 406.432 511.223 407.368C511.367 406.432 511.709 405.766 512.249 405.37C512.789 404.938 513.473 404.722 514.301 404.722H514.571C514.859 404.722 515.003 404.866 515.003 405.154V423.946C515.003 426.898 514.157 429.274 512.465 431.074C510.809 432.91 508.289 433.828 504.905 433.828C503.141 433.828 501.593 433.54 500.261 432.964C498.965 432.388 497.957 431.668 497.237 430.804C496.517 429.976 496.157 429.13 496.157 428.266C496.157 428.014 496.211 427.798 496.319 427.618C496.427 427.438 496.571 427.348 496.751 427.348C496.895 427.348 497.003 427.384 497.075 427.456C497.147 427.528 497.255 427.618 497.399 427.726C498.119 428.374 499.019 428.914 500.099 429.346C501.179 429.814 502.547 430.048 504.203 430.048C506.687 430.048 508.433 429.508 509.441 428.428C510.449 427.348 510.953 425.854 510.953 423.946V421.678ZM504.959 421.3C505.859 421.3 506.759 421.12 507.659 420.76C508.595 420.364 509.369 419.68 509.981 418.708C510.629 417.736 510.953 416.386 510.953 414.658C510.953 412.894 510.629 411.544 509.981 410.608C509.369 409.636 508.613 408.97 507.713 408.61C506.813 408.25 505.949 408.07 505.121 408.07C503.573 408.07 502.205 408.61 501.017 409.69C499.829 410.77 499.235 412.426 499.235 414.658C499.235 416.278 499.523 417.574 500.099 418.546C500.711 419.518 501.449 420.22 502.313 420.652C503.213 421.084 504.095 421.3 504.959 421.3Z" fill="#141414" style="fill:#141414;fill:color(display-p3 0.0769 0.0769 0.0769);fill-opacity:1;"/>
<path d="M408.295 367.731C407.503 368.847 406.549 369.675 405.433 370.215C404.317 370.755 403.075 371.025 401.707 371.025C399.727 371.025 398.035 370.557 396.631 369.621C395.263 368.685 394.219 367.425 393.499 365.841C392.779 364.257 392.419 362.511 392.419 360.603C392.419 358.587 392.815 356.805 393.607 355.257C394.399 353.673 395.497 352.431 396.901 351.531C398.341 350.631 399.997 350.181 401.869 350.181C403.381 350.181 404.695 350.469 405.811 351.045C406.963 351.621 407.863 352.377 408.511 353.313C408.691 352.377 409.051 351.711 409.591 351.315C410.131 350.883 410.815 350.667 411.643 350.667H411.913C412.165 350.667 412.291 350.829 412.291 351.153V370.053C412.291 370.377 412.165 370.539 411.913 370.539H408.727C408.439 370.539 408.295 370.377 408.295 370.053V367.731ZM402.301 367.245C403.201 367.245 404.101 367.065 405.001 366.705C405.937 366.309 406.711 365.625 407.323 364.653C407.971 363.681 408.295 362.331 408.295 360.603C408.295 358.839 407.971 357.489 407.323 356.553C406.711 355.581 405.955 354.915 405.055 354.555C404.155 354.195 403.291 354.015 402.463 354.015C400.915 354.015 399.547 354.555 398.359 355.635C397.171 356.715 396.577 358.371 396.577 360.603C396.577 362.223 396.865 363.519 397.441 364.491C398.053 365.463 398.791 366.165 399.655 366.597C400.555 367.029 401.437 367.245 402.301 367.245ZM421.957 371.025C420.409 371.025 419.185 370.539 418.285 369.567C417.385 368.559 416.935 366.975 416.935 364.815V341.001C416.935 340.677 417.079 340.515 417.367 340.515H417.637C419.833 340.515 420.931 341.757 420.931 344.241V364.545C420.931 366.417 421.633 367.353 423.037 367.353C423.613 367.353 424.099 367.245 424.495 367.029C424.891 366.777 425.269 366.453 425.629 366.057C425.809 365.841 425.989 365.733 426.169 365.733C426.349 365.733 426.475 365.805 426.547 365.949C426.619 366.093 426.655 366.255 426.655 366.435C426.655 367.011 426.493 367.659 426.169 368.379C425.881 369.099 425.395 369.729 424.711 370.269C424.027 370.773 423.109 371.025 421.957 371.025ZM430.143 354.231H426.471C426.183 354.231 426.039 354.087 426.039 353.799V351.099C426.039 350.811 426.183 350.667 426.471 350.667H430.143V343.971C430.143 343.647 430.269 343.485 430.521 343.485H430.791C431.835 343.485 432.645 343.809 433.221 344.457C433.833 345.069 434.139 346.005 434.139 347.265V350.667H438.297C438.549 350.667 438.675 350.811 438.675 351.099V353.799C438.675 354.087 438.549 354.231 438.297 354.231H434.139V370.053C434.139 370.377 433.995 370.539 433.707 370.539H430.521C430.269 370.539 430.143 370.377 430.143 370.053V354.231ZM444.75 362.061C444.966 363.933 445.65 365.319 446.802 366.219C447.954 367.083 449.466 367.515 451.338 367.515C452.85 367.515 454.056 367.317 454.956 366.921C455.856 366.525 456.684 366.057 457.44 365.517C457.584 365.445 457.71 365.355 457.818 365.247C457.962 365.139 458.088 365.085 458.196 365.085C458.376 365.085 458.502 365.175 458.574 365.355C458.682 365.499 458.736 365.661 458.736 365.841C458.736 366.597 458.43 367.389 457.818 368.217C457.242 369.009 456.36 369.675 455.172 370.215C454.02 370.755 452.58 371.025 450.852 371.025C449.088 371.025 447.432 370.665 445.884 369.945C444.372 369.189 443.13 368.055 442.158 366.543C441.222 364.995 440.754 363.015 440.754 360.603C440.754 358.587 441.15 356.805 441.942 355.257C442.734 353.673 443.832 352.431 445.236 351.531C446.676 350.631 448.332 350.181 450.204 350.181C452.328 350.181 454.038 350.631 455.334 351.531C456.63 352.395 457.566 353.529 458.142 354.933C458.754 356.301 459.06 357.759 459.06 359.307C459.06 359.775 459.042 360.171 459.006 360.495C459.006 360.819 458.988 361.125 458.952 361.413C458.916 361.845 458.646 362.061 458.142 362.061H444.75ZM444.858 358.983H455.064C455.1 358.155 454.974 357.345 454.686 356.553C454.434 355.761 453.948 355.095 453.228 354.555C452.508 354.015 451.482 353.745 450.15 353.745C448.638 353.745 447.414 354.213 446.478 355.149C445.578 356.049 445.038 357.327 444.858 358.983ZM466.68 353.529C467.328 352.413 468.102 351.657 469.002 351.261C469.902 350.865 471.072 350.667 472.512 350.667H473.106C473.394 350.667 473.538 350.811 473.538 351.099V354.069C473.538 354.393 473.394 354.555 473.106 354.555H471.81C469.902 354.555 468.588 355.041 467.868 356.013C467.148 356.985 466.788 358.515 466.788 360.603V370.053C466.788 370.377 466.662 370.539 466.41 370.539H463.224C462.936 370.539 462.792 370.377 462.792 370.053V351.099C462.792 350.811 462.936 350.667 463.224 350.667H463.494C464.394 350.667 465.114 350.919 465.654 351.423C466.23 351.891 466.572 352.593 466.68 353.529ZM491.436 367.731C490.644 368.847 489.69 369.675 488.574 370.215C487.458 370.755 486.216 371.025 484.848 371.025C482.868 371.025 481.176 370.557 479.772 369.621C478.404 368.685 477.36 367.425 476.64 365.841C475.92 364.257 475.56 362.511 475.56 360.603C475.56 358.587 475.956 356.805 476.748 355.257C477.54 353.673 478.638 352.431 480.042 351.531C481.482 350.631 483.138 350.181 485.01 350.181C486.522 350.181 487.836 350.469 488.952 351.045C490.104 351.621 491.004 352.377 491.652 353.313C491.832 352.377 492.192 351.711 492.732 351.315C493.272 350.883 493.956 350.667 494.784 350.667H495.054C495.306 350.667 495.432 350.829 495.432 351.153V370.053C495.432 370.377 495.306 370.539 495.054 370.539H491.868C491.58 370.539 491.436 370.377 491.436 370.053V367.731ZM485.442 367.245C486.342 367.245 487.242 367.065 488.142 366.705C489.078 366.309 489.852 365.625 490.464 364.653C491.112 363.681 491.436 362.331 491.436 360.603C491.436 358.839 491.112 357.489 490.464 356.553C489.852 355.581 489.096 354.915 488.196 354.555C487.296 354.195 486.432 354.015 485.604 354.015C484.056 354.015 482.688 354.555 481.5 355.635C480.312 356.715 479.718 358.371 479.718 360.603C479.718 362.223 480.006 363.519 480.582 364.491C481.194 365.463 481.932 366.165 482.796 366.597C483.696 367.029 484.578 367.245 485.442 367.245ZM502.236 354.231H498.564C498.276 354.231 498.132 354.087 498.132 353.799V351.099C498.132 350.811 498.276 350.667 498.564 350.667H502.236V343.971C502.236 343.647 502.362 343.485 502.614 343.485H502.884C503.928 343.485 504.738 343.809 505.314 344.457C505.926 345.069 506.232 346.005 506.232 347.265V350.667H510.39C510.642 350.667 510.768 350.811 510.768 351.099V353.799C510.768 354.087 510.642 354.231 510.39 354.231H506.232V370.053C506.232 370.377 506.088 370.539 505.8 370.539H502.614C502.362 370.539 502.236 370.377 502.236 370.053V354.231ZM513.595 345.321C513.595 344.601 513.829 344.007 514.297 343.539C514.765 343.071 515.341 342.837 516.025 342.837C516.673 342.837 517.231 343.071 517.699 343.539C518.167 344.007 518.401 344.601 518.401 345.321C518.401 346.005 518.167 346.581 517.699 347.049C517.231 347.517 516.673 347.751 516.025 347.751C515.341 347.751 514.765 347.517 514.297 347.049C513.829 346.581 513.595 346.005 513.595 345.321ZM514.405 370.539C514.117 370.539 513.973 370.377 513.973 370.053V351.153C513.973 350.829 514.117 350.667 514.405 350.667H514.675C515.719 350.667 516.529 350.973 517.105 351.585C517.717 352.197 518.023 353.133 518.023 354.393V370.053C518.023 370.377 517.879 370.539 517.591 370.539H514.405ZM531.777 371.025C528.717 371.025 526.269 370.089 524.433 368.217C522.633 366.309 521.733 363.789 521.733 360.657C521.733 357.525 522.633 355.005 524.433 353.097C526.269 351.153 528.699 350.181 531.723 350.181C534.783 350.181 537.231 351.153 539.067 353.097C540.903 355.005 541.821 357.507 541.821 360.603C541.821 363.735 540.903 366.255 539.067 368.163C537.267 370.071 534.837 371.025 531.777 371.025ZM531.723 367.191C533.415 367.191 534.819 366.651 535.935 365.571C537.087 364.491 537.663 362.853 537.663 360.657C537.663 358.533 537.087 356.895 535.935 355.743C534.819 354.591 533.415 354.015 531.723 354.015C529.995 354.015 528.591 354.591 527.511 355.743C526.431 356.895 525.891 358.533 525.891 360.657C525.891 362.781 526.431 364.401 527.511 365.517C528.591 366.633 529.995 367.191 531.723 367.191ZM549.503 353.367C550.079 352.467 550.907 351.729 551.987 351.153C553.067 350.541 554.327 350.235 555.767 350.235C558.287 350.235 560.267 351.009 561.707 352.557C563.147 354.105 563.867 356.211 563.867 358.875V370.053C563.867 370.377 563.723 370.539 563.435 370.539H560.249C559.961 370.539 559.817 370.377 559.817 370.053V359.631C559.817 357.723 559.367 356.301 558.467 355.365C557.567 354.429 556.361 353.961 554.849 353.961C553.229 353.961 551.951 354.447 551.015 355.419C550.079 356.355 549.611 357.831 549.611 359.847V370.053C549.611 370.377 549.485 370.539 549.233 370.539H546.047C545.759 370.539 545.615 370.377 545.615 370.053V351.153C545.615 350.829 545.759 350.667 546.047 350.667H546.317C547.145 350.667 547.847 350.901 548.423 351.369C548.999 351.837 549.359 352.503 549.503 353.367ZM579.549 354.987C578.685 354.519 577.857 354.177 577.065 353.961C576.273 353.745 575.409 353.637 574.473 353.637C573.537 353.637 572.763 353.817 572.151 354.177C571.575 354.537 571.287 355.077 571.287 355.797C571.287 356.481 571.629 357.039 572.313 357.471C572.997 357.903 573.843 358.299 574.851 358.659C575.859 359.019 576.867 359.433 577.875 359.901C578.919 360.369 579.783 360.981 580.467 361.737C581.151 362.457 581.493 363.447 581.493 364.707C581.493 366.615 580.809 368.163 579.441 369.351C578.109 370.539 576.273 371.133 573.933 371.133C572.457 371.133 571.179 370.881 570.099 370.377C569.019 369.837 568.191 369.171 567.615 368.379C567.039 367.587 566.751 366.795 566.751 366.003C566.751 365.391 566.949 365.085 567.345 365.085C567.489 365.085 567.651 365.175 567.831 365.355C568.515 365.967 569.307 366.507 570.207 366.975C571.107 367.443 572.223 367.677 573.555 367.677C574.851 367.677 575.823 367.443 576.471 366.975C577.119 366.507 577.443 365.877 577.443 365.085C577.443 364.365 577.101 363.789 576.417 363.357C575.733 362.925 574.869 362.547 573.825 362.223C572.817 361.863 571.791 361.449 570.747 360.981C569.739 360.513 568.893 359.901 568.209 359.145C567.525 358.389 567.183 357.381 567.183 356.121C567.183 354.213 567.903 352.755 569.343 351.747C570.783 350.703 572.511 350.181 574.527 350.181C576.291 350.181 577.821 350.505 579.117 351.153C579.837 351.441 580.305 351.819 580.521 352.287C580.737 352.719 580.755 353.313 580.575 354.069L580.413 354.771C580.377 355.023 580.251 355.149 580.035 355.149C579.963 355.149 579.873 355.131 579.765 355.095C579.693 355.059 579.621 355.023 579.549 354.987Z" fill="#141414" style="fill:#141414;fill:color(display-p3 0.0769 0.0769 0.0769);fill-opacity:1;"/>
<path d="M310.486 130.276C309.622 129.808 308.794 129.466 308.002 129.25C307.21 129.034 306.346 128.926 305.41 128.926C304.474 128.926 303.7 129.106 303.088 129.466C302.512 129.826 302.224 130.366 302.224 131.086C302.224 131.77 302.566 132.328 303.25 132.76C303.934 133.192 304.78 133.588 305.788 133.948C306.796 134.308 307.804 134.722 308.812 135.19C309.856 135.658 310.72 136.27 311.404 137.026C312.088 137.746 312.43 138.736 312.43 139.996C312.43 141.904 311.746 143.452 310.378 144.64C309.046 145.828 307.21 146.422 304.87 146.422C303.394 146.422 302.116 146.17 301.036 145.666C299.956 145.126 299.128 144.46 298.552 143.668C297.976 142.876 297.688 142.084 297.688 141.292C297.688 140.68 297.886 140.374 298.282 140.374C298.426 140.374 298.588 140.464 298.768 140.644C299.452 141.256 300.244 141.796 301.144 142.264C302.044 142.732 303.16 142.966 304.492 142.966C305.788 142.966 306.76 142.732 307.408 142.264C308.056 141.796 308.38 141.166 308.38 140.374C308.38 139.654 308.038 139.078 307.354 138.646C306.67 138.214 305.806 137.836 304.762 137.512C303.754 137.152 302.728 136.738 301.684 136.27C300.676 135.802 299.83 135.19 299.146 134.434C298.462 133.678 298.12 132.67 298.12 131.41C298.12 129.502 298.84 128.044 300.28 127.036C301.72 125.992 303.448 125.47 305.464 125.47C307.228 125.47 308.758 125.794 310.054 126.442C310.774 126.73 311.242 127.108 311.458 127.576C311.674 128.008 311.692 128.602 311.512 129.358L311.35 130.06C311.314 130.312 311.188 130.438 310.972 130.438C310.9 130.438 310.81 130.42 310.702 130.384C310.63 130.348 310.558 130.312 310.486 130.276ZM319.417 143.182V153.982C319.417 154.306 319.291 154.468 319.039 154.468H315.853C315.565 154.468 315.421 154.306 315.421 153.982V126.388C315.421 126.1 315.565 125.956 315.853 125.956H316.123C317.095 125.956 317.833 126.244 318.337 126.82C318.841 127.36 319.165 128.008 319.309 128.764C319.921 127.828 320.785 127.054 321.901 126.442C323.017 125.794 324.349 125.47 325.897 125.47C328.885 125.47 331.207 126.46 332.863 128.44C334.519 130.384 335.347 132.868 335.347 135.892C335.347 137.8 334.987 139.546 334.267 141.13C333.547 142.714 332.503 143.974 331.135 144.91C329.767 145.846 328.111 146.314 326.167 146.314C324.763 146.314 323.467 146.062 322.279 145.558C321.091 145.054 320.137 144.262 319.417 143.182ZM325.411 142.534C326.275 142.534 327.157 142.318 328.057 141.886C328.957 141.454 329.695 140.752 330.271 139.78C330.883 138.808 331.189 137.512 331.189 135.892C331.189 133.66 330.595 132.004 329.407 130.924C328.255 129.844 326.887 129.304 325.303 129.304C324.475 129.304 323.593 129.484 322.657 129.844C321.757 130.204 320.983 130.87 320.335 131.842C319.723 132.778 319.417 134.128 319.417 135.892C319.417 137.62 319.741 138.97 320.389 139.942C321.037 140.914 321.829 141.598 322.765 141.994C323.701 142.354 324.583 142.534 325.411 142.534ZM342.258 137.35C342.474 139.222 343.158 140.608 344.31 141.508C345.462 142.372 346.974 142.804 348.846 142.804C350.358 142.804 351.564 142.606 352.464 142.21C353.364 141.814 354.192 141.346 354.948 140.806C355.092 140.734 355.218 140.644 355.326 140.536C355.47 140.428 355.596 140.374 355.704 140.374C355.884 140.374 356.01 140.464 356.082 140.644C356.19 140.788 356.244 140.95 356.244 141.13C356.244 141.886 355.938 142.678 355.326 143.506C354.75 144.298 353.868 144.964 352.68 145.504C351.528 146.044 350.088 146.314 348.36 146.314C346.596 146.314 344.94 145.954 343.392 145.234C341.88 144.478 340.638 143.344 339.666 141.832C338.73 140.284 338.262 138.304 338.262 135.892C338.262 133.876 338.658 132.094 339.45 130.546C340.242 128.962 341.34 127.72 342.744 126.82C344.184 125.92 345.84 125.47 347.712 125.47C349.836 125.47 351.546 125.92 352.842 126.82C354.138 127.684 355.074 128.818 355.65 130.222C356.262 131.59 356.568 133.048 356.568 134.596C356.568 135.064 356.55 135.46 356.514 135.784C356.514 136.108 356.496 136.414 356.46 136.702C356.424 137.134 356.154 137.35 355.65 137.35H342.258ZM342.366 134.272H352.572C352.608 133.444 352.482 132.634 352.194 131.842C351.942 131.05 351.456 130.384 350.736 129.844C350.016 129.304 348.99 129.034 347.658 129.034C346.146 129.034 344.922 129.502 343.986 130.438C343.086 131.338 342.546 132.616 342.366 134.272ZM374.286 130.6C373.494 130.168 372.738 129.844 372.018 129.628C371.334 129.412 370.488 129.304 369.48 129.304C367.788 129.304 366.384 129.88 365.268 131.032C364.188 132.184 363.648 133.84 363.648 136C363.648 138.088 364.188 139.744 365.268 140.968C366.348 142.156 367.896 142.75 369.912 142.75C371.1 142.75 372.09 142.534 372.882 142.102C373.71 141.67 374.358 141.22 374.826 140.752C374.898 140.68 374.988 140.608 375.096 140.536C375.24 140.428 375.366 140.374 375.474 140.374C375.834 140.374 376.014 140.644 376.014 141.184C376.014 141.904 375.744 142.678 375.204 143.506C374.7 144.298 373.926 144.982 372.882 145.558C371.874 146.098 370.596 146.368 369.048 146.368C366.204 146.368 363.9 145.45 362.136 143.614C360.372 141.742 359.49 139.186 359.49 135.946C359.49 133.822 359.904 131.986 360.732 130.438C361.56 128.854 362.712 127.63 364.188 126.766C365.664 125.902 367.374 125.47 369.318 125.47C370.254 125.47 371.064 125.542 371.748 125.686C372.468 125.794 373.17 125.992 373.854 126.28C375.258 126.856 375.762 127.846 375.366 129.25L375.096 130.33C375.024 130.618 374.898 130.762 374.718 130.762C374.61 130.762 374.466 130.708 374.286 130.6ZM378.459 120.61C378.459 119.89 378.693 119.296 379.161 118.828C379.629 118.36 380.205 118.126 380.889 118.126C381.537 118.126 382.095 118.36 382.563 118.828C383.031 119.296 383.265 119.89 383.265 120.61C383.265 121.294 383.031 121.87 382.563 122.338C382.095 122.806 381.537 123.04 380.889 123.04C380.205 123.04 379.629 122.806 379.161 122.338C378.693 121.87 378.459 121.294 378.459 120.61ZM379.269 145.828C378.981 145.828 378.837 145.666 378.837 145.342V126.442C378.837 126.118 378.981 125.956 379.269 125.956H379.539C380.583 125.956 381.393 126.262 381.969 126.874C382.581 127.486 382.887 128.422 382.887 129.682V145.342C382.887 145.666 382.743 145.828 382.455 145.828H379.269ZM402.472 143.02C401.68 144.136 400.726 144.964 399.61 145.504C398.494 146.044 397.252 146.314 395.884 146.314C393.904 146.314 392.212 145.846 390.808 144.91C389.44 143.974 388.396 142.714 387.676 141.13C386.956 139.546 386.596 137.8 386.596 135.892C386.596 133.876 386.992 132.094 387.784 130.546C388.576 128.962 389.674 127.72 391.078 126.82C392.518 125.92 394.174 125.47 396.046 125.47C397.558 125.47 398.872 125.758 399.988 126.334C401.14 126.91 402.04 127.666 402.688 128.602C402.868 127.666 403.228 127 403.768 126.604C404.308 126.172 404.992 125.956 405.82 125.956H406.09C406.342 125.956 406.468 126.118 406.468 126.442V145.342C406.468 145.666 406.342 145.828 406.09 145.828H402.904C402.616 145.828 402.472 145.666 402.472 145.342V143.02ZM396.478 142.534C397.378 142.534 398.278 142.354 399.178 141.994C400.114 141.598 400.888 140.914 401.5 139.942C402.148 138.97 402.472 137.62 402.472 135.892C402.472 134.128 402.148 132.778 401.5 131.842C400.888 130.87 400.132 130.204 399.232 129.844C398.332 129.484 397.468 129.304 396.64 129.304C395.092 129.304 393.724 129.844 392.536 130.924C391.348 132.004 390.754 133.66 390.754 135.892C390.754 137.512 391.042 138.808 391.618 139.78C392.23 140.752 392.968 141.454 393.832 141.886C394.732 142.318 395.614 142.534 396.478 142.534ZM416.133 146.314C414.585 146.314 413.361 145.828 412.461 144.856C411.561 143.848 411.111 142.264 411.111 140.104V116.29C411.111 115.966 411.255 115.804 411.543 115.804H411.813C414.009 115.804 415.107 117.046 415.107 119.53V139.834C415.107 141.706 415.809 142.642 417.213 142.642C417.789 142.642 418.275 142.534 418.671 142.318C419.067 142.066 419.445 141.742 419.805 141.346C419.985 141.13 420.165 141.022 420.345 141.022C420.525 141.022 420.651 141.094 420.723 141.238C420.795 141.382 420.831 141.544 420.831 141.724C420.831 142.3 420.669 142.948 420.345 143.668C420.057 144.388 419.571 145.018 418.887 145.558C418.203 146.062 417.285 146.314 416.133 146.314ZM422.205 120.61C422.205 119.89 422.439 119.296 422.907 118.828C423.375 118.36 423.951 118.126 424.635 118.126C425.283 118.126 425.841 118.36 426.309 118.828C426.777 119.296 427.011 119.89 427.011 120.61C427.011 121.294 426.777 121.87 426.309 122.338C425.841 122.806 425.283 123.04 424.635 123.04C423.951 123.04 423.375 122.806 422.907 122.338C422.439 121.87 422.205 121.294 422.205 120.61ZM423.015 145.828C422.727 145.828 422.583 145.666 422.583 145.342V126.442C422.583 126.118 422.727 125.956 423.015 125.956H423.285C424.329 125.956 425.139 126.262 425.715 126.874C426.327 127.486 426.633 128.422 426.633 129.682V145.342C426.633 145.666 426.489 145.828 426.201 145.828H423.015ZM435.04 142.264H444.382C444.634 142.264 444.76 142.426 444.76 142.75V145.342C444.76 145.666 444.634 145.828 444.382 145.828H430.45C430.162 145.828 430.018 145.666 430.018 145.342V143.344C430.018 143.02 430.072 142.768 430.18 142.588C430.288 142.372 430.468 142.084 430.72 141.724L440.44 129.52H430.72C430.432 129.52 430.288 129.376 430.288 129.088V126.442C430.288 126.118 430.432 125.956 430.72 125.956H441.898C442.942 125.956 443.68 126.172 444.112 126.604C444.544 127.036 444.76 127.81 444.76 128.926C444.76 129.394 444.706 129.772 444.598 130.06C444.49 130.348 444.292 130.654 444.004 130.978L435.04 142.264ZM451.294 137.35C451.51 139.222 452.194 140.608 453.346 141.508C454.498 142.372 456.01 142.804 457.882 142.804C459.394 142.804 460.6 142.606 461.5 142.21C462.4 141.814 463.228 141.346 463.984 140.806C464.128 140.734 464.254 140.644 464.362 140.536C464.506 140.428 464.632 140.374 464.74 140.374C464.92 140.374 465.046 140.464 465.118 140.644C465.226 140.788 465.28 140.95 465.28 141.13C465.28 141.886 464.974 142.678 464.362 143.506C463.786 144.298 462.904 144.964 461.716 145.504C460.564 146.044 459.124 146.314 457.396 146.314C455.632 146.314 453.976 145.954 452.428 145.234C450.916 144.478 449.674 143.344 448.702 141.832C447.766 140.284 447.298 138.304 447.298 135.892C447.298 133.876 447.694 132.094 448.486 130.546C449.278 128.962 450.376 127.72 451.78 126.82C453.22 125.92 454.876 125.47 456.748 125.47C458.872 125.47 460.582 125.92 461.878 126.82C463.174 127.684 464.11 128.818 464.686 130.222C465.298 131.59 465.604 133.048 465.604 134.596C465.604 135.064 465.586 135.46 465.55 135.784C465.55 136.108 465.532 136.414 465.496 136.702C465.46 137.134 465.19 137.35 464.686 137.35H451.294ZM451.402 134.272H461.608C461.644 133.444 461.518 132.634 461.23 131.842C460.978 131.05 460.492 130.384 459.772 129.844C459.052 129.304 458.026 129.034 456.694 129.034C455.182 129.034 453.958 129.502 453.022 130.438C452.122 131.338 451.582 132.616 451.402 134.272ZM484.401 128.548V116.29C484.401 115.966 484.545 115.804 484.833 115.804H485.103C486.147 115.804 486.957 116.11 487.533 116.722C488.145 117.334 488.451 118.27 488.451 119.53V145.342C488.451 145.666 488.307 145.828 488.019 145.828H484.833C484.545 145.828 484.401 145.666 484.401 145.342V143.02C483.645 144.136 482.691 144.964 481.539 145.504C480.423 146.044 479.181 146.314 477.813 146.314C475.869 146.314 474.195 145.846 472.791 144.91C471.423 143.974 470.361 142.714 469.605 141.13C468.885 139.546 468.525 137.8 468.525 135.892C468.525 133.876 468.921 132.094 469.713 130.546C470.505 128.962 471.603 127.72 473.007 126.82C474.447 125.92 476.139 125.47 478.083 125.47C479.451 125.47 480.693 125.74 481.809 126.28C482.925 126.82 483.789 127.576 484.401 128.548ZM478.407 142.534C479.307 142.534 480.207 142.354 481.107 141.994C482.043 141.598 482.817 140.914 483.429 139.942C484.077 138.97 484.401 137.62 484.401 135.892C484.401 134.128 484.077 132.778 483.429 131.842C482.817 130.87 482.061 130.204 481.161 129.844C480.261 129.484 479.397 129.304 478.569 129.304C477.021 129.304 475.653 129.844 474.465 130.924C473.277 132.004 472.683 133.66 472.683 135.892C472.683 137.512 472.971 138.808 473.547 139.78C474.159 140.752 474.897 141.454 475.761 141.886C476.661 142.318 477.543 142.534 478.407 142.534Z" fill="#141414" style="fill:#141414;fill:color(display-p3 0.0769 0.0769 0.0769);fill-opacity:1;"/>
<path d="M421.948 184.632C421.084 184.164 420.256 183.822 419.464 183.606C418.672 183.39 417.808 183.282 416.872 183.282C415.936 183.282 415.162 183.462 414.55 183.822C413.974 184.182 413.686 184.722 413.686 185.442C413.686 186.126 414.028 186.684 414.712 187.116C415.396 187.548 416.242 187.944 417.25 188.304C418.258 188.664 419.266 189.078 420.274 189.546C421.318 190.014 422.182 190.626 422.866 191.382C423.55 192.102 423.892 193.092 423.892 194.352C423.892 196.26 423.208 197.808 421.84 198.996C420.508 200.184 418.672 200.778 416.332 200.778C414.856 200.778 413.578 200.526 412.498 200.022C411.418 199.482 410.59 198.816 410.014 198.024C409.438 197.232 409.15 196.44 409.15 195.648C409.15 195.036 409.348 194.73 409.744 194.73C409.888 194.73 410.05 194.82 410.23 195C410.914 195.612 411.706 196.152 412.606 196.62C413.506 197.088 414.622 197.322 415.954 197.322C417.25 197.322 418.222 197.088 418.87 196.62C419.518 196.152 419.842 195.522 419.842 194.73C419.842 194.01 419.5 193.434 418.816 193.002C418.132 192.57 417.268 192.192 416.224 191.868C415.216 191.508 414.19 191.094 413.146 190.626C412.138 190.158 411.292 189.546 410.608 188.79C409.924 188.034 409.582 187.026 409.582 185.766C409.582 183.858 410.302 182.4 411.742 181.392C413.182 180.348 414.91 179.826 416.926 179.826C418.69 179.826 420.22 180.15 421.516 180.798C422.236 181.086 422.704 181.464 422.92 181.932C423.136 182.364 423.154 182.958 422.974 183.714L422.812 184.416C422.776 184.668 422.65 184.794 422.434 184.794C422.362 184.794 422.272 184.776 422.164 184.74C422.092 184.704 422.02 184.668 421.948 184.632ZM430.015 191.706C430.231 193.578 430.915 194.964 432.067 195.864C433.219 196.728 434.731 197.16 436.603 197.16C438.115 197.16 439.321 196.962 440.221 196.566C441.121 196.17 441.949 195.702 442.705 195.162C442.849 195.09 442.975 195 443.083 194.892C443.227 194.784 443.353 194.73 443.461 194.73C443.641 194.73 443.767 194.82 443.839 195C443.947 195.144 444.001 195.306 444.001 195.486C444.001 196.242 443.695 197.034 443.083 197.862C442.507 198.654 441.625 199.32 440.437 199.86C439.285 200.4 437.845 200.67 436.117 200.67C434.353 200.67 432.697 200.31 431.149 199.59C429.637 198.834 428.395 197.7 427.423 196.188C426.487 194.64 426.019 192.66 426.019 190.248C426.019 188.232 426.415 186.45 427.207 184.902C427.999 183.318 429.097 182.076 430.501 181.176C431.941 180.276 433.597 179.826 435.469 179.826C437.593 179.826 439.303 180.276 440.599 181.176C441.895 182.04 442.831 183.174 443.407 184.578C444.019 185.946 444.325 187.404 444.325 188.952C444.325 189.42 444.307 189.816 444.271 190.14C444.271 190.464 444.253 190.77 444.217 191.058C444.181 191.49 443.911 191.706 443.407 191.706H430.015ZM430.123 188.628H440.329C440.365 187.8 440.239 186.99 439.951 186.198C439.699 185.406 439.213 184.74 438.493 184.2C437.773 183.66 436.747 183.39 435.415 183.39C433.903 183.39 432.679 183.858 431.743 184.794C430.843 185.694 430.303 186.972 430.123 188.628ZM451.945 183.174C452.593 182.058 453.367 181.302 454.267 180.906C455.167 180.51 456.337 180.312 457.777 180.312H458.371C458.659 180.312 458.803 180.456 458.803 180.744V183.714C458.803 184.038 458.659 184.2 458.371 184.2H457.075C455.167 184.2 453.853 184.686 453.133 185.658C452.413 186.63 452.053 188.16 452.053 190.248V199.698C452.053 200.022 451.927 200.184 451.675 200.184H448.489C448.201 200.184 448.057 200.022 448.057 199.698V180.744C448.057 180.456 448.201 180.312 448.489 180.312H448.759C449.659 180.312 450.379 180.564 450.919 181.068C451.495 181.536 451.837 182.238 451.945 183.174ZM468.918 195.756L473.67 180.906C473.814 180.51 474.102 180.312 474.534 180.312H477.504C477.756 180.312 477.846 180.456 477.774 180.744L471.186 199.752C471.078 200.04 470.898 200.184 470.646 200.184H467.19C466.902 200.184 466.686 200.04 466.542 199.752L459.954 180.744C459.846 180.456 459.936 180.312 460.224 180.312H461.088C462.168 180.312 462.996 180.546 463.572 181.014C464.184 181.446 464.688 182.328 465.084 183.66L468.918 195.756ZM479.955 174.966C479.955 174.246 480.189 173.652 480.657 173.184C481.125 172.716 481.701 172.482 482.385 172.482C483.033 172.482 483.591 172.716 484.059 173.184C484.527 173.652 484.761 174.246 484.761 174.966C484.761 175.65 484.527 176.226 484.059 176.694C483.591 177.162 483.033 177.396 482.385 177.396C481.701 177.396 481.125 177.162 480.657 176.694C480.189 176.226 479.955 175.65 479.955 174.966ZM480.765 200.184C480.477 200.184 480.333 200.022 480.333 199.698V180.798C480.333 180.474 480.477 180.312 480.765 180.312H481.035C482.079 180.312 482.889 180.618 483.465 181.23C484.077 181.842 484.383 182.778 484.383 184.038V199.698C484.383 200.022 484.239 200.184 483.951 200.184H480.765ZM502.942 184.956C502.15 184.524 501.394 184.2 500.674 183.984C499.99 183.768 499.144 183.66 498.136 183.66C496.444 183.66 495.04 184.236 493.924 185.388C492.844 186.54 492.304 188.196 492.304 190.356C492.304 192.444 492.844 194.1 493.924 195.324C495.004 196.512 496.552 197.106 498.568 197.106C499.756 197.106 500.746 196.89 501.538 196.458C502.366 196.026 503.014 195.576 503.482 195.108C503.554 195.036 503.644 194.964 503.752 194.892C503.896 194.784 504.022 194.73 504.13 194.73C504.49 194.73 504.67 195 504.67 195.54C504.67 196.26 504.4 197.034 503.86 197.862C503.356 198.654 502.582 199.338 501.538 199.914C500.53 200.454 499.252 200.724 497.704 200.724C494.86 200.724 492.556 199.806 490.792 197.97C489.028 196.098 488.146 193.542 488.146 190.302C488.146 188.178 488.56 186.342 489.388 184.794C490.216 183.21 491.368 181.986 492.844 181.122C494.32 180.258 496.03 179.826 497.974 179.826C498.91 179.826 499.72 179.898 500.404 180.042C501.124 180.15 501.826 180.348 502.51 180.636C503.914 181.212 504.418 182.202 504.022 183.606L503.752 184.686C503.68 184.974 503.554 185.118 503.374 185.118C503.266 185.118 503.122 185.064 502.942 184.956ZM510.519 191.706C510.735 193.578 511.419 194.964 512.571 195.864C513.723 196.728 515.235 197.16 517.107 197.16C518.619 197.16 519.825 196.962 520.725 196.566C521.625 196.17 522.453 195.702 523.209 195.162C523.353 195.09 523.479 195 523.587 194.892C523.731 194.784 523.857 194.73 523.965 194.73C524.145 194.73 524.271 194.82 524.343 195C524.451 195.144 524.505 195.306 524.505 195.486C524.505 196.242 524.199 197.034 523.587 197.862C523.011 198.654 522.129 199.32 520.941 199.86C519.789 200.4 518.349 200.67 516.621 200.67C514.857 200.67 513.201 200.31 511.653 199.59C510.141 198.834 508.899 197.7 507.927 196.188C506.991 194.64 506.523 192.66 506.523 190.248C506.523 188.232 506.919 186.45 507.711 184.902C508.503 183.318 509.601 182.076 511.005 181.176C512.445 180.276 514.101 179.826 515.973 179.826C518.097 179.826 519.807 180.276 521.103 181.176C522.399 182.04 523.335 183.174 523.911 184.578C524.523 185.946 524.829 187.404 524.829 188.952C524.829 189.42 524.811 189.816 524.775 190.14C524.775 190.464 524.757 190.77 524.721 191.058C524.685 191.49 524.415 191.706 523.911 191.706H510.519ZM510.627 188.628H520.833C520.869 187.8 520.743 186.99 520.455 186.198C520.203 185.406 519.717 184.74 518.997 184.2C518.277 183.66 517.251 183.39 515.919 183.39C514.407 183.39 513.183 183.858 512.247 184.794C511.347 185.694 510.807 186.972 510.627 188.628ZM539.685 184.632C538.821 184.164 537.993 183.822 537.201 183.606C536.409 183.39 535.545 183.282 534.609 183.282C533.673 183.282 532.899 183.462 532.287 183.822C531.711 184.182 531.423 184.722 531.423 185.442C531.423 186.126 531.765 186.684 532.449 187.116C533.133 187.548 533.979 187.944 534.987 188.304C535.995 188.664 537.003 189.078 538.011 189.546C539.055 190.014 539.919 190.626 540.603 191.382C541.287 192.102 541.629 193.092 541.629 194.352C541.629 196.26 540.945 197.808 539.577 198.996C538.245 200.184 536.409 200.778 534.069 200.778C532.593 200.778 531.315 200.526 530.235 200.022C529.155 199.482 528.327 198.816 527.751 198.024C527.175 197.232 526.887 196.44 526.887 195.648C526.887 195.036 527.085 194.73 527.481 194.73C527.625 194.73 527.787 194.82 527.967 195C528.651 195.612 529.443 196.152 530.343 196.62C531.243 197.088 532.359 197.322 533.691 197.322C534.987 197.322 535.959 197.088 536.607 196.62C537.255 196.152 537.579 195.522 537.579 194.73C537.579 194.01 537.237 193.434 536.553 193.002C535.869 192.57 535.005 192.192 533.961 191.868C532.953 191.508 531.927 191.094 530.883 190.626C529.875 190.158 529.029 189.546 528.345 188.79C527.661 188.034 527.319 187.026 527.319 185.766C527.319 183.858 528.039 182.4 529.479 181.392C530.919 180.348 532.647 179.826 534.663 179.826C536.427 179.826 537.957 180.15 539.253 180.798C539.973 181.086 540.441 181.464 540.657 181.932C540.873 182.364 540.891 182.958 540.711 183.714L540.549 184.416C540.513 184.668 540.387 184.794 540.171 184.794C540.099 184.794 540.009 184.776 539.901 184.74C539.829 184.704 539.757 184.668 539.685 184.632Z" fill="#141414" style="fill:#141414;fill:color(display-p3 0.0769 0.0769 0.0769);fill-opacity:1;"/>
<path d="M227.087 183.876H223.415C223.127 183.876 222.983 183.732 222.983 183.444V180.744C222.983 180.456 223.127 180.312 223.415 180.312H227.087V173.616C227.087 173.292 227.213 173.13 227.465 173.13H227.735C228.779 173.13 229.589 173.454 230.165 174.102C230.777 174.714 231.083 175.65 231.083 176.91V180.312H235.241C235.493 180.312 235.619 180.456 235.619 180.744V183.444C235.619 183.732 235.493 183.876 235.241 183.876H231.083V199.698C231.083 200.022 230.939 200.184 230.651 200.184H227.465C227.213 200.184 227.087 200.022 227.087 199.698V183.876ZM253.52 197.376C252.728 198.492 251.774 199.32 250.658 199.86C249.542 200.4 248.3 200.67 246.932 200.67C244.952 200.67 243.26 200.202 241.856 199.266C240.488 198.33 239.444 197.07 238.724 195.486C238.004 193.902 237.644 192.156 237.644 190.248C237.644 188.232 238.04 186.45 238.832 184.902C239.624 183.318 240.722 182.076 242.126 181.176C243.566 180.276 245.222 179.826 247.094 179.826C248.606 179.826 249.92 180.114 251.036 180.69C252.188 181.266 253.088 182.022 253.736 182.958C253.916 182.022 254.276 181.356 254.816 180.96C255.356 180.528 256.04 180.312 256.868 180.312H257.138C257.39 180.312 257.516 180.474 257.516 180.798V199.698C257.516 200.022 257.39 200.184 257.138 200.184H253.952C253.664 200.184 253.52 200.022 253.52 199.698V197.376ZM247.526 196.89C248.426 196.89 249.326 196.71 250.226 196.35C251.162 195.954 251.936 195.27 252.548 194.298C253.196 193.326 253.52 191.976 253.52 190.248C253.52 188.484 253.196 187.134 252.548 186.198C251.936 185.226 251.18 184.56 250.28 184.2C249.38 183.84 248.516 183.66 247.688 183.66C246.14 183.66 244.772 184.2 243.584 185.28C242.396 186.36 241.802 188.016 241.802 190.248C241.802 191.868 242.09 193.164 242.666 194.136C243.278 195.108 244.016 195.81 244.88 196.242C245.78 196.674 246.662 196.89 247.526 196.89ZM261.835 174.966C261.835 174.246 262.069 173.652 262.537 173.184C263.005 172.716 263.581 172.482 264.265 172.482C264.913 172.482 265.471 172.716 265.939 173.184C266.407 173.652 266.641 174.246 266.641 174.966C266.641 175.65 266.407 176.226 265.939 176.694C265.471 177.162 264.913 177.396 264.265 177.396C263.581 177.396 263.005 177.162 262.537 176.694C262.069 176.226 261.835 175.65 261.835 174.966ZM262.645 200.184C262.357 200.184 262.213 200.022 262.213 199.698V180.798C262.213 180.474 262.357 180.312 262.645 180.312H262.915C263.959 180.312 264.769 180.618 265.345 181.23C265.957 181.842 266.263 182.778 266.263 184.038V199.698C266.263 200.022 266.119 200.184 265.831 200.184H262.645ZM275.804 200.67C274.256 200.67 273.032 200.184 272.132 199.212C271.232 198.204 270.782 196.62 270.782 194.46V170.646C270.782 170.322 270.926 170.16 271.214 170.16H271.484C273.68 170.16 274.778 171.402 274.778 173.886V194.19C274.778 196.062 275.48 196.998 276.884 196.998C277.46 196.998 277.946 196.89 278.342 196.674C278.738 196.422 279.116 196.098 279.476 195.702C279.656 195.486 279.836 195.378 280.016 195.378C280.196 195.378 280.322 195.45 280.394 195.594C280.466 195.738 280.502 195.9 280.502 196.08C280.502 196.656 280.34 197.304 280.016 198.024C279.728 198.744 279.242 199.374 278.558 199.914C277.874 200.418 276.956 200.67 275.804 200.67ZM291.434 200.67C288.374 200.67 285.926 199.734 284.09 197.862C282.29 195.954 281.39 193.434 281.39 190.302C281.39 187.17 282.29 184.65 284.09 182.742C285.926 180.798 288.356 179.826 291.38 179.826C294.44 179.826 296.888 180.798 298.724 182.742C300.56 184.65 301.478 187.152 301.478 190.248C301.478 193.38 300.56 195.9 298.724 197.808C296.924 199.716 294.494 200.67 291.434 200.67ZM291.38 196.836C293.072 196.836 294.476 196.296 295.592 195.216C296.744 194.136 297.32 192.498 297.32 190.302C297.32 188.178 296.744 186.54 295.592 185.388C294.476 184.236 293.072 183.66 291.38 183.66C289.652 183.66 288.248 184.236 287.168 185.388C286.088 186.54 285.548 188.178 285.548 190.302C285.548 192.426 286.088 194.046 287.168 195.162C288.248 196.278 289.652 196.836 291.38 196.836ZM309.215 183.174C309.863 182.058 310.637 181.302 311.537 180.906C312.437 180.51 313.607 180.312 315.047 180.312H315.641C315.929 180.312 316.073 180.456 316.073 180.744V183.714C316.073 184.038 315.929 184.2 315.641 184.2H314.345C312.437 184.2 311.123 184.686 310.403 185.658C309.683 186.63 309.323 188.16 309.323 190.248V199.698C309.323 200.022 309.197 200.184 308.945 200.184H305.759C305.471 200.184 305.327 200.022 305.327 199.698V180.744C305.327 180.456 305.471 180.312 305.759 180.312H306.029C306.929 180.312 307.649 180.564 308.189 181.068C308.765 181.536 309.107 182.238 309.215 183.174ZM318.898 174.966C318.898 174.246 319.132 173.652 319.6 173.184C320.068 172.716 320.644 172.482 321.328 172.482C321.976 172.482 322.534 172.716 323.002 173.184C323.47 173.652 323.704 174.246 323.704 174.966C323.704 175.65 323.47 176.226 323.002 176.694C322.534 177.162 321.976 177.396 321.328 177.396C320.644 177.396 320.068 177.162 319.6 176.694C319.132 176.226 318.898 175.65 318.898 174.966ZM319.708 200.184C319.42 200.184 319.276 200.022 319.276 199.698V180.798C319.276 180.474 319.42 180.312 319.708 180.312H319.978C321.022 180.312 321.832 180.618 322.408 181.23C323.02 181.842 323.326 182.778 323.326 184.038V199.698C323.326 200.022 323.182 200.184 322.894 200.184H319.708ZM331.733 183.012C332.309 182.112 333.137 181.374 334.217 180.798C335.297 180.186 336.557 179.88 337.997 179.88C340.517 179.88 342.497 180.654 343.937 182.202C345.377 183.75 346.097 185.856 346.097 188.52V199.698C346.097 200.022 345.953 200.184 345.665 200.184H342.479C342.191 200.184 342.047 200.022 342.047 199.698V189.276C342.047 187.368 341.597 185.946 340.697 185.01C339.797 184.074 338.591 183.606 337.079 183.606C335.459 183.606 334.181 184.092 333.245 185.064C332.309 186 331.841 187.476 331.841 189.492V199.698C331.841 200.022 331.715 200.184 331.463 200.184H328.277C327.989 200.184 327.845 200.022 327.845 199.698V180.798C327.845 180.474 327.989 180.312 328.277 180.312H328.547C329.375 180.312 330.077 180.546 330.653 181.014C331.229 181.482 331.589 182.148 331.733 183.012ZM365.721 197.268C364.965 198.348 364.011 199.158 362.859 199.698C361.743 200.238 360.501 200.508 359.133 200.508C357.189 200.508 355.515 200.058 354.111 199.158C352.743 198.222 351.681 196.98 350.925 195.432C350.205 193.884 349.845 192.156 349.845 190.248C349.845 188.232 350.241 186.45 351.033 184.902C351.825 183.318 352.923 182.076 354.327 181.176C355.767 180.276 357.423 179.826 359.295 179.826C360.807 179.826 362.121 180.114 363.237 180.69C364.389 181.266 365.307 182.022 365.991 182.958C366.135 182.022 366.477 181.356 367.017 180.96C367.557 180.528 368.241 180.312 369.069 180.312H369.339C369.627 180.312 369.771 180.456 369.771 180.744V199.536C369.771 202.488 368.925 204.864 367.233 206.664C365.577 208.5 363.057 209.418 359.673 209.418C357.909 209.418 356.361 209.13 355.029 208.554C353.733 207.978 352.725 207.258 352.005 206.394C351.285 205.566 350.925 204.72 350.925 203.856C350.925 203.604 350.979 203.388 351.087 203.208C351.195 203.028 351.339 202.938 351.519 202.938C351.663 202.938 351.771 202.974 351.843 203.046C351.915 203.118 352.023 203.208 352.167 203.316C352.887 203.964 353.787 204.504 354.867 204.936C355.947 205.404 357.315 205.638 358.971 205.638C361.455 205.638 363.201 205.098 364.209 204.018C365.217 202.938 365.721 201.444 365.721 199.536V197.268ZM359.727 196.89C360.627 196.89 361.527 196.71 362.427 196.35C363.363 195.954 364.137 195.27 364.749 194.298C365.397 193.326 365.721 191.976 365.721 190.248C365.721 188.484 365.397 187.134 364.749 186.198C364.137 185.226 363.381 184.56 362.481 184.2C361.581 183.84 360.717 183.66 359.889 183.66C358.341 183.66 356.973 184.2 355.785 185.28C354.597 186.36 354.003 188.016 354.003 190.248C354.003 191.868 354.291 193.164 354.867 194.136C355.479 195.108 356.217 195.81 357.081 196.242C357.981 196.674 358.863 196.89 359.727 196.89Z" fill="#141414" style="fill:#141414;fill:color(display-p3 0.0769 0.0769 0.0769);fill-opacity:1;"/>
<path d="M202.578 229.227C206.159 229.027 213.063 228.864 216.861 228.797C216.931 228.795 217 228.794 217.07 228.793C217.971 228.776 218.824 228.755 219.823 228.731C222.205 228.676 225.423 228.592 232.14 228.538C234.095 228.49 236.049 228.445 238.004 228.402C259.109 227.934 280.215 227.746 301.321 227.784C301.587 227.78 301.859 227.776 302.133 227.771C307.426 227.687 313.99 227.587 318.115 227.653C323.358 227.736 326.92 227.835 329.845 227.923C346.609 228.048 363.373 228.22 380.137 228.297C383.565 228.313 386.993 228.325 390.421 228.332C392.248 228.335 394.074 228.338 395.9 228.339C400.738 228.341 405.577 228.336 410.416 228.325C413.233 228.263 415.912 228.19 418.396 228.123C421.887 228.029 424.995 227.949 427.562 227.929C433.746 227.881 440.762 228.026 445.972 228.134C446.824 228.151 447.628 228.168 448.371 228.183C452.509 228.165 456.647 228.149 460.785 228.136C461.061 228.161 461.34 228.187 461.623 228.214C465.154 228.547 469.495 228.565 476.329 228.608C479.304 228.627 482.753 228.65 486.814 228.702C489.43 228.736 490.774 228.857 491.872 228.953C492.195 228.982 492.498 229.008 492.805 229.03C493.856 229.105 494.964 229.039 496.273 228.965C497.971 228.868 500.008 228.759 502.699 228.898C511.274 229.331 515.053 229.112 517.911 228.977C518.749 228.936 519.509 228.9 520.287 228.885C522.81 228.834 526.405 228.959 529.121 229.09C531.275 229.194 535.585 229.162 538.853 229.114C540.089 229.095 541.76 229.118 543.729 229.144C545.766 229.172 548.122 229.204 550.644 229.208C557.015 229.219 560.401 229.247 563.124 229.268C563.9 229.274 564.622 229.281 565.345 229.287C567.626 229.307 570.458 229.346 573.325 229.389C576.756 229.442 580.238 229.501 582.888 229.542C589.755 229.727 596.623 229.911 603.49 230.085C607.017 230.176 610.401 230.282 612.896 230.341C615.389 230.403 616.79 230.411 616.79 230.41C616.79 230.409 615.389 230.412 612.896 230.463C610.401 230.512 607.017 230.605 603.49 230.682C596.384 230.835 589.277 231 582.171 231.167C573.515 231.369 564.858 231.572 556.201 231.731C550.146 231.843 544.09 231.941 538.035 232.023C537.411 232.031 536.788 232.039 536.164 232.047C531.077 232.223 525.999 232.402 522.422 232.495C519.468 232.572 517.315 232.548 515.471 232.524C514.201 232.507 513.078 232.491 511.942 232.512C511.332 232.523 510.498 232.542 509.493 232.565C505.389 232.656 498.418 232.819 492.059 232.768C489.237 232.745 485.959 232.668 482.829 232.587C478.354 232.472 474.182 232.349 472.075 232.412C468.376 232.522 464.133 232.482 460.384 232.44C456.809 232.401 453.682 232.361 451.903 232.472C449.778 232.605 447.965 232.566 445.271 232.505C443.402 232.462 441.108 232.408 437.991 232.395C434.393 232.379 431.847 232.298 429.683 232.229C426.637 232.131 424.345 232.055 420.93 232.211C417.136 232.386 413.171 232.5 410.048 232.452C408.625 232.43 406.998 232.439 405.305 232.447C403.064 232.458 400.706 232.468 398.554 232.409C396.78 232.36 395.314 232.233 394.017 232.12C393.612 232.085 393.224 232.051 392.848 232.022C392.039 232.023 391.23 232.024 390.421 232.026C389.817 232.027 389.214 232.028 388.61 232.03C388.381 232.05 388.141 232.073 387.89 232.096C386.63 232.214 385.081 232.359 383.164 232.43C380.13 232.542 377.467 232.468 374.659 232.389C372.472 232.327 370.196 232.263 367.588 232.281C365.809 232.293 363.784 232.34 361.776 232.387C358.795 232.456 355.85 232.521 353.804 232.468C353.038 232.448 352.379 232.368 351.727 232.289C351.724 232.288 351.721 232.288 351.718 232.287C351.674 232.282 351.629 232.277 351.585 232.271C346.603 232.316 341.62 232.363 336.637 232.408C336.206 232.425 335.769 232.443 335.337 232.459C333.224 232.542 331.171 232.62 329.833 232.737C328.382 232.864 324.735 232.919 320.892 232.971C318.375 233.005 315.773 233.038 313.649 233.09C312.407 233.121 311.229 233.037 310.017 232.951C308.886 232.871 307.725 232.79 306.455 232.796C305.82 232.799 305.133 232.822 304.4 232.847C303.755 232.868 303.073 232.89 302.359 232.901C301.695 232.911 300.218 232.857 298.323 232.79C297.152 232.749 295.821 232.702 294.425 232.66C290.734 232.665 287.042 232.663 283.351 232.654C282.581 232.701 281.913 232.765 281.384 232.851C281.004 232.912 280.681 232.987 280.349 233.063C279.898 233.167 279.43 233.273 278.786 233.352C278.283 233.413 277.689 233.431 277.291 233.395C277.105 233.378 276.962 233.35 276.833 233.325C276.685 233.296 276.552 233.27 276.391 233.268C276.274 233.267 276.153 233.283 276.004 233.303C275.766 233.335 275.456 233.375 274.985 233.369C273.231 233.343 271.238 233.292 269.286 233.241C267.114 233.185 264.992 233.13 263.301 233.109C261.407 233.086 258.708 232.97 256.005 232.857C254.119 232.778 252.23 232.7 250.609 232.652C249.021 232.605 247.368 232.603 245.767 232.599C243.845 232.595 241.996 232.586 240.425 232.506C240.107 232.49 239.713 232.425 239.218 232.346C238.867 232.289 238.463 232.225 238.004 232.165C236.004 232.127 234.004 232.086 232.004 232.043C231.933 232.048 231.861 232.054 231.788 232.059C231.787 232.06 231.786 232.06 231.784 232.06C230.142 232.191 227.894 232.345 224.736 232.145C223.934 232.095 223.428 232.027 222.973 231.967C222.526 231.908 222.126 231.856 221.541 231.835C220.877 231.811 220.092 231.824 219.237 231.835C218.037 231.852 216.696 231.866 215.35 231.792C215.258 231.787 215.159 231.781 215.056 231.776C214.081 231.723 212.637 231.645 211.2 231.532C206.936 231.42 202.672 231.307 198.409 231.196C191.302 231.011 184.194 230.834 177.089 230.677C173.631 230.6 170.316 230.509 167.871 230.461C165.426 230.411 164.053 230.409 164.053 230.41C164.053 230.411 165.427 230.403 167.871 230.344C170.316 230.286 173.631 230.182 177.089 230.092C182.726 229.945 188.365 229.787 194.003 229.624C194.299 229.613 194.596 229.602 194.891 229.592C197.089 229.515 199.128 229.414 201.169 229.303C201.638 229.278 202.107 229.252 202.578 229.227Z" fill="#A32F31" style="fill:#A32F31;fill:color(display-p3 0.6392 0.1843 0.1922);fill-opacity:1;"/>
<path d="M202.578 315.836C206.159 315.637 213.063 315.474 216.861 315.406C216.931 315.405 217 315.403 217.07 315.402C217.971 315.385 218.824 315.365 219.823 315.341C222.205 315.286 225.423 315.202 232.14 315.148C234.095 315.1 236.049 315.054 238.004 315.011C259.109 314.544 280.215 314.355 301.321 314.393C301.587 314.389 301.859 314.385 302.133 314.381C307.426 314.297 313.99 314.196 318.115 314.262C323.358 314.346 326.92 314.444 329.845 314.533C346.609 314.657 363.373 314.83 380.137 314.907C383.565 314.922 386.993 314.934 390.421 314.941C392.248 314.945 394.074 314.947 395.9 314.948C400.738 314.95 405.577 314.945 410.416 314.935C413.233 314.872 415.912 314.799 418.396 314.732C421.887 314.638 424.995 314.558 427.562 314.538C433.746 314.49 440.762 314.636 445.972 314.743C446.824 314.761 447.628 314.777 448.371 314.792C452.509 314.775 456.647 314.758 460.785 314.745C461.061 314.77 461.34 314.796 461.623 314.823C465.154 315.156 469.495 315.174 476.329 315.218C479.304 315.236 482.753 315.259 486.814 315.312C489.43 315.346 490.774 315.466 491.872 315.563C492.195 315.591 492.498 315.618 492.805 315.639C493.856 315.714 494.964 315.648 496.273 315.574C497.971 315.477 500.008 315.368 502.699 315.507C511.274 315.94 515.053 315.722 517.911 315.586C518.749 315.545 519.509 315.509 520.287 315.494C522.81 315.444 526.405 315.568 529.121 315.699C531.275 315.803 535.585 315.771 538.853 315.723C540.089 315.705 541.76 315.727 543.729 315.754C545.766 315.782 548.122 315.814 550.644 315.817C557.015 315.828 560.401 315.856 563.124 315.877C563.9 315.884 564.622 315.89 565.345 315.896C567.626 315.917 570.458 315.955 573.325 315.999C576.756 316.051 580.238 316.111 582.888 316.152C589.755 316.336 596.623 316.521 603.49 316.695C607.017 316.785 610.401 316.892 612.896 316.951C615.389 317.012 616.79 317.021 616.79 317.019C616.79 317.018 615.389 317.021 612.896 317.072C610.401 317.121 607.017 317.215 603.49 317.292C596.384 317.444 589.277 317.61 582.171 317.776C573.515 317.978 564.858 318.181 556.201 318.341C550.146 318.452 544.09 318.551 538.035 318.632C537.411 318.641 536.788 318.649 536.164 318.657C531.077 318.832 525.999 319.011 522.422 319.104C519.468 319.181 517.315 319.157 515.471 319.133C514.201 319.116 513.078 319.1 511.942 319.121C511.332 319.133 510.498 319.151 509.493 319.174C505.389 319.265 498.418 319.428 492.059 319.377C489.237 319.354 485.959 319.277 482.829 319.196C478.354 319.081 474.182 318.959 472.075 319.021C468.376 319.131 464.133 319.091 460.384 319.049C456.809 319.01 453.682 318.971 451.903 319.082C449.778 319.215 447.965 319.176 445.271 319.114C443.402 319.071 441.108 319.018 437.991 319.004C434.393 318.988 431.847 318.908 429.683 318.838C426.637 318.74 424.345 318.664 420.93 318.821C417.136 318.995 413.171 319.11 410.048 319.062C408.625 319.04 406.998 319.048 405.305 319.056C403.064 319.067 400.706 319.078 398.554 319.018C396.78 318.97 395.314 318.842 394.017 318.73C393.612 318.694 393.224 318.661 392.848 318.631C392.039 318.632 391.23 318.633 390.421 318.635C389.817 318.636 389.214 318.637 388.61 318.639C388.381 318.66 388.141 318.682 387.89 318.706C386.63 318.824 385.081 318.968 383.164 319.039C380.13 319.151 377.467 319.077 374.659 318.998C372.472 318.937 370.196 318.872 367.588 318.89C365.809 318.902 363.784 318.95 361.776 318.996C358.795 319.065 355.85 319.131 353.804 319.078C353.038 319.058 352.379 318.977 351.727 318.898C351.724 318.898 351.721 318.897 351.718 318.897C351.674 318.891 351.629 318.886 351.585 318.881C346.603 318.925 341.62 318.972 336.637 319.017C336.206 319.035 335.769 319.052 335.337 319.069C333.224 319.151 331.171 319.229 329.833 319.346C328.382 319.474 324.735 319.529 320.892 319.58C318.375 319.614 315.773 319.647 313.649 319.7C312.407 319.73 311.229 319.646 310.017 319.56C308.886 319.48 307.725 319.4 306.455 319.406C305.82 319.408 305.133 319.432 304.4 319.456C303.755 319.477 303.073 319.5 302.359 319.51C301.695 319.52 300.218 319.467 298.323 319.399C297.152 319.358 295.821 319.311 294.425 319.27C290.734 319.274 287.042 319.272 283.351 319.263C282.581 319.311 281.913 319.375 281.384 319.46C281.004 319.522 280.681 319.597 280.349 319.673C279.898 319.776 279.43 319.882 278.786 319.961C278.283 320.023 277.689 320.04 277.291 320.004C277.105 319.987 276.962 319.959 276.833 319.934C276.685 319.905 276.552 319.88 276.391 319.878C276.274 319.876 276.153 319.893 276.004 319.913C275.766 319.944 275.456 319.985 274.985 319.978C273.231 319.952 271.238 319.901 269.286 319.85C267.114 319.794 264.992 319.739 263.301 319.719C261.407 319.696 258.708 319.579 256.005 319.466C254.119 319.387 252.23 319.31 250.609 319.261C249.021 319.214 247.368 319.213 245.767 319.208C243.845 319.204 241.996 319.195 240.425 319.115C240.107 319.099 239.713 319.035 239.218 318.955C238.867 318.899 238.463 318.835 238.004 318.775C236.004 318.737 234.004 318.695 232.004 318.652C231.933 318.657 231.861 318.663 231.788 318.669C231.787 318.669 231.786 318.669 231.784 318.669C230.142 318.801 227.894 318.954 224.736 318.754C223.934 318.704 223.428 318.636 222.973 318.576C222.526 318.517 222.126 318.466 221.541 318.444C220.877 318.42 220.092 318.433 219.237 318.445C218.037 318.462 216.696 318.475 215.35 318.401C215.258 318.396 215.159 318.39 215.056 318.385C214.081 318.332 212.637 318.255 211.2 318.141C206.936 318.03 202.672 317.916 198.409 317.805C191.302 317.62 184.194 317.444 177.089 317.286C173.631 317.209 170.316 317.118 167.871 317.071C165.426 317.021 164.053 317.019 164.053 317.02C164.053 317.021 165.427 317.013 167.871 316.953C170.316 316.896 173.631 316.792 177.089 316.701C182.726 316.555 188.365 316.397 194.003 316.233C194.299 316.222 194.596 316.212 194.891 316.202C197.089 316.125 199.128 316.023 201.169 315.913C201.638 315.887 202.107 315.862 202.578 315.836Z" fill="#A32F31" style="fill:#A32F31;fill:color(display-p3 0.6392 0.1843 0.1922);fill-opacity:1;"/>
<defs>
<linearGradient id="paint0_linear_315_168" x1="-16.8503" y1="390.231" x2="1002.34" y2="107.294" gradientUnits="userSpaceOnUse">
<stop stop-color="#782526" style="stop-color:#782526;stop-color:color(display-p3 0.4712 0.1450 0.1504);stop-opacity:1;"/>
<stop offset="0.5" stop-color="#A32F31" style="stop-color:#A32F31;stop-color:color(display-p3 0.6392 0.1843 0.1922);stop-opacity:1;"/>
<stop offset="1" stop-color="#782526" style="stop-color:#782526;stop-color:color(display-p3 0.4706 0.1451 0.1490);stop-opacity:1;"/>
</linearGradient>
<linearGradient id="paint1_linear_315_168" x1="-16.8503" y1="158.738" x2="1002.34" y2="441.675" gradientUnits="userSpaceOnUse">
<stop stop-color="#782526" style="stop-color:#782526;stop-color:color(display-p3 0.4712 0.1450 0.1504);stop-opacity:1;"/>
<stop offset="0.5" stop-color="#A32F31" style="stop-color:#A32F31;stop-color:color(display-p3 0.6392 0.1843 0.1922);stop-opacity:1;"/>
<stop offset="1" stop-color="#782526" style="stop-color:#782526;stop-color:color(display-p3 0.4706 0.1451 0.1490);stop-opacity:1;"/>
</linearGradient>
</defs>
</svg>
