<svg xmlns="http://www.w3.org/2000/svg" width="1000" height="1000" viewBox="0 0 65 65" fill="none">
  <defs>
    <linearGradient id="bg" x1="0" y1="0" x2="64.02" y2="63.3595" gradientUnits="userSpaceOnUse">
      <stop stop-color="#0198F0"/>
      <stop offset="1" stop-color="#001724"/>
    </linearGradient>
  </defs>

  <!-- background -->
  <path d="M0 6.50362C0 2.91177 2.91177 0 6.50362 0H57.5164C61.1082 0 64.02 2.91177 64.02 6.50362V57.5164C64.02 61.1082 61.1082 64.02 57.5164 64.02H6.50362C2.91177 64.02 0 61.1082 0 57.5164V6.50362Z" fill="url(#bg)"/>

  <!-- icon -->
  <path fill-rule="evenodd" clip-rule="evenodd" d="M52.8927 44.814L45.9403 57.618L38.9878 44.814L32.0354 57.618L25.083 44.814L18.1305 57.618L11.1781 44.814V9.65381C11.1781 7.85788 12.634 6.402 14.4299 6.402H49.6409C51.4368 6.402 52.8927 7.85788 52.8927 9.65381V44.814ZM15.3154 23.7848C14.642 23.7848 14.096 24.3308 14.096 25.0042V26.9522C14.096 27.6256 14.642 28.1716 15.3154 28.1716H48.7851C49.4586 28.1716 50.0046 27.6256 50.0046 26.9522V25.0042C50.0046 24.3308 49.4586 23.7848 48.7851 23.7848H15.3154ZM15.2937 17.9358C14.6202 17.9358 14.0742 18.4817 14.0742 19.1552V21.1031C14.0742 21.7766 14.6202 22.3225 15.2937 22.3225H48.7633C49.4368 22.3225 49.9828 21.7766 49.9828 21.1031V19.1552C49.9828 18.4817 49.4368 17.9358 48.7633 17.9358H15.2937ZM15.2937 12.0927C14.6202 12.0927 14.0742 12.6386 14.0742 13.3121V15.26C14.0742 15.9335 14.6202 16.4795 15.2937 16.4795H48.7633C49.4368 16.4794 49.9828 15.9335 49.9828 15.26V13.3121C49.9828 12.6386 49.4368 12.0927 48.7633 12.0927H15.2937Z" fill="white"/>
</svg>